<?xml version="1.0" encoding="UTF-8" standalone="no"?><svg xmlns="http://www.w3.org/2000/svg" xmlns:xlink="http://www.w3.org/1999/xlink" fill="#000000" height="502" id="Layer_1" preserveAspectRatio="xMidYMid meet" version="1.1" viewBox="-7.7 0.1 373.6 502.0" width="373.6" x="0" xml:space="preserve" y="0" zoomAndPan="magnify"><g id="change1_1"><path d="M361.6,276.6c-1.6-14.4-6-28.7-12.7-41.7c1.5,1.1,2.7,1.7,3.9,1.8c0.1,0,0.2,0,0.3,0c1.1,0,2-0.5,2.6-1.4 c3.9-5.4-5-34.4-5.1-34.7c-1.8-5.3-3.9-10.5-6.2-15.5c1.9,1.7,3.4,2.5,4.7,2.6c0.1,0,0.2,0,0.3,0c1.4,0,2.6-0.6,3.4-1.7 c3-4.2-0.4-16.3-4.2-27.6c-0.2-0.5-0.3-1-0.4-1.3c-4.6-14.3-13.2-33.1-28.1-45.8c1.5,0.6,3.1,1,4.7,1.4c1.9,0.4,3.4,0.6,4.5,0.6 c2.1,0,3.5-0.7,4.1-1.9c1.2-2.4-0.8-5.5-4.3-10.3c-3.9-5.3-6.7-11.3-9.7-17.6c-3.7-7.8-7.5-15.8-13.4-22.6c-0.1-0.1-0.2-0.3-0.2-0.5 c0-0.2,0.1-0.3,0.2-0.4c3.4-2.8,5-5,4.9-7.1c0-1.3-0.6-2.4-1.7-3.3c0,0,0,0,0-0.1c-3.4-3.8-9.3-4.5-14.1-5c-0.8-0.1-1.5-0.2-2.2-0.3 c-2.2-0.3-4.6-0.6-7-0.7c-1.3-0.5-2.7-0.8-4.3-1c-5.9-13.9-12.5-23.7-20.1-29.9c-9.6-7.8-23.9-9.4-36.7-10.8 c-2.1-0.2-4.2-0.5-6.1-0.7c-5.3-0.7-10.7-1-16.2-1c-10.9,0-22,1.3-33.7,4.1C160.9,6,152.7,8.6,144,12c-1.3,0.5-2.6,1-4.1,1.5 c-2.9,1-5.8,2.1-8.6,3.4c0.7-4.1,0.5-7-0.8-8.7c-0.8-1.1-2.1-1.7-3.5-1.7c-4.2,0-8.8,5.2-12,9.5c-1.3,1.8-2.5,3.6-3.7,5.3 c-3.5,5.2-6.9,10.1-12.2,13.8c-2.8,1.9-6,3.5-9,4.9c-3.1,1.5-6.4,3.1-9.4,5.1l-0.2,0.1c-3,2.1-6.7,4.6-8.9,8c-1,1.6-1.5,3.7-2,5.8 c-0.3,1.3-0.7,3-1.1,3.5c-3.2,4.6-10.1,6.4-16.2,8.1c-1.5,0.4-3,0.8-4.4,1.2c-19,5.9-33.8,18.8-41.6,36.5 c-14,31.5-3.9,76.3,22.4,99.7c1.2,1,2.1,1.9,2.8,2.6c1.7,1.6,2.5,2.4,3.7,2.4c1.8,0,2.4-1.6,2.9-3c0.1-0.3,0.3-0.7,0.4-1.2 c1.5-3.9,1.4-8,1.3-11.9c-0.1-4.7-0.2-9.6,2.6-13.9c3.1-4.9,6.8-5.9,11.3-5.9c2,0,4,0.2,6.2,0.4c1.4,0.1,3.1,0.3,4.7,0.4 c2.2,0.1,4.5,0.2,6.7,0.2c8.8,0,17.7-1,27.4-3c0.5,11.6-0.8,23.6-12.4,26.6c-0.1,0-0.4,0.1-0.9,0.1c-3.6,0-11-2.9-16.4-5 c-4.6-1.8-6.8-2.6-8.1-2.6c-0.9,0-1.5,0.4-1.8,0.7c-0.7,0.7-1,1.8-0.8,2.8c0.5,3.8,7,9.6,11,12.9c-15.2,5.4-28.5,13.4-39.6,23.9 c-5.6,5.3-10.6,11.2-14.7,17.3c-0.1,0.1-0.1,0.2-0.1,0.2l-0.1,0.2c-8.9,17.4-7.8,19.2-7.2,20.2c0.4,0.7,1.2,1.1,2,1.1 c0.4,0,0.8-0.1,1.1-0.2c2.8-1.2,5-3.6,7.4-6.1c2-2.1,4-4.3,6.1-5.4c4.7-2.6,9.9-4.6,14.6-6.4c-9.9,13.2-11.6,28.1-11.1,38.5 c0.7,15.7,6.7,31.8,16.4,44.4c8.8,11.4,20.7,20.9,35.1,28.3c6.4,3.3,14.7,7.3,22.9,9.5c8.9,2.4,10.1,3.2,16.2,11.1l1,1.3 c8.2,10.4,18.3,23.4,17.6,37.1c-0.2,3.5-1.4,11.9-8.7,14.7c-0.5,0.2-1.2,0.3-2.1,0.3c-1.2,0-2.6-0.1-3.9-0.3 c-1.4-0.1-2.9-0.3-4.2-0.3c-1.6,0-3.8,0.2-5.2,1.9c-1.1,1.4-1.3,2.9-0.6,4.4c3.2,6.7,28.4,9.4,32.3,9.4c0.6,0,1.1,0,1.5-0.1 c12.8-2.5,23-11.9,26.8-24.2c6.1,13.5,11.6,28.8,9.4,42.5c-1.1,6.6-3.9,11.9-8.2,15.5c-1.5,1.2-16.3,5.1-17.6,5.3l-0.9,0.1l0,0.3 l-0.4-0.2l-0.4,0.9c-0.8,1.7-0.3,3,0.1,3.6c1.2,1.9,4.2,2.7,9.4,2.7c3.9,0,7.7-0.5,8.4-0.6c5.5-1.2,12.7-4.6,17.3-7.4 c9.6-5.8,17.6-15.6,22.5-27.5c9.7-24,5.2-51.7,0.2-75.4c4.4,9.4,7.3,17.7,8.9,25.3c0.5,2.5,0.4,5.3,0.2,7.9 c-0.2,2.5-0.3,5.1,0.1,7.6c0.3,1.7,0.2,2.8,0.1,3.6c-0.1,0.8-0.1,1.8,0.6,2.6c0.4,0.5,1,0.7,1.7,0.7c0.7,0,1.4-0.3,2.9-0.9l1.2-0.5 c1.7-0.7,3.8-3.6,8-9.7c1.2-1.7,2.2-3.2,2.7-3.8c4.2-4.9,8.1-11,11.6-18.1c4.6-9.1,7.6-18.7,9.1-28.6c0.6,2.7,0.9,5.2,1.2,7.6 c0.3,3,0,6.6-0.4,10.4c-0.5,5.2-1,10.5,0.2,14.9c0.8,2.8,1.6,5.2,3.8,5.2c1.5,0,2.4-1.2,3.5-2.8c0.7-1,1.5-2.1,2.7-3.2 c2.1-2.1,4.5-4,6.7-5.9c3.4-2.8,6.9-5.8,10.1-9.4c20.7-23.9,31.4-46.7,32.8-69.5c3,9.3,4.5,19.1,4.5,28.6c0,1.7-0.1,3.8-0.3,6.1 c-0.5,7.9-0.7,12.8,1.2,14.8c0.6,0.6,1.4,1,2.2,1c1.8,0,3.7-1.2,7.5-7.2C345,353.5,365.9,315.8,361.6,276.6z" fill="#000000"/></g><g id="change2_1"><path d="M342.4,244.7c-3.1-8.2-8.8-23.5-18.2-29.8c-0.5-0.3-2.8-1.2-5-2c-11.2-4.1-16-6.3-15.3-9 c0.3-1.3,1.3-2.7,4.2-2.7c9.1,0,32.2,15.7,39.5,21.1c-3.1-16.3-12-50.2-32.8-67.2c-0.6-0.5-2.1-1.1-3.8-1.8c-4.5-1.9-10.1-4.3-9.1-8 c0.2-0.7,0.8-1.8,2.9-1.8c2.7,0,7,1.9,10.2,3.4l0.2,0.1c9.7,4.6,20.2,12.9,28.2,22.2c-5.3-18.4-12-36.9-26.2-49.8 c-6.1-5.5-13.1-9.7-20.9-12.4c-0.7-0.3-3.2-0.7-5.7-1.1c-9.9-1.6-13.5-2.5-14-4.1c-0.4-1.2,0-2.1,0.3-2.6c1.2-1.7,4.5-2.5,10.4-2.5 c9.9,0,24.6,2.4,30.9,3.7c-3.2-4.4-5.7-10.1-8.1-15.6c-2.2-5.1-4.3-9.9-6.7-13c-1.4-1.8-2.7-3.3-3.8-4.6c-3.5-4-5.4-6.1-2.6-11 c-0.8-0.2-1.7-0.3-2.5-0.5c-1-0.2-2-0.4-3-0.6l-0.3-0.1c-1.2-0.2-2.4-0.4-3.6-0.6c-1.7,0.7-3.8,1-6.2,1c-3.1,0-6.4-0.5-9.3-1 c-1.2-0.2-2.3-0.4-3.3-0.5c-3.8-0.5-7.7-0.9-11.5-1.2c-4.9-0.4-9.9-0.9-14.9-1.7c-1.4-0.2-2.4-1.5-2.4-3.1c0-1.6,1-2.9,2.4-3.2 c2.2-0.4,4.3-0.7,6.4-0.9c0.2-1.3,0.5-2.9,0.9-4.7c1.2,2,2.2,3.4,2.9,4.4c4.8-0.3,9.6-0.4,14.6-0.5l0.7,0c0.8,0,1.6,0,2.5-0.1 c-0.7-4.1-1.8-8.6-4.8-13.1c-3.2-4.9-7.6-8.2-14.7-11.1c-12.5-5.1-28.4-6.2-40.9-6.5c-1.2,0-2.4,0-3.6,0c-12.8,0-25.9,1.8-40.4,5.5 c-6.7,1.7-13.8,3.5-20.8,5.5c-1.5,0.4-3.1,0.9-4.7,1.4c-4.3,1.4-8.8,2.8-13.1,2.9c-0.7,0.1-1.4,0.2-1.9,0.2c-1.4,0-2.5-0.5-3.2-1.4 c-0.8-1.1-1.1-2.8-0.7-5.4c-1,1.5-1.9,3.1-2.9,4.7c-3.6,6-7.3,12.3-12.8,16.6c-3.6,2.8-7.4,4.7-11.2,6.5 c-5.8,2.8-11.3,5.5-15.1,11.3c2.1-0.3,4.1-0.4,6.2-0.4c2.9,0,5.9,0.3,8.7,0.8c1.4,0.2,2.8,0.6,4.3,1c0.1-0.2,0.2-0.3,0.3-0.5 c8-10.5,21.6-17.6,33.9-17.6c3,0,6,0.4,8.7,1.2c1.3,0.4,2.2,1.6,2.2,3.1c0,1.4-0.9,2.5-2.2,2.9l-1.9,0.5c-5.8,1.5-11.2,3-16.6,5.3 c-5.5,2.4-9.6,6-13.7,9.7c5,3.1,9,6.9,12.8,10.6c7.2,6.8,13.4,12.7,23.5,12.7c2,0,4.1-0.2,6.4-0.7c-4.2-1.9-8.4-4.3-9.1-6.4 c-0.2-0.6-0.2-1.1,0.1-1.6c0.2-0.3,0.5-0.5,0.9-0.5c0.1,0,0.2,0,0.2,0c0.1,0,0.3,0.1,0.4,0.2c2.1,0.8,22,5.1,24.3,5.2 c0.7,0,1.3,0,1.9,0c8.1,0,15.3-1.7,23.6-4.4c3.4-1.1,6.8-2.2,10.4-3.5c13.5-4.6,27.4-9.3,41-9.3c0.6,0,1.3,0,1.9,0 c0.2,0,23.6,1,24.2,6.9c0.2,2.1-3.1,2.8-9,4c-2.4,0.5-5.2,1-6.1,1.5c-5,3-7.6,5.5-7.6,7.5c0,2.2,3.2,4,6.2,5.8 c3.7,2.1,7.9,4.5,6.1,8.2c-0.4,0.9-1.7,1.3-4.5,1.3c-2.3,0-5.3-0.2-7.9-0.5c-2.1-0.2-4.1-0.3-5.3-0.3c-0.4,0-0.7,0-0.8,0 c-4.2,0.7-8.1,2.3-12.6,5.2c-2.6,1.7-4.9,3.5-7.1,5.2c-4,3.1-7.7,6.1-12.9,8.1c-4.8,1.9-10.2,3-15.6,3c-12.7,0-26.5-5.9-32.5-18.8 c0.7,3.8,2.2,7.5,4.6,11.9l-0.1,0c1.9,2,5.6,8.9,5.7,9.3c0.2,0.6,0.7,1.7,0,2.4c-0.2,0.2-0.6,0.5-1.2,0.5c-1.7,0-4.5-2.3-8.9-6.1 c-3-2.6-7.1-6.1-8.6-6.3c0.2,2.1,8.1,10.5,10.1,12.2c6.5,4.9,15.8,8.3,28.2,10.4c0.7,0.1,3.3,0.3,6.4,0.5 c19.1,1.2,22.2,1.9,22.4,3.6c0.2,1.5-1.6,2.2-6.9,3.8c-2.6,0.8-7,2.2-7.6,3.1c-0.9,1.4-1.2,5.2,7.4,14.8c4.9,5.5,11.1,9.4,18.4,11.5 c0.6,0.2,2.4,0.4,4.4,0.6c8.6,1.1,11.7,1.7,12,3.5c0.1,0.3,0,0.7-0.2,0.9c-0.4,0.4-1,0.7-3.4,0.7c-5.9,0-20-1.5-29.4-2.4 c-4.3-0.4-7.8-0.8-8.5-0.8c-0.4,0-0.9,0-1.4,0c-14.3,0-33.8,3.6-44,11.3c14.7,4.3,27.4,17.2,31.9,32.6c0.8,2.8,1.4,32.9-4.4,40.6 c-1,1.3-2.1,1.9-3.4,1.9c-0.6,0-1.3-0.2-2-0.5c-2.7-1.4-3.1-8.9-3.3-19.3c-0.1-3.2-0.1-5.9-0.4-7.1c-2.5-13.8-7.9-22.9-17.5-28.9 c3.2,8.8,7.9,32.1,3.9,40.1c-0.6,1.2-1.4,2-2.1,2.4h0c0,0,0,0,0,0c-0.1,0.1-0.3,0.2-0.4,0.2c0,0-0.1,0-0.1,0 c-0.2,0.1-0.3,0.1-0.5,0.2c0,0,0,0,0,0h0c-0.5,0.2-1,0.2-1.4,0.2c-0.1,0-0.3,0-0.4,0l0.1-1c0,0,0,0,0,0c0,0,0,0,0,0l0-0.5 c0-0.1,0-0.3,0-0.5c-0.6,0-0.9,0.5-0.9,0.8c0.1-1.9-5-26.6-6.2-30.4c-2.8-8.3-6.9-15.7-11.2-23.5c-1.2-2.2-2.4-4.4-3.6-6.6 c-0.9,6.9-3.6,13.4-7.7,18.6c-0.1,0.1-9,10.7-13.5,10.7c-0.6,0-1.1-0.2-1.5-0.5c-1.5-1.1-0.4-3.8,3.4-11.4c0.8-1.5,1.5-2.9,1.6-3.4 c1.8-6,1.5-12,0.8-17c-4.1,9.8-10.9,18.4-18.8,23.6c-6.1,4-12.2,4.2-18,4.4c-1.8,0.1-3.6,0.1-5.4,0.3c-0.1,0.7-0.8,1.6-1.2,1.6 c-0.9,0.1-2-0.4-2.7-0.6c0.1-0.2,0.2-0.3,0.3-0.5c-0.3,0-0.5,0.1-0.8,0.1c-17.9,3.8-36.9,16.4-50.5,33.3c7.1-3.5,20.3-9.3,26.8-9.3 c2.2,0,3.6,0.6,4.3,1.9c0.9,1.6,0.3,4.1-1.8,7.5c-1.9,3.1-4.2,5.7-6.4,8.2c-3.2,3.7-6.3,7.1-8.3,12c-3.2,8-4.6,16.7-3.8,25.1 c3.4,40.7,42.3,61.1,67.1,70.1c-3.1-5-9.8-16.4-13.9-25.8c-2.9-5.3-5.5-12.5-5.2-21.5c0.7-20.1,10.2-31,11.5-28.4 c1.3,2.6-3.6,26.2,1.9,41.3c6.2,17.3,16.6,25.3,16.6,25.3l-11.9-4.8c1,2,1.9,3.5,2.2,4c4,5.7,8.6,11.1,13,16.3 c3,3.6,6.2,7.3,9.1,11.1c5.4,6.9,22.6,30.8,18.1,48.9c-1.5,6-5.3,10.7-11.3,14.1c1.7,0.3,3.3,0.4,5,0.4c13.5,0,24.3-9.6,26.3-23.3 c1.3-9.1-1.2-13.5-5.9-21.5c-0.2-0.4-0.8-1.2-1.5-2.4c-8.5-13.2-11.5-18.9-11-20.7c0.1-0.4,0.3-0.7,0.6-0.9c0.3-0.2,0.6-0.2,0.9-0.2 c7.2,0,33.5,51.6,33.8,52.1c6.8,15.4,14.5,37.1,7,54c17.5-15.4,19.3-40.3,19.2-50.7c0-1.9-1.1-8.8-2.4-17.6 c-6.4-42.7-7.2-55.9-3.4-56.6c0.1,0,0.2,0,0.4,0c2.2,0,5.8,3,16,25c0.2,0.5,0.4,0.9,0.6,1.2c4.6,9.7,10.3,21.7,12.1,33.6 c11.5-14.8,18-29.9,19.9-46.2c1.2-9.7,0.7-19.5-1.4-29.2c-0.7-3.2-2.3-6.9-3.9-10.4c-2.2-4.8-4.4-9.8-4.6-14.3 c-0.1-2.7,0.2-4.3,1-5.1c0.4-0.4,0.9-0.6,1.4-0.6c2.9,0,6.5,6.5,7.6,8.4c2.9,5.4,4.2,11.1,5.5,16.7c0.5,2.2,1,4.5,1.7,6.7 c1.2,4.5,2.7,8.9,4.1,13.3c3.8,11.9,7.8,24.1,7.7,37.3c3-3.7,6.2-7.2,9.2-10.7c11.9-13.6,23.2-26.5,27.8-45.5 c2.9-11.9,3.5-25.1,1.6-35.2c-0.1-0.6-1-3.1-2-5.9c-5.8-16.8-6.9-21.6-5.1-22.7c0.3-0.2,0.7-0.3,1-0.3c3.8,0,9.7,11.4,18,29.9 c1.1,2.4,2,4.3,2.3,5c7,13,10.9,28,10.9,42c5.9-13.9,11.7-28.3,14.9-43.2C353.3,289.6,351.1,267.7,342.4,244.7z M279.6,77.5 c0.4-1.4,1.5-2.6,2.6-4.3c1.7,1.1,2.3,1.5,3,1.9c-1.3,1.6-2.7,3.2-4,4.8C280.6,79.1,279.4,78.1,279.6,77.5z M252.3,35.3 c0.7,0,1.3,1,2.4,1.9c-1.3,0.7-2.1,1.6-2.7,1.4c-0.7-0.2-1.1-1.2-1.7-1.9C251,36.2,251.6,35.3,252.3,35.3z M190.7,58.7 c-0.6-0.7-1.7-1.5-1.6-2.2c0.1-0.9,1-2,1.8-2.3c0.8-0.3,1.9,0.4,3.7,0.9C192.1,57.4,191.4,58,190.7,58.7z M199.3,180.6 c1,0.7,1.9,1.5,3.3,2.6c-1.1,1.3-1.8,2.1-2.4,2.8c-0.7-1.4-1.5-2.7-2-4.1C198,181.7,199.2,180.6,199.3,180.6z M225.6,381 c0,0-10.1-24-28.4-45.3c0,0-19.5-20-16.3-21.5s27.9,12.9,36.9,26.9c9,14,9,14,9,14s0.6-9.6-2.7-19.3c-3.3-9.6,1.3-4.6,5.9,6.6 C234.7,353.6,235,367.9,225.6,381z M284.4,234.7c-1.7-0.3-3.1-2.3-4.6-3.6c0.9-0.6,1.9-1.8,2.8-1.8c2.2,0.2,4.3,1,8.5,2.1 C287.5,233.3,285.7,235,284.4,234.7z" fill="#0d8bff"/></g><g id="change3_1"><path d="M194.7,92.5c3.8-0.8,7.9-1.7,12.2-2.9c-1,4.1-4.4,6.8-7.3,6.8C197.5,96.5,195.8,95.1,194.7,92.5z M221.4,85.4 c-6,2-6,2-7.6,8l-0.4,1.4c-1.6,6-5.5,10.7-10.7,12.9c-2.2,1-4.8,1.5-7.5,1.5c0,0,0,0,0,0c-8.6,0-18.6-5-20.3-14.3 c-0.2-0.6-2.7-1.1-7.3-1.4c-0.6,0-1.1-0.1-1.5-0.1c2.7,9.8,9.8,24.6,28.4,24.6c0.7,0,1.4,0,2.2-0.1c21.7-1.3,25.4-20.4,25.5-32.6 C221.8,85.3,221.6,85.3,221.4,85.4z" fill="#ffde59"/></g><g id="change4_1"><path d="M74.4,155c6.6-1.5,13-4.5,19.2-7.4c7.7-3.6,15.7-7.3,24.2-8.2c1.1-0.1,2.3-0.2,3.4-0.2c8.9,0,16.9,3.7,24.7,7.3 c4.4,2,8.9,4.1,13.5,5.5c5,1.5,10.2,2.3,15.4,2.3c8.4,0,16.8-2,24.6-5.8c-26-0.9-47.7-14.4-68-42.5c-1.6-2.2-3.2-4.5-4.9-6.9 c-10.3-14.8-21.9-31.5-39.3-31.5c-3.3,0-6.7,0.6-10.2,1.8c5.9,0.6,16,2.2,17.9,5.3c0.5,0.8,0.5,1.6,0.1,2.4 c-0.6,1.2-2.4,1.4-3.9,1.4c-2.9,0-7.2-0.7-10.7-1.3c-2.2-0.4-4.2-0.7-5.1-0.7c-1.5-0.1-2.9-0.1-4.2-0.1c-6,0-11.1,0.5-15.8,1.7 c-0.2,0.2-0.4,0.4-0.5,0.6c-0.1-0.1-0.3-0.2-0.4-0.4c-1,0.3-1.9,0.5-2.9,0.8c-14.2,4.6-26.1,14.7-33.7,28.3 c-19.7,35.3-1.1,71.5,13.4,91.6c-0.7-9.9,1.5-21.8,10.4-27.5c5.6-10.9,17.9-13.5,28.8-15.7C71.6,155.6,73,155.3,74.4,155z M27.3,179.2c-2.1-2.3-4.1-3.8-5.1-6.9c-0.9-3-1.3-6.3-0.9-9.5c0.3-3.5,5.8-3.8,5.6-0.1c-0.2,2.7-0.1,5.4,0.5,8.1 c0.5,2.4,0.5,5.3,1.4,7.6C29.1,179.1,27.9,179.8,27.3,179.2z M55,85.8c-0.7-0.2-1.5-1-1.7-1.7c-0.1-0.4,0.8-1.7,1.2-1.6 c0.7,0,1.4,0.8,3.6,2.3C56.5,85.3,55.7,85.9,55,85.8z M169.4,160.3c8.9,0,18.5-1.7,27.3-4.7c-7.9,11-17.1,16.1-29,16.1 c-7.3,0-15.5-1.9-26-6c-5.6-2.2-11.7-3.3-18.6-3.3c-9,0-18.3,1.8-27.2,3.6c-8.9,1.7-18.2,3.5-27.1,3.5c-1.2,0-2.3,0-3.4-0.1 c-1.4-0.1-2.8-0.2-4.2-0.3c-2.4-0.2-5-0.4-7.5-0.4c-0.6,0-1.2,0-1.8,0c6.1-4,13.7-5.4,21.1-6.8c4.1-0.8,8.3-1.6,12.2-2.8 c3.9-1.2,7.7-2.8,11.4-4.3c7.6-3.1,15.4-6.3,23.7-6.5c0.2,0,0.5,0,0.7,0c7.5,0,14,2.8,20.9,5.7c5.2,2.2,10.6,4.5,16.4,5.4 C161.9,160,165.6,160.3,169.4,160.3z M118.7,174.4c0.9,0.1,1.7,1,3.4,2.1c-1.8,0.8-2.7,1.6-3.6,1.6c-0.5,0-1.6-1.3-1.5-1.8 C117.1,175.6,118.1,174.4,118.7,174.4z M164.8,252.9L164.8,252.9C164.8,252.9,164.8,252.9,164.8,252.9c-0.1,0.1-0.3,0.2-0.4,0.2 c0,0-0.1,0-0.1,0c-0.2,0.1-0.3,0.1-0.5,0.2c0,0,0,0,0,0h0c0,0,0,0,0,0c0.3-0.3,0.5-0.5,0.8-0.5C164.6,252.9,164.7,252.9,164.8,252.9 z M123.5,181.2c0.7,0.6,1.4,1.2,2.5,2.1c-1,0.8-1.5,1.3-2.1,1.8c-0.5-0.8-1.2-1.6-1.5-2.5C122.3,182.3,123.1,181.7,123.5,181.2z" fill="#ffde59"/></g></svg>