<?xml version="1.0" encoding="UTF-8" standalone="no"?><svg xmlns="http://www.w3.org/2000/svg" xmlns:xlink="http://www.w3.org/1999/xlink" fill="#000000" height="628.2" preserveAspectRatio="xMidYMid meet" version="1" viewBox="-1.2 -0.2 437.9 628.2" width="437.9" zoomAndPan="magnify"><g id="change1_1"><path d="M196.6,336.4c-31.5-20.2-53.1-49.8-78.6-75.4c-9.4-9.5-19.3-18.4-29-27.6c-2.4-2.2-4.9-4.4-7.4-6.6 c-6-5.5-7.6-9.6-4.3-12.6c4.8-4.3,9.1-1.3,12.9,1.9c15.2,12.9,30.7,25.5,45.3,39c15,13.9,29,29.1,43.9,43.2c7.7,7.2,16.4,13.4,26,21 c0.3-3.8,0.5-5.8,0.6-7.8c3.4-72.3,6.4-144.7,10.5-217c1.6-28.2,5.9-56.2,8.9-84.4c0.2-1.9,0.3-4.3,1.5-5.5c2.2-2.1,5.2-4.8,7.7-4.6 s5.6,3.2,6.7,5.7c1.3,3,1.2,6.9,0.9,10.3c-1.4,19.3-3.5,38.6-4.6,57.9c-3.3,59.6-6.3,119.1-9.3,178.7c-0.9,18.4-1.6,36.8-2.3,55.2 c-0.1,2.3,0,4.6,0,7.5c1.1-0.4,2.3-0.9,3.3-1.4C284.2,276.4,339,239,393.9,201.6c7.7-5.2,15.1-10.9,23.3-15.2 c3.9-2,9.3-2.1,13.8-1.8c2,0.2,5,3.6,5.3,5.8c0.4,2.5-1,6.5-2.9,8c-13.5,10.6-27.1,21.2-41.2,31c-32.6,22.5-65.7,44.6-98.5,66.9 c-18.7,12.8-37.3,25.7-55.9,38.6c-1.4,1-2.7,2.1-4.7,3.6c13.4,12.4,26,24.9,39.6,36.3c21.8,18.3,44.2,35.8,66.4,53.7 c2.3,1.8,4.4,3.8,6.3,6c3.2,3.9,4.3,8.3,1.5,12.9s-7.5,5.8-12.2,4.4c-4.1-1.2-7.9-3.2-11.2-5.9c-32.5-26-65-52-93.8-82.3 c-1.5-1.6-3.2-3.1-5.5-5.3c-0.3,2.4-0.5,3.7-0.6,4.9c-5.2,73-10.4,146.1-15.7,219.1c-0.8,10.8-1.6,21.6-2.6,32.4 c-0.2,2.7-0.4,5.9-2,7.7c-2.1,2.5-5.6,5.6-8.4,5.5s-6.1-3.5-7.8-6.3c-1.5-2.6-1.6-6.4-1.5-9.6c0.5-14.1,0.9-28.3,2-42.3 c5.2-68,10.4-136,15.8-203.9c0.1-1.9,0-3.8,0-6.4c-1.3,0.5-2.6,1.2-3.8,1.8c-38.8,24.7-77.8,49.1-116.5,74.3 c-18,11.7-35.2,24.5-52.8,36.9c-4.7,3.3-9.2,7-14.1,10.1c-5.4,3.4-11,2.7-14.2-1.3s-2.8-9.6,1.6-14.2c3.9-4.3,8.3-8.2,13-11.6 c22-15.4,44-30.8,66.5-45.6c35.7-23.5,71.8-46.5,107.8-69.6C192.7,339.4,194.4,338,196.6,336.4z" fill="#ffffff"/></g></svg>