<?xml version="1.0" encoding="UTF-8" standalone="no"?><svg xmlns="http://www.w3.org/2000/svg" xmlns:xlink="http://www.w3.org/1999/xlink" fill="#000000" height="340.8" preserveAspectRatio="xMidYMid meet" version="1" viewBox="0.1 -0.7 482.3 340.8" width="482.3" zoomAndPan="magnify"><g id="change1_1"><path d="M247.6,171.3c3.5,0.3,7-0.4,10.4-1.2c4.9-1.2,9.5-3.2,14.1-5.1c3-1.3,6-2.5,9-3.8c0.2-0.3,0.7,0,0.8-0.4l0,0 c0.2-0.1,0.5,0,0.6-0.3l0,0c0.2-0.1,0.5-0.1,0.6-0.3l0,0c0.2-0.1,0.5-0.1,0.6-0.3l0,0c0.2-0.1,0.4-0.1,0.6-0.3l0.1-0.1l0.1,0 c0.4-0.1,0.9-0.3,1.3-0.6l0,0c0.2-0.1,0.5-0.1,0.6-0.3l0,0c0.2-0.1,0.3-0.1,0.5-0.1c0.1,0,0.2,0,0.3,0c0,0,0.1,0.1,0.1,0.1 c0,0.1,0,0.2,0,0.3c-0.1,0.1-0.3,0.2-0.4,0.3c-0.1,0.1-0.2,0.1-0.3,0.2c-0.1,0.1-0.3,0.1-0.4,0.2c-0.1,0-0.2,0.1-0.3,0.1 c-0.1,0.1-0.3,0.1-0.4,0.2c-0.1,0-0.2,0.1-0.3,0.1c-0.1,0-0.3,0.1-0.4,0.1c-0.1,0-0.2,0.1-0.3,0.1c-0.1,0.1-0.3,0.1-0.4,0.2 c-0.1,0-0.2,0.1-0.3,0.1c-0.1,0-0.2,0.1-0.3,0.1c-0.1,0.1-0.2,0.1-0.3,0.1c-0.1,0.1-0.3,0.2-0.4,0.3c-0.1,0.1-0.2,0.2-0.2,0.3 c-0.1,0.1-0.2,0.2-0.3,0.3c-0.7,0.7-0.5,1.2,0.5,1.1c1.2-0.1,2.3-0.3,3.4-0.7c0.4-0.1,0.9-0.3,1.2,0.1c0.3,0.4,0,0.7-0.2,1.1 c-0.5,0.9-0.9,1.7-1.2,2.6c-0.2,0.6-0.3,1.2,0.2,1.6c0.6,0.5,1.2,0.1,1.7-0.3c1.6-1.3,2.5-3.2,3.7-4.9c0.4-0.5,0.5-1.6,1.3-1.3 c0.7,0.2,0.4,1.2,0.4,1.9c0,0.8-0.1,1.7,0.1,2.5c0.1,0.6,0.4,1.1,1,1.1c0.7,0,0.9-0.6,0.9-1.1c0.1-0.8,0.1-1.6,0-2.5 c-0.2-1.4,0.2-1.8,1.6-1.5c0.6,0.1,1.2,0.3,1.9,0.2c1.5-0.2,2-1.2,1.3-2.5c-0.8-1.4-0.7-1.5,0.6-2.2c0.5-0.2,1-0.4,1.4-0.8 c0.4-0.3,0.8-0.6,0.6-1.2c-0.2-0.5-0.7-0.7-1.2-0.6c-0.9,0-1.8,0.4-2.7,0.6c-0.2,0.1-0.5,0.2-0.7,0.2c-0.6,0.1-1.4,0.8-1.9,0.1 c-0.5-0.8,0.4-1.4,0.9-1.9c2.3-1.2,4.6-2.3,6.8-3.6c5.6-3.2,11.5-6.1,17.2-9.1c3.8-2,7.5-4,11.2-6.2c5.6-3.3,11.3-6.2,17.1-9.2 c1.1-0.6,2.2-1.1,3.3-1.6c0.1-0.1,0.3-0.1,0.4-0.2c0.1,0,0.1,0,0.1-0.1c1.1,0.7,0.6,1.7,0.6,2.6c0,1.1-0.5,2.3,0.6,3.1 c1.1,0.8,2.1-0.2,3.1-0.6c1.1-0.5,2.1-1.1,3.3-1.6c2.1-0.8,4.3-0.7,6.4-0.2c1.7,0.4,2.3-0.1,2.6-1.8c0.4-2.4,0.4-5,2.1-7 c0.4-0.5,0.8-1.1,1.5-1.4c2.3-0.7,4.6-0.9,7-1.3c5.2-0.7,10.3-0.9,15.5-0.3c5.4,0.7,10.7,1.9,15.7,4c3.3,1.4,6.5,3,9.3,5.3 c2.7,2.3,4.5,5.2,6.4,8.1c1.2,1.9,2.1,3.9,3,6c0.2,0.4,0.5,0.8,0.3,1.4c-0.6,0.6-1.3,0.3-1.9,0c-1.6-0.5-2.9-1.5-4.1-2.7 c-0.5-0.5-1.1-1-1.8-1.2c-0.5-0.1-1-0.2-1.4,0.2c-0.4,0.4-0.3,0.9-0.2,1.4c0.2,0.6,0.5,1,0.8,1.5c1.7,2.7,2.1,5.6,1,8.7 c-0.8,2.4-0.2,3.5,2.3,4c2,0.4,3.9,1.1,5.8,1.9c0.8,0.4,1.3,0.9,1.1,1.8c-0.7,4.2-1.5,8.4-3.1,12.3c-0.3,0.8-0.6,1.5-1.1,2.2l0,0 c-0.4,1.3-1,2.4-1.8,3.5l0,0c-2.4,4.2-5.3,8.1-8.4,11.8c-5.1,6-10.8,11.4-16.4,17c-0.5,0.5-1,1-1.6,1.3l0,0 c-0.2,0.2-0.4,0.4-0.6,0.6l0,0c-1,1-2,2.1-3.2,2.9l0,0c-1,1-2,2-3.3,2.7c-2.4-0.1-4.6,0.7-6.8,1.4c-1.5,0.5-1.9,0.2-1.7-1.3 c0.1-1.2,0.5-2.4,0.7-3.6c0-0.3,0.1-0.6,0.2-0.9c0-0.6,0.3-1.3-0.5-1.4c-0.7-0.1-1,0.6-1.1,1.1c-0.3,0.8-0.6,1.7-0.7,2.5 c-0.1,0.3-0.1,0.6-0.2,0.8c-0.3,0.8-0.9,1.1-1.3,0.2c-0.6-1.2-1.6-1.1-2.6-1.4c-0.3-0.1-0.7-0.2-0.9,0.1c-0.2,0.3-0.1,0.7,0.1,1 c0.5,0.9,1.2,1.6,1.9,2.4c1.2,1.5,1.1,1.9-0.6,2.6c-1.3,0.5-2.7,0.8-4,1.4c-0.4,0.2-1,0.4-0.8,1c0.2,0.6,0.8,0.4,1.3,0.4 c1.4-0.2,2.6-0.7,3.9-1.2c1.5-0.5,2-0.1,1.7,1.4c-0.3,1.6-0.3,3.3-0.8,4.9c-1,1.7-2.5,3-3.8,4.5l0,0c-0.2,0.3-0.3,0.7-0.6,0.9l0,0 c-0.1,0.3-0.3,0.5-0.6,0.6l0,0c-0.2,0.3-0.3,0.7-0.6,0.9l0,0c-0.1,0.3-0.3,0.7-0.6,0.9l0,0c0,0.2-0.1,0.3-0.3,0.3l0,0 c-0.5,1-1.1,2-1.8,2.9l0,0c-0.4,0.7-0.6,1.5-1.2,2.1l0,0c-0.2,0.4-0.2,0.9-0.6,1.2l0,0c-0.7,1.7-1.3,3.5-2.2,5.1 c-1.6,0.7-3.3,1.1-5,1.6c-0.3,0.1-0.7,0.2-1-0.1c-0.3-0.4-0.1-0.7,0.1-1.1c0.3-0.5,0.8-1,1.1-1.5c0.4-0.6,0.8-1.1,1.2-1.7 c0.2-0.4,0.7-0.8,0.2-1.1c-0.4-0.3-0.8,0.2-1,0.5c-0.6,0.8-1.2,1.5-1.8,2.3c-0.3,0.4-0.5,1-1.2,1c-0.5-0.3-0.4-0.9-0.5-1.4 c0.2-1.1,0.3-2.3,0.4-3.5c0.1-0.5,0.3-1.2-0.4-1.4c-0.7-0.2-1,0.5-1.2,1.1c-0.4,1.4-0.8,2.8-1,4.2c-0.2,0.9,0.1,2.1-0.9,2.4 c-0.9,0.3-1.5-0.7-2.2-1.2c-0.4-0.3-0.8-0.6-1.2-0.9c-0.4-0.2-0.8-0.6-1.2-0.2c-0.3,0.4,0,0.8,0.2,1.2c0.3,0.5,0.7,0.8,1,1.2 c0.4,0.4,0.8,0.8,1.1,1.2c0.6,0.6,0.5,1.1-0.3,1.4c-0.5,0.2-1.1,0.4-1.7,0.6c-0.8,0.2-1.6,0.6-2.2,1.1c-0.4,0.3-0.6,0.7-0.4,1.1 c0.2,0.4,0.6,0.4,1,0.4c0.7-0.1,1.4-0.4,2.1-0.6c0.7-0.2,1.6-0.8,2-0.1c0.5,0.7-0.3,1.4-0.8,2c-0.9,1.2-1.8,2.3-2.6,3.5 c-0.3,0.4-0.6,0.8-0.6,1.5c1.6-1.2,2.6-2.9,3.8-4.3c0.4-0.5,0.7-1.3,1.4-1c0.7,0.3,0.4,1.1,0.3,1.7c-0.3,1.5-0.1,3.1-0.1,4.7 c0,0.4,0,1,0.6,1c0.5,0,0.6-0.6,0.7-1c0.4-2.3,0.6-4.5,0.9-6.8c0.2-1.5,0.6-1.7,1.9-0.8c1.1,0.7,2,1.7,3.5,1.9 c-0.2-1.1-1-1.6-1.6-2.3c-0.4-0.4-0.9-0.8-1.2-1.3c-0.3-0.4-0.3-0.9,0.2-1.1c1.5-0.7,2.9-1.3,4.5-1.6c0.3-0.1,0.7,0,0.8,0.4 c-1,4.1-0.6,8.2,0.7,12.2l0,0c0.7,1.5,1.5,3,2.4,4.4l0,0c0.4,0.2,0.4,0.6,0.6,0.9l0,0c0.1,0.1,0.2,0.2,0.3,0.3l0,0 c0.4,0.5,0.8,0.9,1.2,1.4l0,0c0.9,0.9,1.9,1.6,2.8,2.4l0,0c0.5,0.1,0.8,0.5,1.2,0.9l0,0c0.7,0.3,1.4,0.8,2.1,1.2l0,0 c0.3,0.3,0.9,0.2,1.2,0.6l0,0c1.2,0.4,2.4,0.7,3.5,1.2l0,0c1.3,0.3,2.6,0.3,3.9,0l0,0c4.6-0.9,9.2-1.9,13.8-2.9l0,0 c5.8-1.8,11.7-2.9,17.8-3.2c5.7-0.2,11.3,0.7,16.7,2.5l0,0c0.5,0.3,1.2,0.2,1.7,0.6l0,0c1.6,0.7,3.3,1.3,4.7,2.4l0,0 c2.7,1.3,4.9,3.3,7,5.3c1.2,1.1,2.5,2.3,3.5,3.7l0,0c0.5,0.6,1.1,1.1,1.5,1.8l0,0c0.9,0.9,1.6,1.9,2.3,2.9l0,0 c0.4,0.3,0.7,0.7,0.9,1.2l0,0c0.3,0.2,0.5,0.5,0.6,0.9l0,0c0.5,0.5,0.8,1.2,1.2,1.8l0,0c0.5,0.3,0.6,1,0.9,1.4l0,0 c0.9,1.3,1.6,2.7,2.3,4.1l0,0c0.3,0.3,0.4,0.8,0.6,1.2l0,0c0.2,0.1,0.2,0.4,0.3,0.6l0,0c0.4,0.3,0.4,0.8,0.6,1.2l0,0 c0.4,0.3,0.5,0.8,0.6,1.2l0,0c0.6,0.4,0.6,1.1,1,1.7l0,0c0.1,0.1,0.2,0.2,0.2,0.4l0,0c0.3,0.3,0.3,0.8,0.6,1.2l0,0 c0.2,0.2,0.2,0.4,0.3,0.6l0,0c0.2,0.1,0.2,0.4,0.4,0.5l0,0c0.1,0.1,0.2,0.2,0.2,0.4l0,0c0.3,0.2,0.4,0.6,0.6,0.9l0,0 c0.3,0.3,0.5,0.6,0.6,0.9l0,0c0.3,0.1,0.2,0.4,0.4,0.5l0,0c0.3,0.2,0.4,0.6,0.6,0.9l0,0c0.1,0.1,0.2,0.2,0.3,0.3l0,0 c0.2,0.1,0.2,0.4,0.3,0.6l0,0c0.2,0.1,0.3,0.2,0.3,0.3l0,0c0.4,0.2,0.5,0.5,0.6,0.8l0,0c0.1,0.1,0.2,0.2,0.3,0.3l0,0 c0.4,0.5,0.9,0.9,1.2,1.5l0,0c0.1,0.1,0.2,0.2,0.3,0.3l0,0c0.1,0.1,0.2,0.2,0.3,0.3l0,0c0.2,0,0.3,0.1,0.3,0.3l0,0 c0.2,0.1,0.3,0.2,0.3,0.3l0,0c0.2,0.2,0.4,0.4,0.6,0.6l0,0c0.2,0.2,0.4,0.4,0.6,0.6l0,0c0.4,0.1,0.4,0.5,0.7,0.8l0,0 c0.3,0.1,0.5,0.3,0.5,0.6l0,0c0.2,0,0.3,0.1,0.3,0.3l0,0c0.3,0.2,0.4,0.6,0.6,0.9l0,0c0.3,0.3,0.4,0.6,0.6,0.9l0,0 c0.1,0.1,0.2,0.2,0.3,0.3l0,0c0.3,0.2,0.4,0.6,0.6,0.9l0,0c0.1,0.1,0.2,0.2,0.2,0.4l0,0c0.6,0.7,1.1,1.5,1.5,2.3l0,0 c0.2,0.2,0.2,0.4,0.3,0.6l0,0c0.3,0.1,0.2,0.4,0.3,0.6l0,0c0.5,0.4,0.3,1,0.6,1.4l0,0c0.2,0.2,0.2,0.4,0.3,0.6l0,0 c0.4,0.6,0.4,1.4,0.6,2.1l0,0c0.7,2.4,0.7,4.8,0,7.3l0,0c-0.2,0.3,0,0.7-0.3,0.9l0,0c-0.2,0.3,0.1,0.7-0.3,0.9l0,0c-0.6,1-1,2.2-2,3 l0,0c-0.1,0.4-0.4,0.7-0.9,0.9l0,0c-0.1,0.4-0.5,0.6-0.9,0.9l0,0c-0.5,0.4-0.9,0.9-1.5,1.2l0.1,0.1l-0.1-0.1 c-0.3,0.4-0.7,0.7-1.2,0.9l0,0c-0.1,0.2-0.2,0.3-0.3,0.3l0,0c-0.3,0.4-0.8,0.4-1.1,0.6l0,0c-2,0.9-4,0.8-6.1,0.3l0,0 c-0.8-0.2-1.6-0.1-2.3-0.6l0,0c-1.1-0.3-2.2-0.6-3.2-1.2l0,0c-0.5-0.1-1-0.2-1.5-0.6l0,0c-0.7-0.3-1.4-0.2-2-0.6l0,0 c-0.7-0.2-1.4-0.2-2.1-0.6l0,0c-2.3-0.3-4.6-1.2-7-1.4c-2-0.2-4.1-0.2-6.1-0.2c-7.4,0.3-14.7-0.1-21.7-3.1l0,0 c-0.5-0.2-1.1-0.2-1.5-0.6l0,0c-0.5-0.2-1.1-0.2-1.5-0.6l0,0c-2.2-1-4.3-2-6.2-3.5l0,0c-0.2-0.1-0.5,0-0.6-0.3l0,0 c-0.4-0.1-0.7-0.3-0.9-0.6l0,0c-2.1-1.5-3.9-3.4-5.5-5.4c-2.6-3.2-5.1-6.5-7.4-9.8c-1.7-2.4-4.2-3.9-6.6-5.6l0,0 c-0.8-0.3-1.4-0.7-2.1-1.1l0,0c-0.5-0.2-1-0.3-1.5-0.6l0,0c-3.6-1.4-7.3-2-11.1-2.3l0,0c-3.7-0.2-7.3-0.3-11-0.4 c-2.8-0.1-5.5-0.5-8.2-0.9c-4.2-0.7-8.5-1.4-12.6-2.8c-5.8-2-11.1-4.8-15.8-8.7l0,0c-1.1-0.7-2-1.7-3-2.6l0,0 c-0.5-0.3-0.9-0.7-1.2-1.2l0,0c-1.1-1-2.1-2.1-2.9-3.3l0,0c-3.5-3.9-5.8-8.4-7.4-13.3c-1.9-5.8-2.1-11.7-1-17.7 c0.3-1.5,0.5-3,0.9-4.5l0,0c0.6-2.6,1.3-5.2,2.4-7.6l0,0c0.2-0.5,0.3-1,0.6-1.5l0,0c0.1-0.2,0.2-0.4,0.4-0.5c1.1,0,1.9-0.6,2.7-1.3 c0.8-0.9,1.8-1.7,2.6-2.6c1.6-1.7,3.4-3,5.6-3.8c1.4-0.5,1.9-1.2,1.7-2.5c-0.5-2.6,0.2-4.9,1.4-7.2c0.5-1,0.7-2,0.4-3.1 c0.7-1,1.5-1.8,2.5-2.5l0,0c0.2-0.2,0.4-0.4,0.6-0.6l0,0c0.9-0.7,1.6-1.7,2.7-2.3l0,0c0.5-0.4,0.9-0.9,1.5-1.2l0,0 c0.1-0.1,0.2-0.2,0.3-0.3l0,0c0.9-0.6,1.4-1.6,2.4-2l0,0c0-0.2,0.1-0.3,0.3-0.3l0,0c1.7-1.7,3.7-3.2,5.5-4.7l0,0 c0.1-0.1,0.2-0.2,0.3-0.3l0,0c1.2-1.2,2.4-2.4,3.8-3.5l0,0c0.1-0.3,0.3-0.5,0.6-0.6l0-0.1l0,0.1c0-0.2,0.1-0.3,0.3-0.3l0,0 c0.1-0.3,0.3-0.5,0.6-0.6l0-0.1l0,0.1c1.5-1.5,3-2.9,4.4-4.4l0,0c0.2-0.3,0.4-0.7,0.9-0.9l0,0c1.7-2,3.3-4.1,5-6.1l0,0 c0.4-0.7,0.9-1.5,1.5-2.1l0,0c0.4-1.1,1.2-2,1.8-2.9l0,0c0.1-0.4,0.3-0.7,0.6-0.9l0,0c0.2-0.4,0.2-0.9,0.6-1.2l0,0 c0.6-1.4,1.2-2.8,1.8-4.1l0,0c0.2-0.3-0.1-0.7,0.3-0.9l0,0c0.3-1.7,0.6-3.3,0.5-5c0-1.1-0.2-2.2-0.6-3.3l0,0 c-0.3-0.2-0.5-0.6-0.6-0.9c-0.7-0.4-1.3-0.8-2.1-1.2l0,0c-2.8-0.5-5.7-0.5-8.5-0.3l0,0c-2,0.5-3.9,1-5.9,1.4c-1.2-0.4-2.4-1-3.7-1.3 c-1.6-0.4-1.7-0.9-0.5-2c1-1,2.2-1.8,3.1-2.8c0.2-0.3,0.5-0.5,0.4-0.9c-0.1-0.4-0.5-0.3-0.9-0.3c-1.2-0.1-1.4-0.3-0.8-1.4 c0.2-0.4,0.6-0.7,0.5-1.3c-0.8-0.2-1.3,0.5-1.8,0.9c-0.4,0.4-0.8,0.8-1.2,1.3c-1.1,1.2-1.3,1.2-2.1-0.2c-0.3-0.4-0.5-0.7-1-0.6 c-0.5,0.1-0.8,0.4-0.9,0.8c-0.4,1.1-0.6,2.2-0.6,3.3c-0.1,1.6-0.6,2-2.1,1.6c-1.5-0.4-3-0.7-4.6-0.9c-0.6-0.1-1.3-0.1-1.5,0.6 c-0.2,0.7,0.5,1,1,1.2c1.2,0.4,2.4,0.8,3.7,0.9c0.5,0,1.1,0,1.4,0.6c0.2,0.6-0.3,1-0.7,1.3c-2.1,2-4.3,3.9-6.4,6 c-0.4,0.4-1,0.5-1.4,0.9l0,0c-1,0.7-2.1,1-3.2,1.4l0,0c-3.2,1.7-6.4,3.5-9.7,5.2l0,0c-1.1,1-2.3,1.7-3.5,2.4l0,0 c-0.6,0.6-1.2,1.2-2.1,1.4l0,0c-0.6,0.7-1.5,1.1-2.3,1.5l0,0c-1.3,1.1-2.9,1.8-4.4,2.6c-3.3-0.2-6.5,0.4-9.7,0.7 c-0.5,0.1-1.1,0.1-1.3-0.4c-0.2-0.5,0.4-0.8,0.7-1.1c1.7-1.4,3.6-2.7,5.3-4.2c0.7-0.6,1.4-1.2,2.1-2.1c-0.7-0.2-1.1,0.1-1.5,0.4 c-1.5,0.8-2.7,1.8-4.2,2.7c-0.5,0.3-1,0.5-1.2-0.3c-0.3-0.8-0.7-0.7-1.2-0.2c-0.5,0.5-1,1-1.5,1.6c-1.1,1.3-1.2,1.3-2.6,0.5 c-0.6-0.4-1.2-0.7-1.9-0.8c-0.9-0.2-1.2,0.2-1,1.1c0.1,0.6,0.4,1.2,0.8,1.7c1,1.4,0.9,1.8-0.9,2.1c-2.1,0.3-4.1,1.2-6.2,1.7 c-0.5,0.1-0.9,0.3-1.3,0.8c0.6,0.6,1.3,0.4,1.9,0.5c0.6,0.1,1.3-0.2,1.6,0.5c0.2,0.7-0.5,0.9-1,1.3c-0.8,0.5-1.6,1.1-2.2,1.9 c-0.3,0.5-0.9,1.1-0.3,1.7c0.6,0.6,1.2,0.2,1.7-0.2c0.1-0.1,0.2-0.2,0.4-0.2c0.3-0.2,0.6-0.5,1-0.2c0.4,0.3,0.2,0.7,0.2,1.1 c0,0.3-0.1,0.6-0.2,0.8c-0.3,0.3-0.7,0.4-1.1,0.7l0,0c-0.8,0.6-1.8,1-2.7,1.5l0,0c-0.3,0.4-0.8,0.4-1.2,0.6l0,0 c-1.1,0.8-2.3,1.3-3.5,1.8l0,0c-0.4,0.5-1,0.4-1.5,0.6l0,0c-0.5,0.5-1.2,0.6-1.8,0.7c-1-1.9-2.5-1.8-4.3-1.3 c-2.9,0.8-5.8,1.4-8.8,1.5c-2.8,0-5.5-0.3-8.2-1.2c-2.1-0.7-3-0.4-4.1,1.5c-1.2,2.1-2.9,3.8-4.6,5.4c-2.3,2.3-5.1,4.1-7.5,6.2 c-9.1,1.7-18.1,1.7-27.1-0.7c-0.1,0-0.3-0.1-0.4-0.2c-0.7-0.7-0.5-1.7-1-2.5c-0.8-1.5-1.6-2.9-2.5-4.3c-0.4-0.6-0.8-1.2-1.1-1.9 c-0.2-0.4-0.5-0.8-0.2-1.2c0.3-0.4,0.9-0.3,1.4-0.2c0.9,0.2,1.9,0.4,2.8,0.7c0.4,0.2,0.8,0.3,1.3,0.2c0.4,0,0.9,0.1,1-0.4 c0.1-0.5-0.4-0.6-0.7-0.8c-0.9-0.3-1.8-0.6-2.8-0.8c-0.5-0.1-1.1-0.3-1.2-0.9c-0.1-0.6,0.5-0.9,0.9-1.2c1.3-0.8,2.5-1.8,3.8-2.6 c-1.6,0.6-3.1,1.3-4.7,2c-0.4,0.2-0.9,0.5-1.4,0.2c-0.5-0.4-0.2-0.9,0-1.3c0.8-2.3,1.2-4.8,1.8-7.2c-1,2.4-2.6,4.5-3.6,7 c-0.2,0.4-0.4,1-1,1c-0.5,0-0.6-0.6-0.8-0.9c-0.7-1.6-1.6-3.1-2.6-4.6c-0.5-0.8-1.2-2.1-2.3-1.6c-1.2,0.5-0.5,1.8-0.2,2.7 c0.3,0.8,0.6,1.7,0.9,2.5c0.2,0.4,0.4,0.8,0.1,1.2c-0.4,0.4-0.9,0.4-1.4,0.2c-0.6-0.2-1.2-0.4-1.8-0.7c-0.8-0.3-1.7-0.4-2.6-0.3 c-0.4,0-0.8,0.1-0.9,0.6c-0.2,0.5,0.1,0.8,0.5,1.1c0.7,0.6,1.5,0.9,2.4,1c1.5,0.3,3,0.5,4.4,0.9c0.5,0.1,1.1,0.2,1.2,0.9 c0.1,0.6-0.4,0.9-0.9,1.2c-1.2,0.6-2.3,1.4-3.7,1.7c-3.3-2.1-5.7-4.9-7.8-8.1c-4.4-6.9-6.2-14.6-6.7-22.6c-0.3-4.9,0.3-9.6,1.5-14.3 l0,0c0.2-1.4,0.7-2.8,1.2-4.1l0,0c0.7-2.4,1.7-4.8,3-7l0,0c0.1-0.4,0.3-0.7,0.7-0.9c1-0.2,2.1-0.5,2.7,0.3c0.6,0.8-0.3,1.6-0.7,2.4 c-0.6,1.3-1.3,2.6-1.8,4c-0.3,0.7-0.4,1.5,0.4,1.9c0.9,0.5,1.5-0.1,2-0.7c0.5-0.7,0.9-1.4,1.3-2.1c0.6-1,1.1-1,1.7,0.1 c0.4,0.7,0.6,1.4,1.1,2c0.4,0.5,0.9,1,1.6,0.8c0.7-0.2,0.9-0.8,1-1.5c0.2-1.4-0.1-2.7-0.4-4c-0.8-3.2-0.7-3.3,2.6-3.6 c0.8-0.1,1.6,0.1,2.3-0.2c0.8-0.2,1.5-0.6,1.6-1.5c0-1-0.7-1.4-1.5-1.7c-1.3-0.4-2.7-0.3-4-0.6c-1.4-0.3-1.5-0.4-1-1.7 c0.7-2,1.5-3.9,2.4-5.8c1-2.1,1.5-4.4,2.3-6.6c0.1-0.2,0.2-0.4,0.4-0.5l0,0c0.1-0.3,0.3-0.5,0.6-0.6l0,0c0.1-0.2,0.2-0.3,0.3-0.3 l0,0c0.6-1.1,1.6-1.8,2.4-2.6l0,0c0.1-0.3,0.3-0.5,0.6-0.6l0,0c0.3-0.3,0.4-0.8,0.8-0.9l0,0c0.1-0.3,0.3-0.5,0.6-0.6l0,0 c2.4-2.7,4.9-5.3,7.6-7.6l0,0c0.4-0.4,0.8-0.8,1.2-1.2l0,0c0.7-0.6,1.2-1.4,2-1.8l0,0c0.7-0.6,1.2-1.4,2.1-1.8l0,0 c0.8-0.8,1.6-1.7,2.6-2.3l0,0c1.6-1.5,3.2-3,5-4.4l0,0c1.1-0.9,2-2.1,3.2-2.9l0,0c0.2-0.4,0.5-0.7,0.9-0.8l0,0 c0.2-0.2,0.4-0.4,0.6-0.6l0,0c0.2-0.2,0.3-0.5,0.6-0.6l0,0c0.2-0.2,0.4-0.4,0.6-0.6l0,0c0-0.2,0.1-0.3,0.3-0.3l0,0 c0.4-0.9,1.2-1.4,1.8-2.1l0,0c0.2-0.6,0.8-1,1.2-1.5l0,0c0.6-0.9,1.3-1.8,2-2.7l0,0c0.1-0.3,0.2-0.7,0.6-0.9l0,0c0.6-1,1-2,1.8-2.9 l0,0c0.2-0.5,0.4-1.1,0.9-1.5l0,0c0.1-0.2,0-0.5,0.3-0.6l0,0c0.6-1,0.8-2.1,1.5-2.9l0,0c0.2-0.4,0.2-0.9,0.6-1.2l0,0 c0.2-0.5,0.3-1,0.6-1.5l0,0c0.1-0.2,0.1-0.4,0.4-0.4c0.7,0.6,0.5,1.4,0.7,2.2c0.1,0.5,0.1,1,0.3,1.4c0.1,0.4,0.2,0.9,0.8,0.9 c0.6,0,0.8-0.6,0.8-1c0.1-1.2,0-2.4,0.1-3.6c0-0.4,0-1,0.4-1.2c0.5-0.2,0.8,0.2,1.1,0.5c0.6,0.5,1.2,1,1.8,1.5 c0.7,0.5,1.5,1,2.4,0.2c0.8-0.7,0.6-1.6,0.1-2.4c-0.6-1.2-1.4-2.2-2.2-3.3c-0.5-0.6-1.3-1.3-0.9-2c0.4-0.8,1.4-0.4,2.1-0.5 c1.3,0,2.5,0,3.8,0.2c0.8,0.1,1.7,0,1.9-0.9c0.2-0.9-0.5-1.3-1.2-1.7c-1.3-0.7-2.7-0.8-4.1-0.9c-0.5,0-1,0-1.5,0 c-1.4-0.1-1.7-0.5-1-1.7c0.6-1.1,1.3-2.3,2.1-3.3c0.8-1.1,1.6-2.2,2-3.8c-0.9,0.2-1.3,0.7-1.6,1.2c-1.3,1.9-2.8,3.6-4.3,5.3 c-0.3,0.4-0.6,0.9-1.2,0.7c-0.5-0.2-0.5-0.8-0.5-1.3c0-1.4,0-2.8,0-4.2c0-0.8-0.2-1.6-0.5-2.4c-0.2-0.3-0.3-0.6-0.7-0.6 c-0.5,0-0.7,0.3-0.8,0.7c-0.4,1.1-0.4,2.3-0.2,3.5c0.2,1,0.2,2,0.2,3.1c-0.1,1.2-0.6,1.4-1.6,0.7c-0.8-0.5-1.4-1.2-2.3-1.4 c-1-0.3-1.5,0.2-1.4,1.2c0.1,0.7,1,1.5,0.4,2.1c-0.6,0.7-1.7,0.9-2.6,1.2c-0.2,0.1-0.4,0-0.6,0c-2.8-0.2-5.5,0.2-8.1,1.3l0,0 c-0.6,0.5-1.4,0.6-2.1,0.9l0,0c-1.2,0.7-2.5,0.9-3.8,1.5l0,0c-4,2-7.8,4.3-11.3,7c-2.2,1.7-4.2,3.5-6.6,5l0,0 c-1.1,1.1-2.5,2-3.8,2.9l0,0c-0.6,0.5-1.2,1-1.8,1.5l0,0c-0.2,0.3-0.6,0.4-0.8,0.6l0,0c-0.1,0.3-0.3,0.5-0.6,0.6l0,0 c-0.9,0.8-1.6,1.7-2.6,2.4l0,0c-0.1,0.3-0.3,0.5-0.6,0.6l0,0.1l0-0.1c0,0.2-0.1,0.3-0.3,0.3l0,0c-1.5,1.3-2.7,3-4.4,4.1 c-1.1,1-1.9,2.2-3.2,2.9c-1.8,1.7-3.6,3.4-5.5,4.9c-0.3,0.1-0.6,0.2-0.9,0.1c-0.4,0-1,0.1-1.1-0.5c-0.1-0.4,0.2-0.7,0.5-1 c0.9-0.9,1.7-1.9,2.4-2.9c0.2-0.3,0.5-0.6,0.3-0.9c-0.3-0.4-0.7-0.2-1.1,0c-1.8,0.9-3.4,2.2-5,3.5c-0.7,0.5-1.3,1.1-2,1.4 c-0.8,0.3-1.2,0.1-1.2-0.8c0-0.2,0,0,0-0.1c0-0.7,0.4-1.7-0.5-1.9c-0.7-0.2-0.9,0.9-1.3,1.4c-0.2,0.3-0.3,0.6-0.4,0.9 c-0.8,1.7-0.8,1.7-2.7,1.3c-0.9-0.2-1.1,0.1-0.9,1c0.2,0.7,1.2,1.3,0.4,2.2c-0.6,0.6-1.4,0.7-2.1,0.9c-1.5,0.5-2.9,1.1-4.3,1.9 c-0.6,0.3-1.2,0.8-1.1,1.6c0.1,0.8,0.9,0.9,1.6,1c0.4,0.1,1,0,1.2,0.4c0.2,0.5-0.3,0.9-0.6,1.2c-0.8,0.9-1.5,1.9-2.3,2.9 c-0.3,0.3-0.6,0.7-0.2,1.2c0.4,0.5,0.9,0.3,1.3,0.1c1.7-0.8,3.2-2.1,4.6-3.3c0.8-0.6,1.5-0.9,1.8,0.4c-0.1,0.6-0.6,1-1.1,1.2l0,0 c-0.4,0.4-0.6,1-1.2,1.2l0,0c-1.5,1.4-2.8,2.9-4.4,4.1l0,0c-0.2,0.2-0.4,0.4-0.6,0.6l0,0c-0.8,0.8-1.6,1.7-2.6,2.4l0,0 c-1.3,1.2-2.7,2.4-4.1,3.5l0,0c-0.6,0.5-1.1,1.1-1.8,1.5l0,0c-0.5,0.4-0.9,0.9-1.5,1.1l0.1,0l-0.1-0.1c-0.5,0.4-0.8,0.9-1.5,1.2l0,0 c-1.1,1.1-2.5,2-3.8,2.9l0,0c-2.2,1.8-4.6,3.5-7,5l0,0c-0.4,0.3-0.7,0.7-1.2,0.8l0,0c-0.2,0.3-0.5,0.5-0.9,0.6l0,0 c-0.4,0.3-0.7,0.7-1.2,0.9l0,0c-0.2,0.3-0.5,0.5-0.9,0.6c-0.8,0.7-1.7,1.3-2.6,1.8l0,0c-0.5,0.6-1.1,0.9-1.8,1.2 c-0.9,0.6-1.7,1.3-2.6,1.8l0,0c-0.2,0.3-0.6,0.2-0.8,0.4c-3.6,0.7-7.1,0.5-10.7,0.2c-2-0.2-2-0.3-2.7,1.6c-1.1,3.2-2.7,6.1-5.3,8.4 c-0.2,0.4-0.6,0.4-0.9,0.6l0,0c-1.8,0.9-3.6,1.7-5.5,2.3l0,0c-2.5,1.2-5,2.3-7.6,3.2l0,0c-0.7,0.5-1.6,0.6-2.3,0.9l0,0 c-3.4,1.3-6.9,2.5-10.5,3.2l0,0c-1.2,0.5-2.5,0.6-3.7,0.8c-1.8-1-3.2-2.4-4.4-3.9c-1.5-1.9-2.9-4-3.8-6.3c-0.6-1.5-1.1-1.8-2.6-1.4 c-3.4,0.8-6.9,1.4-10.3,1.7c-1.1,0.1-1.3,0.5-0.7,1.5c1.2,2.1,2.1,4.3,2.2,6.7c0,1.1,0.6,1.5,1.7,1.3c2.2-0.4,4.3-0.7,6.5-0.7 c2.9,0,5.8-0.1,8.7,0.4c0.6,0.1,1.5,0,1.2,1.1c-1.9,0.7-3.9,0.6-5.9,0.9c-4,0.5-7.9,0.5-11.9,0.6c-4.4,0.1-8.7-0.6-13-1.3 c-4.9-0.8-9.5-2.1-14.1-4c-0.2-0.1-0.5-0.2-0.6-0.4l0,0c-0.4-0.2-0.9-0.2-1.2-0.6l0,0c-0.1-0.1-0.2-0.2-0.3-0.3 c-0.3-1.4-0.9-2.7-1.4-4c-0.2-0.5-0.6-1.1-0.1-1.5c0.6-0.5,1.1,0.1,1.6,0.3c1.3,0.7,2.5,1.5,3.8,2.2c0.9,0.5,2,1.4,2.7,0.2 c0.6-1-0.5-1.7-1.3-2.3c-1.3-0.9-2.7-1.6-3.9-2.5c-1.2-0.9-1.2-1.3,0-2.2c0.3-0.2,0.6-0.4,0.8-0.6c1.8-1.3,1.9-1.9,0.7-3.7 c-0.4-0.5-0.8-0.2-1.1,0.1c-0.8,0.6-1.3,1.4-2,2.1c-0.3,0.3-0.7,0.8-1.2,0.6c-0.6-0.3-0.3-0.9-0.2-1.3c0.2-1,0.6-2,0.7-3 c0-0.3,0.1-0.8-0.3-0.9c-0.4-0.1-0.6,0.3-0.7,0.6c-0.7,1.1-0.9,2.3-1.5,3.5c-0.2,0.5-0.4,1.2-1.1,1.2c-0.7,0-1.1-0.5-1.4-1.1 c-0.6-1.1-1.3-2.2-2.3-3c-0.5-0.5-1.1-0.8-1.2,0.4c-0.1,1.2-0.6,1.3-1.7,1c-0.8-0.3-1.9-0.8-2.4,0.1c-0.5,1,0.8,1.5,1.5,2 c1.2,0.8,2.3,1.6,3.6,2.2c0.9,0.5,0.9,1.1,0,1.6c-0.6,0.3-1.2,0.6-1.8,0.9c-0.1,0-0.3,0.1-0.4,0c-0.1,0-0.3-0.1-0.4-0.2 c-0.4-0.2-0.6-0.5-0.8-0.9l0,0c-1.7-1.7-3.3-3.4-4.4-5.6l0,0c-1-1.3-1.8-2.6-2.4-4.1l0,0c-1.6-3-2.9-6.1-3.8-9.4l0,0 c-1.2-3.2-1.9-6.5-2.5-9.8c-0.7-4-1.1-8.1-0.9-12.1c0.7-0.9,1.1-0.2,1.4,0.3c1.5,2.3,2.3,4.8,2.2,7.6c0,0.7,0.1,1.3,0.8,1.5 c0.8,0.2,1.1-0.4,1.4-0.9c0.1-0.2,0.2-0.4,0.3-0.7c0.3-1.6,1.1-2.9,1.8-4.3c1.1-2.4,3-4.2,4.9-5.9c1.2-1,1.3-1.8,0.2-2.7 c-3.3-2.4-4.4-5.9-5.2-9.7c-0.2-0.7-0.3-1.4-0.6-2.1c-0.3-0.6-0.5-1.4-1.4-1.3c-0.9,0.1-1.1,0.9-1.1,1.7c0.1,2.9-1.3,5.2-2.4,7.8 c-0.2,0.5-0.4,1.3-1.4,0.8c0.1-2.4,0.8-4.6,1.4-6.9c0.9-3,1.9-6.1,3.4-8.8l0,0c0.7-2,1.9-3.8,2.9-5.6l0,0c1.3-2.3,2.6-4.7,4.5-6.6 c1.3,0.2,1.8,1.2,2.1,2.3c0.4,1.5,0.8,3.1,0.7,4.7c0,0.3,0,0.6,0,0.9c0.1,0.9,0.1,1.9,1.1,2.2c1.1,0.3,1.5-0.8,1.8-1.6 c0.6-1.3,1.5-2.3,2.7-3.2c1.9-1.4,3.9-2.6,5.7-4.1c1.1-0.9,1.6-2.1,0.6-3.1c-2.3-2.5-2.8-5.5-3.2-8.6c-0.1-0.9-0.7-1.7-0.5-2.7 c0.3-0.9,1.2-1.4,1.8-2.1l0,0c0-0.3,0.3-0.5,0.6-0.6l0,0c0.3-0.8,1.2-1.2,1.8-1.8l0,0c1.1-1,2-2.1,3.3-2.9l0,0 c0.4-0.4,0.8-1,1.5-1.2l0,0c1-1,2.1-1.8,3.2-2.6l0,0c1.3-1.1,2.6-2.1,4.1-2.9l0,0c0.1-0.3,0.4-0.2,0.6-0.3l0,0 c0.1-0.1,0.2-0.3,0.3-0.3l0,0c0.2-0.4,0.6-0.4,1-0.4c0.8,0.5,0.9,1.3,1,2.1c0.1,0.8-0.3,1.4-1.2,1.6c-1.2,0.2-2.4,0.3-3.6,1.2 c1.1,0.5,2.1,0.3,3.1,0.4c1.4,0.1,1.7,0.4,1.1,1.7c-0.5,1.3-1,2.5-1.4,3.8c-0.2,0.6-0.3,1.1-0.3,1.7c0,0.7,0.2,1.2,1,0.9 c1.1-0.4,1.2,0.1,1.1,1c0,0.3-0.1,0.7-0.1,1c0,0.7,0,1.5,0.9,1.6c0.9,0.1,1.1-0.7,1.2-1.4c0.1-1.2,0.4-2.3,0.4-3.5 c0-1,0.2-1.8,1.5-1.7c1,0,1.4-0.8,1.3-1.9c-0.1-0.7-0.5-1.4-0.7-2.1c-0.3-1.1,0-1.6,1.1-1.7c0.9-0.1,1.8,0,2.6-0.1 c0.8-0.1,1.5-0.4,1.5-1.3c0-1-0.9-1-1.6-1.1c-0.7,0-1.4,0.2-2,0.2c-0.6,0-1.2-0.2-1-0.9c0.7-2.2,1.1-4.5,2.7-6.4l0-0.1 c0.7-0.6,1.5-1.1,2.4-1.4l0,0c1.3-0.9,2.7-1.6,4.1-2.4l0,0c0.9-0.7,1.9-1,2.9-1.5l0,0c1-0.6,2.2-0.9,3.2-1.4l0,0 c0.6-0.4,1.3-0.7,2-0.9l0,0c1.1-0.4,2.1-1.1,3.2-1.4c0.3,0,0.6,0.1,0.7,0.4c0,1-0.9,1.5-1.5,2.1c-1,0.9-1.1,1.9-0.4,3 c0.6,0.9,0.9,1.9,1,3c0,0.6,0.2,1.1,0.8,1.3c0.6,0.3,1-0.2,1.4-0.6c0.8-0.8,1.8-1.5,2.8-2c1.4-0.7,1.5-1.4,0.6-2.7 c-1.1-1.7-2-3.6-2.2-5.7c0-0.1,0-0.3,0.1-0.4c0.1-0.1,0.3-0.3,0.4-0.4c0.8-0.3,1.5-0.8,2.4-1l0,0c0.5-0.6,1.2-0.6,1.8-0.9l0,0 c1-0.6,2-1.2,3.2-1.5l0,0c1.4-0.7,2.8-1.4,4.4-1.8l0,0c0.7-0.5,1.6-0.5,2.3-0.9l0,0c0.2-0.3,0.5-0.2,0.8-0.3c0.9,0,1.2,0.7,1.5,1.3 c1.1,1.9,1.7,4,2.4,6.1c0.2,0.5,0.2,1.3,0.9,1.3c0.7,0,1.2-0.5,1.5-1c1.8-4.6,5.2-8,8.3-11.6c0.7-0.8,1.2-1.7,1.6-2.7 c0.2-0.4,0.7-0.5,1.1-0.6l0,0c0.4-0.4,0.9-0.6,1.5-0.9l0,0c0.8-0.5,1.5-1.1,2.4-1.4l0,0c0.4-0.5,0.9-0.6,1.4-0.9l0,0 c0.3-0.3,0.6-0.5,0.9-0.6l0-0.1l0,0.1c0.4-0.5,0.9-0.7,1.4-0.9l0,0c0.3-0.3,0.6-0.4,0.9-0.6l0,0c0.9-0.6,1.6-1.4,2.7-1.7l0,0 c0.2-0.4,0.5-0.5,0.9-0.6l0,0c0.8-0.8,1.7-1.5,2.6-2.1l0,0c0-0.2,0.1-0.3,0.3-0.3l0,0c1.1-1.7,2.8-2.9,4-4.5 c0.6-0.8,1.2-1.7,1.9-2.5l0,0c0.8-1.3,1.6-2.5,2.7-3.5l0,0c0-0.3,0.3-0.5,0.6-0.6l0,0c1.6-2.2,3.6-3.7,6.1-4.7l0,0 c2.6-1.1,5.1-1.1,7.5,0.5c0.4,0.3,0.7,0.5,0.9,0.9l0,0c0.4,0.4,0.6,1,0.9,1.5l0,0c0.8,2.2,0.8,4.5,0.4,6.8c-0.2,0.9-0.2,1.9-0.7,2.8 l0,0c-0.4,0.8-0.3,1.8-0.6,2.6l0,0c-0.2,0.7-0.2,1.4-0.6,2.1l0,0c-0.3,0.7-0.6,1.5-1.1,2.1l0,0c-0.5,0.6-0.6,1.5-1.2,2l0,0 c-0.3,1.1-0.8,2.1-1.5,2.9l0,0c-0.1,0.2,0,0.5-0.3,0.6l0,0c-0.3,0.5-0.4,1.1-0.9,1.5l0,0c-0.3,0.7-0.7,1.3-1.2,1.8l0,0 c-0.2,0.3-0.3,0.7-0.6,0.9l0,0c-0.5,0.8-1.1,1.6-1.8,2.4l0,0c-0.3,0.7-1,1.2-1.5,1.8l0,0c0,0.2-0.1,0.3-0.3,0.3l0,0 c0,0.2-0.1,0.3-0.3,0.3l0,0c-1.4,1.9-3.2,3.5-5,5.1c-0.8,0.7-1.4,1.5-2.3,2l0,0c-0.5,0.6-1.1,1.1-1.8,1.5l0,0 c-0.8,0.8-1.7,1.4-2.6,2l0,0c-0.4,0.3-0.7,0.7-1.2,0.9l0,0c-1.4,1.1-2.8,2.1-4.4,3l0,0c-0.3,0.3-0.6,0.4-1,0.6 c-4.4,0.1-8.8,1.4-13.3,0.6c-2-0.4-3.2,0.9-3.1,3c0.1,1.3-0.4,2.5-0.8,3.7c-0.7,1.9-1.3,3.7-2.1,5.6c-0.5,0.8-1.4,1.1-2.1,1.5l0,0 c-0.4,0.5-1,0.6-1.5,0.9l0,0c-0.7,0.4-1.3,0.9-2.1,1.2c-0.4,0.5-0.9,0.7-1.5,0.9l0,0c-0.3,0.4-0.7,0.5-1.1,0.5 c-1.3-1-2.7-0.4-4.1-0.3c-0.5,0-1.2,0.4-1.4-0.2c-0.3-0.6,0.3-1,0.7-1.3c0.9-0.9,1.8-1.9,2.5-3c0.2-0.2,0.3-0.5,0.1-0.8 c-0.2-0.2-0.5,0-0.7,0c-1.2,0.5-2.1,1.4-3,2.2c-0.7,0.6-1.4,1.2-2.1,1.8c-1.1,1-1.2,1-1.7-0.4c-0.6,0.5-0.9,1.2-1.3,1.9 c-0.4,0.6-0.9,1-1.5,0.4c-0.8-0.8-1.8-1.4-2.4-2.5c0.2-0.6,0.8-0.9,1.3-1.2c4.2-2.5,8.4-4.9,12.6-7.4c6.2-3.8,12.4-7.6,18.3-11.7 c5.5-3.7,10.8-7.6,15.9-11.9c4.1-3.5,8-7.3,11.4-11.5c1.2-1.5,2-3.2,2.8-4.9c0.3-0.6,0.5-1.4-0.2-1.9c-0.7-0.5-1.4-0.2-2,0.3 c-0.6,0.5-1,1-1.4,1.6c-4.4,6.8-10.2,12.2-16.1,17.7c-5.4,5-11.3,9.3-17.5,13.2C89.9,51,83.6,54.9,77,58.4 c-5.8,3.1-11.6,6.4-17.1,10.1C51.8,73.8,43.8,79.3,37,86.2c-4.9,4.9-9.6,10.1-13.2,16.1c-3.5,6-5.8,12.4-6.6,19.3 c-0.9,7.7,0.7,14.7,4.6,21.4c2.3,3.9,5.6,6.7,9.2,9.2c1.2,0.9,2.5,1.2,3.9,1.5c0.6,0.1,1.2,0.1,1.6-0.5c0.3-0.6-0.1-1-0.4-1.5 c-0.8-1.1-1.9-1.8-3-2.6c-3.9-2.6-7-6-9.6-9.8c-2.1-3.1-2.7-6.6-3.2-10.2c-0.8-6,0.3-11.8,2.2-17.5c2.3-7.3,6.1-13.7,11.2-19.4 c7.1-8,15.4-14.3,24.4-20.1c3.3-2.1,6.7-4.2,10.1-6.2c0.6-0.3,1.1-0.9,1.9-0.7c0.7,0.5,1,1.3,1.4,2c0.6,1,0.5,1.3-0.7,1.6 c-1.2,0.3-2.4,0.4-3.5,1.2c0.5,0.7,1.1,0.6,1.6,0.5c0.4,0,0.9-0.2,1.3-0.2c0.5,0,1.1-0.1,1.3,0.4c0.2,0.5-0.4,0.8-0.7,1.1 c-1.4,1.2-2.6,2.4-3.7,3.9c-0.3,0.4-0.7,0.8-0.3,1.3c0.4,0.3,0.8-0.1,1.2-0.4c0.3-0.2,0.5-0.4,0.8-0.6c0.4-0.3,0.8-0.8,1.3-0.4 c0.5,0.4,0.2,1-0.1,1.4c-1.1,1-2.2,1.8-3.4,2.6l0,0c-1.1,1.2-2.5,2-3.8,3l0,0c-0.9,0.8-1.7,1.7-2.7,2.3l0,0c-0.5,0.5-1,1-1.5,1.5 l0,0c-0.4,0.4-0.8,0.8-1.2,1.2l0,0c-0.3,0.7-0.8,1.1-1.4,1.5l0,0c-0.4,0.5-0.7,1-1.2,1.4c-0.3,0.6-0.7,1.1-1.2,1.5l0.1,0.1l-0.1-0.1 c-0.6,1-1.3,1.8-2,2.7l0,0c-0.1,0.3-0.3,0.7-0.6,0.9l0.1,0L51,95.6c-0.1,0.4-0.3,0.7-0.6,0.9l0,0c-0.8,1.5-1.8,2.9-2.6,4.4l0,0 c-0.1,0.4-0.2,0.9-0.6,1.2l0,0c-0.2,0.6-0.4,1.1-0.7,1.6c0,0.2-0.1,0.4-0.2,0.5c-0.1,0.1-0.1,0.2-0.2,0.3c-0.2,0.2-0.2,0.4-0.2,0.7 c-0.1,0.3-0.1,0.7-0.4,1l0,0c-0.4,1.4-0.7,2.8-1.2,4.1l0,0c-0.9,4-0.8,8,0,12.1l0,0c0.5,1.5,0.9,3,1.5,4.4l0,0 c0.2,0.1,0.2,0.4,0.3,0.6c-0.1,2.2-0.3,4.5-0.7,6.7c-0.2,1.2-0.4,1.3-1.5,0.7c-0.9-0.5-1.8-1-2.7-1.5c-0.5-0.2-1-0.4-1.5-0.4 c-1.1-0.1-1.5,0.5-1,1.5c0.5,1.1,1.4,1.8,2.3,2.6c1.1,1,1,1.5-0.4,2c-1,0.4-2.1,0.5-3.1,0.9c-0.3,0.1-0.7,0.3-0.6,0.7 c0.1,0.4,0.5,0.4,0.8,0.4c0.5,0,1-0.1,1.4-0.3c0.5-0.1,1-0.3,1.4,0.1c0.3,0.4,0,0.8-0.1,1.2c-0.2,0.5-0.5,1-0.6,1.5 c-0.1,0.7,0,1.3,0.5,1.7c0.6,0.5,1.2,0.3,1.8,0c0.9-0.5,1.4-1.4,2.1-2c0.3-0.3,0.5-0.7,0.9-0.6c0.5,0.1,0.6,0.6,0.6,1.1 c0.1,0.7,0.1,1.5,0.3,2.2c0.1,0.4,0.1,1,0.7,1c0.6,0,0.6-0.7,0.7-1.1c0.1-0.5,0-1,0.1-1.5c0.1-1.2,0.4-1.3,1.5-0.8 c0.5,0.3,1,0.6,1.6,0.8c0.9,0.3,1.6,0.1,2.2-0.6c0.6-0.7,0.6-1.5,0.1-2.3c-0.7-1-1.7-1.7-2.7-2.4c-1.2-1-1.2-1.3,0.2-1.9 c1.5-0.6,2.8-1.5,4.5-1.4c0.3,0.1,0.6,0,0.8,0.3l0,0c0.7,0.2,1.4,0.2,2,0.6l0,0c0.8,0.2,1.6,0.3,2.3,0.5c0.2,0.1,0.3,0.1,0.5,0 c1.4,0.2,2.8,0.4,4.2,0.6c0.4,0.1,0.8,0.2,1.2,0c3,0,6.1-0.3,9.1-0.6l0,0c0.5-0.4,1.2,0,1.7-0.3l0,0c0.9-0.2,1.8-0.5,2.8-0.5 c1.2,0.5,0.8,1.5,0.6,2.3c-0.2,0.9-1,0.8-1.7,0.7c-1.1-0.2-2.2-0.2-3.3-0.1c-0.5,0-1.2,0-1.4,0.6c-0.1,0.7,0.6,0.9,1.1,1.1 c0.8,0.3,1.6,0.5,2.4,0.7c1.2,0.3,1.5,0.8,0.7,1.8c-0.8,1-1.6,2.1-2.3,3.2c-0.4,0.6-0.8,1.3-0.3,2c0.4,0.7,1.2,0.6,1.8,0.4 c0.9-0.2,1.4,0,1.1,1c-0.2,0.9-0.2,1.8-0.3,2.7c-1.3,1.1-2.9,1-4.4,1.4c-4.9,1.3-9.9,1.9-15,1.9c-4.4,0-8.7-0.8-12.9-2.2 c-0.6-0.2-1.3-0.7-1.7,0.1c-0.3,0.7,0.4,1.1,0.9,1.5c0.7,0.5,1.4,0.8,2.2,1.1c5.3,1.7,10.8,2.3,16.4,1.8c8.4-0.7,16.4-2.8,24.3-5.6 c6.4-2.2,12.2-5.5,18.1-8.8c8.2-4.5,15.8-9.9,23.4-15.4c7.4-5.3,14.5-10.8,21.5-16.6c0.5-0.4,0.9-0.8,1.2-1.2 c0.3-0.4,0.8-0.9,0.5-1.4c-0.4-0.6-1.1-0.4-1.6-0.2c-1.1,0.5-2.2,1-3.2,1.7c-4.6,3.6-9.3,7-14.1,10.4c-8.2,5.7-16.1,11.8-24.4,17.3 c-7.2,4.7-14.7,8.8-22.7,12c-1.9,0.8-3.9,1.2-5.8,1.8c-0.5,0.1-1,0.2-1.4-0.2c0.6-1.7,0.8-3.8,3.3-4c0.6-0.1,1-0.6,1.1-1.2 c0.1-0.5,0.1-1,0.2-1.4c0.1-2.5,0.3-2.7,2.7-2c1.2,0.3,2.4,0.7,3.7,0.7c0.8,0,1.6-0.1,1.8-1.1c0.2-0.9-0.4-1.5-1.1-1.9 c-0.8-0.4-1.7-0.5-2.5-0.6c-0.5-0.1-1,0-1.5-0.1c-1.3-0.3-1.6-0.9-0.7-1.9c1.7-2.2,3.2-4.4,4.6-6.7c0.2-0.3,0.6-0.5,0.9-0.6l0,0 c0.1-0.3,0.4-0.2,0.6-0.3l0,0c0.1-0.2,0.4-0.2,0.6-0.3l0,0c0.4-0.4,0.9-0.7,1.5-0.9l0,0c0.3-0.4,0.8-0.4,1.1-0.6l0,0 c0.1-0.1,0.2-0.3,0.4-0.2l0,0c0.7-0.7,1.5-1,2.3-1.5l0,0c0.3-0.2,0.6-0.4,0.9-0.6l0,0c0.4-0.3,0.7-0.7,1.2-0.9l0,0 c0.7-0.5,1.4-1,2.1-1.5l0,0c0.2-0.3,0.5-0.5,0.9-0.6l0-0.1l0,0.1c0.3-0.4,0.7-0.7,1.2-0.9l0,0c0.2-0.3,0.5-0.5,0.9-0.6l0,0 c0.3-0.4,0.7-0.7,1.2-0.9l0,0c1.2-1.1,2.5-2,3.8-2.9l0,0c0.6-0.5,1-1.2,1.8-1.5l0,0c0.6-0.5,1-1.2,1.8-1.5l0-0.1l0,0.1 c0-0.2,0.1-0.3,0.3-0.3l0,0c0.4-0.5,0.8-1,1.5-1.2l0,0c0-0.2,0.1-0.3,0.3-0.3l0,0c0.4-0.4,0.8-1,1.5-1.2l-0.1-0.1l0,0.1 c0.1-0.1,0.2-0.2,0.3-0.3c0.5-0.1,0.9,0.1,1.3,0.4c0.8,0.7,1.7,1.2,2.5,1.7c1.2,0.7,1.2,1.2,0.1,2.1c-1.5,1.2-3,2.4-4.5,3.7 c-0.9,0.9-0.7,1.4,0.5,1.9c0.4,0.1,0.7,0.1,0.9,0.5c0.1,0.3,0.1,0.7,0,1c-0.1,0.4-0.3,0.9,0.2,1.2c0.4,0.3,0.9,0,1.2-0.2 c1-0.7,1.5-1.8,2.3-2.7c0.4-0.4,0.6-1,1.2-1c0.7,0.1,0.5,0.8,0.6,1.3c0.3,1,0.8,1.1,1.5,0.4c0.7-0.7,1-1.6,1.3-2.6 c0.6-2,0.7-2.1,2.6-1.5c0.2,0.1,0.5,0.2,0.7,0.2c0.8,0.1,1.4-0.1,1.7-0.8c0.4-0.7,0.1-1.3-0.5-1.8c-0.3-0.3-0.7-0.5-1.1-0.6 c-1.9-0.8-1.9-1.2-0.3-2.5c2-1.7,4.1-3.4,6.2-5.2c0.7-0.6,1.3-1.2,1.8-2.1c-1.3-0.1-2.1,1.2-3.3,1.2c-0.2-0.1-0.4-0.2-0.4-0.4 c0.2-1.1,1-1.9,1.4-2.9c0.3-0.6,0.7-1.3,0-1.8c-0.6-0.5-1.2,0.1-1.7,0.4c-1,0.7-1.6,1.8-2.4,2.7c-0.4,0.5-0.8,0.9-1.2,1.4 c-0.3,0.3-0.6,0.8-1,0.6c-0.6-0.2-0.4-0.8-0.5-1.3c0-0.3,0-0.7,0.1-1c0.2-0.8,0.2-1.5,0.1-2.3c0-0.1,0-0.3,0.1-0.4 c0.1-0.1,0.2-0.2,0.3-0.3c0.8-0.6,1.3-1.5,2.2-1.9l0,0c1-1,2-2.2,3.2-2.9l0,0c0.9-0.8,1.6-1.8,2.6-2.4l0,0c0.6-0.5,1-1.2,1.7-1.5 l0,0c0.1-0.2,0.2-0.3,0.3-0.3l0,0c1.1-1.2,2.5-2.3,3.8-3.3l0,0c0.2-0.4,0.4-0.7,0.9-0.8l0,0c0.8-0.7,1.4-1.6,2.4-2.1l0,0 c0.9-0.8,1.6-1.8,2.6-2.4l0,0c1.1-1,2-2.1,3.3-2.9l0,0c1.9-1.9,3.8-3.6,5.8-5.3l0,0c1.2-1.2,2.4-2.3,3.8-3.2l0,0 c1.4-1.4,3-2.7,4.7-3.8l0,0c0.1-0.1,0.2-0.2,0.4-0.1c0.6,0.5,0.3,1.1,0.1,1.6c-0.9,3.4-2.3,6.6-3.3,10c-0.1,0.3-0.2,0.6-0.3,1 c-0.1,0.4-0.2,0.8,0.1,1.1c0.4,0.3,0.7,0.1,1.1-0.1c4.3-2.1,8.8-3.6,13.5-4.5c1.2-0.2,1.3-1.2,1.5-2.1c0.6-4.2,2.4-8,4.5-11.7 c0.1-0.2,0.3-0.4,0.4-0.6c0.1-0.1,0.1-0.2,0.2-0.3c0-0.1,0.1-0.2,0.1-0.2c0-0.1,0.1-0.1,0-0.2c-0.1,0-0.1,0-0.2,0.1 c-0.1,0.1-0.2,0.1-0.2,0.2c-0.1,0.1-0.3,0.2-0.4,0.3c-3.4,2-7,3.6-10.8,4.4c-1.4,0.3-2.8,0.1-4.2,0.2c-0.3,0-0.6-0.1-0.6-0.5 c0.5-0.8,1.3-1.1,2-1.6l0,0c2.3-2,4.7-3.7,7.3-5.3l0,0c1-0.8,2.1-1.5,3.2-2.1l0,0c1.2-0.8,2.2-1.8,3.5-2.3l0,0 c1-0.8,2.1-1.5,3.2-2.1l0,0c0.3-0.4,0.8-0.6,1.2-0.9l0,0c0.3-0.5,1-0.6,1.4-0.9l0,0c1.4-1.1,2.9-2,4.4-2.9l0,0 c1.4-1,2.8-2.1,4.4-2.9l0,0c4.1-2.9,8.3-5.6,12.9-7.6l0,0c2.1-1.2,4.3-2.2,6.5-3.2c3.4-0.5,6.8,0.1,10.2,0.5 c2.9,0.4,5.7,1.1,8.4,2.2c1,0.4,1.5,0.2,1.9-0.8c1.5-3.8,3.9-7.1,6.2-10.4c0.2-0.3,0.4-0.5,0.7-0.7c4.6-0.9,9.2-1.1,13.9-1 c5.6,0.2,11.1,1.1,16.5,2.5c1.1,0.3,2.2,0.6,3.3,1.2c0.5,0.2,0.7,0.6,0.8,1.1c0.2,1.2-0.3,1.7-1.4,1.4c-1.2-0.3-2.4-0.9-3.6-1.1 c-0.4-0.1-0.9-0.5-1.2,0.1c-0.2,0.4,0.2,0.8,0.5,1.1c1,0.9,2.2,1.6,3.4,2.2c1.8,0.9,1.8,1.1,0.4,2.6c-0.7,0.8-1.6,1.5-2.2,2.3 c-0.4,0.5-0.7,1.1-0.4,1.8c0.3,0.7,0.9,0.6,1.5,0.4c0.8-0.2,1.1,0.2,1.2,0.9c0.1,0.6-0.1,1.3,0,1.9c0,0.5,0.2,0.9,0.7,1 c0.4,0.1,0.7-0.2,1-0.5c0.3-0.3,0.5-0.7,0.6-1.1c0.3-1,0.6-1.7,1.9-1c0.7,0.4,1-0.3,1.2-0.9c0.2-0.9,0-1.7-0.2-2.6 c-0.1-0.5-0.5-1.2,0.1-1.6c0.5-0.4,1.1,0,1.6,0.2c1.5,0.6,2.9,1.1,4.4,1.5c1.1,0.3,1.8,0.1,2-1.2c0.1-0.3,0.2-0.5,0.6-0.6 c1,0.1,1.4,1,1.9,1.6c3.3,4.3,6,8.8,6.6,14.3c0.1,1-0.3,1.8-1,2.5c-2.7,2.8-5.4,5.5-8.9,7.2c-0.9,0.4-1.5,1.1-1.2,2.2 c1.4,5.1,0.8,10.3,0.3,15.5c-0.1,0.6-0.1,1.3,0.1,1.9c-0.1,1.3-1.1,2-1.8,2.8c-1.9,2.4-3.8,4.8-6,7l0,0c-0.4,0.8-1.1,1.4-1.8,2.1 l0,0c-2.6,3.2-5.4,6.1-8.5,8.8l0,0c-4.3,4.2-8.6,8.3-12.4,12.9c-0.3,0.3-0.6,0.5-0.9,0.8c-0.8,0.4-1.6,0.9-2.4,1.2 c-0.1,0.1-0.2,0.1-0.3,0.2c-0.1,0-0.1,0.1-0.2,0.1c-0.1,0.1-0.2,0.1-0.4,0.2c-0.1,0-0.3,0-0.4-0.1c-0.1-0.1-0.1-0.2-0.1-0.4 c0-0.1,0-0.3,0.1-0.4c0.2-0.3,0.4-0.7,0.6-1c1.4-2.4,3.4-4.4,4.9-6.7c0.4-0.5,1.1-1.3,0.5-1.7c-0.6-0.5-1.1,0.4-1.6,0.9 c-1.8,1.7-3,3.9-4.6,5.8c-0.6,0.7-0.9,1.7-2,2c-0.1,0-0.2-0.1-0.3-0.2c-0.2-0.4-0.1-0.9-0.2-1.3c0-0.5,0.1-1.2-0.6-1.3 c-0.7-0.1-0.9,0.5-1.1,1c-0.6,1.3-1.1,2.6-1.6,3.9c-0.1,0.2-0.1,0.4-0.2,0.6c-0.7,2.1-1,2.2-3,1.3c-1-0.4-2-0.9-3-1 c-0.5-0.1-1.1,0-1.4,0.5c-0.3,0.6,0,1,0.4,1.5c0.5,0.7,1.2,1.1,1.9,1.6c1,0.8,1,1.3-0.1,2c-1.2,0.8-2.6,1.4-3.8,2.2 c-0.4,0.2-0.8,0.5-1.1,0.8c-0.5,0.5-1.5,0.9-1.1,1.7c0.5,0.9,1.5,0.3,2.2,0c1-0.4,1.8-1.2,2.9-1.2c0.2,0.1,0.4,0.2,0.5,0.4 c0.2,0.7-0.3,1.1-0.7,1.5c-0.5,0.6-1,1.1-1.2,2c0.7,0.1,1-0.4,1.3-0.7c0.6-0.6,1.1-1.4,1.7-2c0.4-0.3,0.7-1,1.3-0.7 c0.6,0.4,0.4,1.1,0,1.7c-1.3,2.1-2.8,4.1-4.2,6.1c-2.8,4.1-5.4,8.4-7.1,13.2c-1,3-1.8,6.2-1.3,9.4c0.4,2.7,1.4,5,3.6,6.7 c-0.1,0.7-0.6,0.8-1.1,1c-1.8,0.5-3.7,0.9-5.6,0.9c-0.5,0-1.1,0-1.6,0c-2,0.1-2.1,0.3-1.5,2.2c1,3.3,1.1,6.7,0.5,10.1 c-0.3,2,0,2.3,2,1.6c0.5-0.2,1-0.5,1.4-0.7c2.8-1.5,5.7-2.4,8.9-2.3c1.1,0,2.1,0,3.2,0c2.2,0,2.2,0,2.1-2.3c0-1.7,0.4-3.4,0.8-5 C246.6,171.6,246.9,171.2,247.6,171.3z" fill="#00bf63"/></g><g id="change2_1"><path d="M247.6,171.3c-0.6,0.1-0.7,0.5-0.8,1c-0.4,2.1-0.9,4.3-0.7,6.5c0.1,1.1,0,1.1-1.1,1.1c-1.3,0-2.6,0-3.9-0.1 c-3.5-0.2-6.6,0.8-9.6,2.4c-0.9,0.5-1.8,0.9-2.8,1.2c-1.5,0.3-1.7-0.2-1.4-1.3c1.1-4.2,0.7-8.4-0.6-12.5c0-0.1-0.1-0.3-0.2-0.4 c-0.2-0.5-0.1-0.8,0.5-0.8c0.7,0,1.4-0.1,2.2-0.1c2.3,0,4.6-0.4,6.9-0.9c0.4-0.1,0.8-0.2,1.1-0.6 C240.4,169.1,243.7,170.8,247.6,171.3z M234,72c0.1,0,0.2,0,0.3,0.1c0.1,0.1,0.2,0.1,0.3,0c0.2,0,0.4,0,0.6,0c1,0.3,2,0,2.9,0.6l0,0 c0.6,0.3,1.2,0.3,1.8,0.6l0,0c0.4,0.2,0.8,0.3,1.2,0.6l0,0c1-0.2,1.3,0.4,1.3,1.3c0,0.1,0.1,0.2,0.2,0.2l0,0 c0.1,0.8,0.3,1.6,0.3,2.4c0,0.1,0,0.2,0,0.2c-0.3,0.9-0.3,1.8-0.6,2.7l0,0c-0.2,0.4-0.4,0.7-0.2,1.1c0.3,0.3,0.2,0.6,0.3,1 c0.2,1.1,0.3,2.1,0.6,3.2c0.1,0.5,0.4,1,1.1,1c0.7,0,1-0.5,1.1-1.1c0.1-0.6,0.1-1.3,0.1-1.9c0-1.1,0-2.2,0-3.3 c0.6,0.2,0.9,0.6,1.3,0.9c0.8,0.6,1.5,1.3,2.4,1.7c0.7,0.3,1.3,0.4,1.9-0.1c0.6-0.5,0.9-1.2,0.7-2c-0.1-0.5-0.3-1-0.6-1.5 c-0.5-0.9-1.2-1.7-1.7-2.5c-0.5-0.7-1.1-1.4-1.5-2.3c0.4,0,0.7,0,1,0c1.7,0.1,3.5,0.2,5.2,0.2c1.1,0,1.9-0.5,2.1-1.2 c0.2-0.8-0.3-1.5-1.3-2c-0.1-0.1-0.3-0.1-0.4-0.2c-1.4-0.6-2.8-0.8-4.3-0.8c-0.8,0-1.6,0.1-2.4-0.2c0.1-0.6,0.3-0.9,0.6-1.3 c1.1-1.6,2.1-3.1,3.1-4.7c0.4-0.6,0.8-1.2,1-1.9c0.1-0.3,0.2-0.7-0.1-0.9c-0.4-0.2-0.8-0.1-1.1,0.2c-0.5,0.5-1,1-1.3,1.5 c-1.4,2-3,3.7-4.5,5.6c-0.1,0.1-0.2,0.3-0.6,0.3c0-0.5-0.1-1-0.1-1.5c0-1.3,0-2.6,0-3.9c0-1-0.2-2-0.8-2.9c-0.4-0.6-0.8-0.7-1.5-0.3 c-0.4,0.3-0.6,0.6-0.7,1.1c-0.3,1.2-0.3,2.4-0.1,3.6c0.2,1.2,0.2,2.5,0.1,3.8c-0.8-0.2-1.3-0.7-1.8-1.1c-0.6-0.5-1.2-0.8-1.9-1 c-1.2-0.3-2,0.5-1.6,1.7c0.2,0.7,0.5,1.3,0.9,2.1c-1.1,0.1-2,0.7-2.9,1.3C233.9,71.8,233.9,71.9,234,72z M0.5,114.5 c0,0.1,0,0.1,0,0.2c-0.2,1.6-0.4,3.3-0.2,4.9c0.3,0,0.5,0.2,0.7,0.5c1,1.5,1.7,3.2,2.1,4.9c0.2,0.9,0.6,1.8,0.2,2.9 c-0.3,1,0.2,1.8,1.1,2.1c0.8,0.2,1.4-0.2,1.9-1.2c0.1-0.3,0.3-0.6,0.3-1c0.1-0.7,0.4-1.4,0.7-2.1c1.3-3,2.9-5.8,5.7-7.8 c0.2-0.2,0.5-0.4,0.7-0.6c0.8-0.9,0.8-1.7,0-2.6c-0.2-0.2-0.5-0.4-0.8-0.6c-1.6-1.2-2.6-2.7-3.4-4.5c-0.6-1.5-1-3.1-1.4-4.8 c-0.2-1-0.5-2-1-2.9c-0.3-0.6-0.8-0.9-1.4-0.8c-0.7,0-1,0.5-1.2,1.1c-0.3,0.7-0.3,1.3-0.3,2c0,0.8-0.1,1.5-0.4,2.3 c-0.5,1.3-1,2.5-1.6,3.8c-0.3,0.6-0.4,1.4-1.2,1.8C0.4,112.8,0.8,113.7,0.5,114.5z M238.9,214.6L238.9,214.6 c1.2-0.3,2.4-0.4,3.5-0.9l0,0c1.1-0.3,2.2-0.5,3.2-0.9l0,0c0.6-0.3,1.2-0.2,1.8-0.6l0,0c0.3-0.2,0.7,0,0.9-0.3l0,0 c0.7-0.2,1.4-0.3,2.1-0.6l0,0c0.2-0.2,0.4-0.1,0.6-0.3l0.1-0.1l0.1,0c0.3-0.2,0.7,0,1-0.3l0,0c0.3-0.2,0.7,0,0.9-0.3l0,0 c0.6-0.3,1.2-0.2,1.8-0.6l0,0c0.3-0.2,0.7,0,0.9-0.3l0,0c0.8-0.3,1.6-0.5,2.4-0.8l0.1-0.1l0.1,0c0.8-0.2,1.6-0.5,2.4-0.9l0,0 c0.7-0.3,1.4-0.3,2-0.6l0,0c0.8-0.3,1.6-0.5,2.4-0.9l0,0c0.7-0.2,1.4-0.6,2.1-0.9l0,0c0.5-0.2,1-0.3,1.5-0.6l0,0 c0.2-0.2,0.4-0.1,0.6-0.3l0,0c0.2-0.3,0.7,0,0.9-0.3l0,0c0.2-0.1,0.5-0.1,0.6-0.3l0,0c0.8-0.3,1.5-0.7,2.3-0.9l0,0 c0.1-0.2,0.1-0.2-0.1-0.2c-0.6-2-1.1-2.3-3.2-1.9c-1.5,0.3-3,0.7-4.5,1c-2,0.4-4.1,0.8-6.2,0.7c-2.7-0.1-5.3-0.5-7.8-1.5 c-1.5-0.6-2.9,0-3.6,1.5c-0.6,1.2-1.4,2.4-2.3,3.3c-2.2,2.3-4.5,4.5-7,6.3c-0.9,0.7-2,1.3-2.5,2.4 C236.6,215.4,237.8,214.8,238.9,214.6z M79,152.6c0.1-0.1,0.2-0.2,0.3-0.3c0-0.1,0-0.1,0.1-0.2c0.6-0.9,1.2-1.8,1.6-2.8 c0.2-0.6,0.6-0.7,1.2-0.7c1.2,0.1,2-0.6,2.2-1.9c0.1-0.7,0-1.4,0.1-2c0-0.5-0.2-0.9,0.2-1.4c0.9,0.2,1.9,0.4,2.8,0.7 c1.3,0.3,2.5,0.7,3.9,0.5c1.2-0.2,1.8-1.2,1.5-2.4c-0.2-0.6-0.6-1-1.1-1.3c-0.9-0.6-1.9-0.6-2.9-0.7c-0.8-0.1-1.6-0.1-2.5-0.5 c0.2-0.6,0.7-1.1,1-1.6c1.6-2,3.2-4.1,4.2-6.4c-0.4-0.2-0.6,0.2-0.9,0.3c-0.1,0.1-0.1,0.1-0.2,0c-0.4,0.2-0.9,0.4-1.3,0.6l0,0 c-0.1,0.1-0.2,0.2-0.3,0.3c-0.1,0.1-0.1,0.1-0.2,0.1c-0.2,0.1-0.5,0.1-0.7,0.3l0,0c-0.2,0.1-0.4,0.1-0.6,0.3l0,0 c-0.5,0.3-1,0.3-1.5,0.6l0,0c-0.2,0.1-0.5,0.1-0.6,0.3l0,0c-0.5,0.2-1,0.3-1.5,0.6l0,0c-0.2,0.3-0.6,0-0.9,0.3 c-0.1,0.1-0.1,0.1-0.2,0.1c-0.1,0-0.1,0-0.2,0.1c0,0.2-0.1,0.1-0.2,0.1c-0.1,0-0.3,0-0.4,0.2l0,0c-0.2,0.1-0.4,0.1-0.6,0.2 c-0.2,0-0.3,0-0.5,0.1c-0.3,0.2-0.7,0-1,0.3c-0.1,0-0.2,0.1-0.3,0c0,0-0.1,0-0.1,0.1c0,0,0,0.1,0.1,0.1c0.5,0.5,0.2,1.2,0.3,1.8 c0.1,0.8-0.3,0.9-0.9,0.8c-1.3-0.2-2.5-0.2-3.8-0.2c-0.5,0-1.1,0.1-1.6,0.3c-0.9,0.4-1,1.1-0.1,1.6c0.4,0.3,1,0.4,1.4,0.7 c1,0.5,2.2,0.5,3.2,0.9c-0.2,0.7-0.6,1.1-1,1.5c-0.8,1-1.6,2.1-2.3,3.2c-0.5,0.8-0.4,1.5,0.1,2.2c0.5,0.7,1.3,0.6,2,0.4 c0.3-0.1,0.6-0.5,1-0.3c-0.1,0.5-0.2,1-0.4,1.5c-0.3,0.7-0.2,1.3,0.2,1.9C78.3,153.1,78.7,152.6,79,152.6z M54.2,135.2 c-0.1,0-0.2,0-0.2,0c-0.3-0.2-0.6-0.4-1-0.5c-0.1,0-0.2,0-0.2-0.1c-0.1-0.1-0.2-0.1-0.4,0c-0.4,0.3-0.7,0.6-1.3,0.5 c0-0.4,0.3-0.7,0.3-1.1c-0.6-1.2-1.8-1.8-2.5-2.9l0,0c-0.1-0.1-0.2-0.2-0.3-0.1c-0.3,0.3-0.3,0.8-0.9,0.9c-0.2-0.8-0.1-1.5,0-2.3 c0-0.1,0-0.3-0.1-0.4l0,0c-0.3-0.4-0.6-0.8-0.9-1.2l0,0c-0.2-0.2-0.1-0.5-0.3-0.6l0,0c-0.1-0.2-0.2-0.5-0.5-0.4 c-0.3,2.5-0.6,5-0.9,7.6c-0.6-0.2-0.9-0.5-1.3-0.8c-1.2-0.8-2.4-1.5-3.8-1.8c-0.6-0.1-1.2-0.1-1.6,0.4c-0.5,0.6-0.2,1.1,0.1,1.6 c0.5,0.8,1.1,1.6,1.8,2.3c0.5,0.4,1.1,0.8,1.6,1.5c-0.8,0.2-1.4,0.4-2.1,0.6c-1,0.2-1.9,0.6-2.8,0.9c-0.4,0.2-0.7,0.5-0.6,0.9 c0,0.5,0.4,0.7,0.9,0.8c0.8,0.1,1.5-0.1,2.3-0.3c0.3-0.1,0.7-0.4,1.1,0c0.1,0.3-0.2,0.6-0.3,0.8c-0.3,0.6-0.6,1.1-0.8,1.7 c-0.2,0.8,0,1.6,0.7,2.1c0.7,0.5,1.3,0.5,2,0.1c0.5-0.3,0.9-0.6,1.2-1c0.6-0.7,1.1-1.3,1.7-2c0.3,0.6,0.3,1.1,0.4,1.6 c0.1,0.6,0.2,1.1,0.3,1.7c0.1,0.7,0.2,1.3,1,1.4c0.5,0.1,0.9-0.5,1-1.4c0.1-0.4,0-0.9,0-1.3c0-0.5-0.1-1,0.1-1.5 c0.9,0.3,1.6,1.1,2.6,1.4c1,0.3,1.8,0.1,2.5-0.6c0.6-0.7,0.8-1.7,0.3-2.6c-0.4-0.8-1.1-1.5-1.9-2c-0.7-0.5-1.4-1-2.1-1.6 c1.9-0.8,3.5-1.7,5.4-2C54.9,135.1,54.4,135.4,54.2,135.2z M246.5,131.2c2.7-3.4,5.6-6.5,8.5-9.8c0.9-1,1.7-2.2,2.9-3 c0.4-0.6,1.3-0.8,1.2-1.7c-0.9,0.2-1.7,0.9-2.6,1.2c-0.1,0.1-0.2,0.2-0.3,0.2l0,0c-0.1,0.1-0.2,0.2-0.3,0.2 c-0.1,0.1-0.2,0.1-0.3,0.1c-0.3-0.2-0.1-0.4,0-0.6l0,0c0.2-0.2,0.4-0.6,0.6-0.8c1.1-1.5,2.2-3,3.4-4.5c0.9-1.1,1.9-2.2,2.4-3.6 c0.2-0.4,0.3-0.8-0.1-1.2c-0.4-0.3-0.8,0-1.1,0.2c-0.4,0.2-0.7,0.5-1,0.8c-0.9,1-1.8,2-2.6,3.1c-1.3,1.7-2.5,3.6-4,5.1l0,0 c0-0.8,0-1.6,0-2.3c0-0.5-0.3-0.9-0.9-1c-0.5-0.1-0.9,0.1-1.1,0.5c-0.2,0.2-0.3,0.5-0.4,0.8c-0.7,1.6-1.4,3.2-1.9,4.9 c-0.6,1.8-0.1,2-2.3,0.9c-1.1-0.5-2.1-1-3.3-1.2c-0.8-0.1-1.5,0-1.9,0.8c-0.3,0.6-0.1,1.3,0.5,2c0.6,0.7,1.4,1.2,2.2,1.7 c0.8,0.6,0.8,0.7,0,1.2c-1.6,1-3.2,1.8-4.8,2.8c-0.6,0.4-1.2,0.9-1.6,1.5c-0.3,0.4-0.3,0.8-0.2,1.2c0.2,0.4,0.6,0.4,1,0.5 c0.7,0,1.2-0.2,1.8-0.5c1-0.4,1.8-1.1,2.9-1.4c0.4-0.1,0.6-0.1,0.4,0.4c-0.4,0.5-0.8,1.1-1.2,1.6c-0.4,0.5-0.8,1-1,1.6 c-0.1,0.3-0.3,0.6,0,0.8c0.3,0.2,0.6,0.1,0.8-0.1c0.3-0.2,0.5-0.4,0.8-0.6c0.6-0.6,1.1-1.2,1.6-1.8c0.4-0.5,0.8-1,1.4-1.3 c0,0.6,0,1.1,0,1.6C246.3,131.3,246.4,131.3,246.5,131.2z M292.2,155.8c-0.2,0.6-0.6,0.8-1.2,0.5c-1.3,0.8-2.9,1.2-4.2,2.2 c-0.1,0.1,0,0.2,0.1,0.3c0.1,0,0.2,0,0.2,0.1c0,0,0.1,0,0.1,0.1c0,0.1,0,0.1-0.1,0.2l0,0c-0.2,0.2-0.4,0.1-0.6,0.3l0,0 c-0.2,0.2-0.4,0.1-0.6,0.3c-0.1,0.1-0.1,0.1-0.2,0.1c-0.1,0-0.2,0.1-0.4,0.2c-0.1,0.1-0.1,0.1-0.2,0.1c-0.2,0.1-0.5,0.1-0.6,0.2l0,0 c-0.1,0.2-0.4,0.1-0.6,0.3c-0.1,0.1-0.1,0.1-0.2,0.1c-0.2,0-0.3,0.1-0.4,0.2l0,0c-0.1,0.2-0.4,0.1-0.6,0.3l0,0 c-0.1,0.1-0.2,0.2-0.3,0.3c-0.3,0.2-0.5,0.4-0.8,0.6c-0.3,0.2-0.6,0.5-0.5,0.8c0.1,0.4,0.5,0.4,0.8,0.5c0.3,0.1,0.6,0.1,0.9,0 c1-0.2,2-0.3,3-0.6c0.5-0.2,0.9-0.4,1.6-0.3c-0.8,1.4-1.6,2.6-1.9,4c-0.2,0.8,0,1.4,0.6,1.8c0.6,0.3,1.1,0.2,1.6-0.2 c1.1-0.7,1.9-1.7,2.6-2.7c0.9-1.3,1.7-2.7,2.6-4.2c0,1.5,0,2.7,0,3.9c0,0.5,0,1.1,0.3,1.5c0.6,0.9,1.6,0.9,2.1,0 c0.2-0.4,0.3-0.9,0.4-1.4c0.1-1.1-0.3-2.3,0.1-3.4c0.8,0.2,1.5,0.3,2.2,0.4c0.6,0.1,1.2,0.1,1.7-0.2c1.3-0.6,1.6-1.9,0.7-3 c-0.2-0.3-0.7-0.4-0.7-0.9c0.5-0.5,1.1-0.6,1.7-0.8c0.5-0.3,1-0.5,1.4-1c0.8-0.9,0.5-1.9-0.7-2.2c-0.6-0.1-1.2,0-1.7,0.1 c-1.3,0.4-2.7,0.8-4,1.2c0-0.8,0.7-1.3,0.7-2C295.5,154.3,293.8,155.1,292.2,155.8z M372.7,116.9c-3.2,0.7-6.4,1.4-9.5,2.6 c-0.3,0.1-0.5,0.3-0.8,0.4c-3.1,1.1-6.1,2.5-9.1,3.9c0.5,0.4,0.3,0.9,0.3,1.4c-0.1,1-0.2,1.9-0.3,2.9c0,1.8,1.4,2.7,3.1,1.9 c0.2-0.1,0.4-0.3,0.6-0.4c3.3-1.9,6.7-3.2,10.6-1.9c1.4,0.5,2.4-0.5,2.6-1.9c0.1-1,0.2-1.9,0.3-2.9c0.2-1.7,0.8-3.3,1.9-4.6 c0.3-0.4,0.6-0.7,0.9-1.1C373.2,116.9,372.9,116.9,372.7,116.9z M50.5,51c-0.3,0.2-0.7,0.3-0.9,0.6l0,0c-0.2,0.2-0.4,0.1-0.6,0.3 l0,0c-0.5,0.3-1,0.5-1.5,0.8c-0.1,0.1-0.1,0.1-0.2,0c-0.4,0.1-0.7,0.3-1,0.6l0,0c-0.4,0.2-0.9,0.2-1.2,0.6l0,0 c-0.1,0-0.2,0.1-0.2,0.2c-0.1,0.2-0.3,0.2-0.5,0.2c-0.3,0.1-0.5,0.2-0.8,0.4l0,0c-0.6,0.2-1,0.6-1.5,0.8c-0.1,0.1-0.1,0.1-0.2,0.1 c0,0-0.1,0-0.1,0.1c0,0.1,0,0.1,0.1,0.2c0.5,0.7,0.6,1.5,0.8,2.3c0.1,0.5-0.1,0.9-0.6,0.9c-1,0.1-1.9,0.4-2.9,0.6 c-0.5,0.1-0.9,0.4-1.3,0.6c-0.2,0.1-0.4,0.3-0.3,0.6c0.1,0.2,0.3,0.3,0.4,0.3c0.9,0.2,1.7,0.3,2.6,0.3c0.6,0,1.2-0.1,2,0.1 c-0.3,0.7-0.6,1.3-0.8,1.9c-0.6,1.5-1.3,3-1.5,4.7c-0.1,0.6-0.3,1.2,0.4,1.6c0.7,0.5,1.2,0,1.7-0.4c0,0,0.2,0,0.3,0 c-0.4,0.9-0.4,1.9-0.2,2.9c0.1,0.6,0.5,1.1,1.1,1.2c0.7,0.1,1.1-0.3,1.4-0.8c0.3-0.5,0.3-1,0.3-1.6c0.1-1.5,0.4-3,0.3-4.4 c0.4-0.2,0.6,0,0.8,0c1.2,0.2,2-0.4,2-1.7c0-0.5-0.2-0.9-0.3-1.4c-0.2-0.8-1.1-1.7-0.6-2.4c0.5-0.6,1.6-0.2,2.5-0.3 c0.7-0.1,1.5,0,2.1-0.4c0.6-0.3,1-1.1,0.9-1.7c-0.2-0.6-0.6-1.1-1.3-1.2c-0.8-0.1-1.6-0.1-2.5,0.2c-0.4,0.1-0.8,0.3-1.3-0.1 c0.9-2.2,1.7-4.5,2.6-6.8C50.7,51,50.6,51,50.5,51z M333.9,170.5L333.9,170.5l0.2,0c0.2-0.1,0.5-0.1,0.7-0.3l0,0 c0.2-0.1,0.4-0.1,0.6-0.3l0.1-0.1l0.1,0c0.8-0.3,1.7-0.5,2.4-0.9l0,0c0.8-0.3,1.5-0.6,2.3-0.7c0.3-0.1,0.6-0.3,0.8-0.6 c0.3-0.5,0.8-0.9,1-1.5c0,0.4-0.1,0.8,0.2,1.2c0.1,0.1,0.2,0.1,0.4,0l0,0c0.5-0.2,1-0.2,1.5-0.6l0.1-0.1l0.1,0 c0.3-0.2,0.7-0.1,0.8-0.5c0-1.8,0.1-2,1.9-1.6c0.5,0.1,1,0.2,1.6,0.2c0.2,0,0.4,0,0.6,0c0.4-0.1,0.8-0.2,1.1-0.4l0,0 c0.5-0.5,1.5,0,1.8-0.9c-0.6-0.7-1.5-0.9-2.3-1.1c-0.8-0.2-1.6-0.4-2.7-0.7c1-0.8,1.8-1.5,2.5-2.1c0.8-0.7,1.6-1.5,2.3-2.2 c0.3-0.3,0.5-0.6,0.2-1c-0.2-0.4-0.6-0.4-1-0.4c-0.4,0-0.8,0.4-1.3,0.2c0.2-0.7,0.8-1.2,1.1-1.8c0.1-0.3,0.4-0.6,0.1-0.9 c-0.3-0.4-0.7-0.3-1.1-0.1c-1,0.5-1.7,1.3-2.4,2.1c-0.5,0.5-0.8,1.1-1.5,1.3c0-0.2-0.1-0.3-0.1-0.4c-0.3-1.1-0.8-1.7-1.5-1.7 c-0.7,0-1.2,0.6-1.6,1.7c-0.3,1.1-0.4,2.3-0.4,3.5c-0.1,1-0.1,1-1,0.9c-0.3,0-0.6-0.1-0.9-0.2c-1.4-0.5-2.9-0.6-4.4-0.9 c-0.4-0.1-0.9-0.1-1.3,0.1c-0.5,0.2-0.8,0.6-0.8,1.1c0,0.5,0.2,0.9,0.7,1c0.6,0.2,1.3,0.5,1.9,0.7c1.3,0.4,2.6,0.5,4.1,0.8 c-0.3,0.3-0.4,0.5-0.5,0.6c-1.6,1.5-3.3,3-4.9,4.6c-0.7,0.7-1.6,1.2-2,2.2C333.5,170.7,333.7,170.7,333.9,170.5z M103.4,27.1 L103.4,27.1c-0.5,0.2-1,0.5-1.5,0.8l0,0c-0.5,0.3-1,0.3-1.5,0.6l0,0c-0.2,0.1-0.5,0.1-0.6,0.3l0,0c-0.2,0.1-0.5,0.1-0.6,0.3l0,0 c-0.2,0.2-0.4,0.1-0.6,0.3c-0.1,0.1-0.1,0.1-0.2,0c-0.4,0.2-0.9,0.3-1.3,0.6l0,0c-0.2,0.2-0.7,0-0.9,0.3l0,0 c-0.4,0.2-0.8,0.3-1.2,0.5c-0.1,0.1-0.1,0.1-0.2,0c-0.7,0.4-1.4,0.5-2.1,0.9l0,0c-0.8,0.3-1.6,0.5-2.3,0.9l0,0 c-0.5,0.2-1,0.3-1.5,0.6l0,0c-0.2,0.2-0.7,0-0.9,0.3l0,0c-0.2,0.4-0.9-0.2-0.9,0.5c0.6,0.2,0.8,0.7,1,1.1c0.6,1,1.1,2.1,1.4,3.2 c0.4,1.3,0.9,2.6,1.2,3.9c0.2,0.9,0.8,1.1,1.5,0.7c0.7-0.4,1.3-0.8,1.5-1.6c0.1-0.5,0.3-0.9,0.5-1.3c1.1-2.1,2.5-4,4.1-5.9 c1.4-1.7,2.8-3.3,4.2-5c0.4-0.5,1-1.1,0.8-2C103.6,26.9,103.5,26.9,103.4,27.1z M46.1,104.8c0-0.1-0.1-0.1-0.1-0.1 c-0.2,0-0.2,0.2-0.1,0.3c0,0.1,0.1,0.1,0.1,0.1C46,104.9,46.1,104.8,46.1,104.8z M352.7,124c0.2,0.1,0.4,0.1,0.4-0.2 C352.9,123.7,352.8,123.8,352.7,124z M167.1,69.9c-1,3.6-2.4,7.2-3.6,10.8c-0.2,0.6-0.4,1.2-0.3,1.8c0,1,0.3,1.1,1.2,0.8 c1.2-0.5,2.5-1.2,3.7-1.7c3.3-1.4,6.7-2.5,10.3-3c1.1-0.2,1.6-0.6,1.8-1.5c0.1-0.5,0.2-0.9,0.3-1.4c0.2-1.4,0.5-2.8,1-4.1 c0.9-2.6,2.2-5,3.4-7.4c0.2-0.1,0.1-0.4,0.3-0.6l0,0c0.1-0.1,0.2-0.2,0.2-0.3c0-0.1,0.1-0.2,0.1-0.3c-0.2-0.2-0.4-0.2-0.6,0l0,0 c-0.1,0.1-0.2,0.2-0.3,0.2c-2.5,1.4-5,2.6-7.6,3.6c-2.5,1-5.2,1.2-7.9,1.3c-0.1,0-0.2-0.2-0.3-0.3c-0.1,0-0.2-0.1-0.3-0.1 c-0.3,0.7-1,0.8-1.4,1.4C167.3,69.3,167.2,69.6,167.1,69.9z M127.9,103.3c-0.1,0.3-0.3,0.5-0.6,0.5c0,0.1,0,0.1,0,0.2 c-0.8,2.4-1.5,4.9-2.1,7.4c-0.3,1-0.7,1.1-1.6,0.7c-1.3-0.6-2.5-1.2-4-1.2c-0.2,0.1-0.3,0.2-0.5,0.3c-0.3,0.6-1,0.8-1.4,1.4 c0.1,0,0.3,0,0.4,0.1c1.2,1.2,2.7,1.9,4.1,2.8c0.1,0,0,0.2,0.1,0.3c-0.4,0.3-0.9,0.7-1.3,1.1c-1.3,1.1-2.7,2.2-4,3.3 c-0.5,0.4-0.9,0.9-0.7,1.6c0.2,0.6,0.7,0.9,1.4,0.8c0.4-0.1,0.9-0.5,0.9,0.3c-0.1,0.3-0.2,0.6-0.3,0.8c-0.3,0.6-0.2,1.1,0.3,1.6 c0.5,0.4,1,0.2,1.5-0.1c0.7-0.4,1.1-1.1,1.6-1.7c0.6-0.8,1.1-1.6,1.9-2.3c0.3,0.4,0.2,0.7,0.1,1.1c0,0.6,0.2,1.2,0.8,1.4 c0.7,0.3,1.1-0.2,1.5-0.6c0.7-0.8,1.1-1.7,1.4-2.7c0.2-0.6,0.3-1.3,0.7-1.9c0.6,0.2,1.2,0.4,1.8,0.6c1.2,0.4,2.2,0.1,2.6-0.8 c0.4-0.9,0.1-1.9-1-2.6c-0.3-0.2-0.7-0.4-1-0.5c-0.5-0.2-0.9-0.4-1.5-0.7c1.7-1.6,3.5-3,5.2-4.4c1.6-1.4,3.5-2.7,4.7-4.8 c-0.7-0.1-1.2,0-1.7,0.2c-0.8,0.4-1.5,0.9-2.2,1.3c-0.3,0-0.5,0-0.3-0.4c0.8-1.2,1.6-2.3,1.9-3.7c0.1-0.5,0.2-1.1-0.3-1.5 c-0.5-0.4-1.1-0.2-1.6,0.1c-0.2,0.1-0.4,0.3-0.6,0.4c-1,0.7-1.7,1.8-2.4,2.7c-0.7,0.8-1.3,1.6-2.1,2.4c-0.1-0.9,0-1.7,0.1-2.5 c0.1-0.8,0.3-1.5-0.2-2.3c-0.1,0-0.2-0.1-0.2,0c-0.1,0.1-0.2,0.2-0.3,0.3C128.7,102.9,128.4,103.2,127.9,103.3z M13.1,84.2 c1.1,0.6,1.7,1.5,2,2.7c0.4,1.7,0.7,3.4,0.7,5.2c0,0.6,0.1,1.3,0.4,1.8c0.5,1,1.5,1.1,2.3,0.4c0.5-0.4,0.7-0.9,0.9-1.5 c0.3-0.9,0.9-1.6,1.6-2.2c2.1-2,4.7-3.3,6.8-5.1c1.1-0.9,1.4-1.6,0.9-2.9c-0.2-0.7-0.7-1.2-1.1-1.7c-0.9-1-1.6-2.3-1.8-3.6 c-0.3-2.2-0.8-4.4-1.3-6.5c-0.1,0-0.1,0-0.2,0c-0.1,0.5-0.5,0.9-0.9,1.1c0,0.2-0.1,0.3-0.3,0.3c-0.1,0.1-0.2,0.2-0.3,0.3 c-0.1,0.3-0.3,0.5-0.6,0.6c-0.1,0.1-0.2,0.2-0.3,0.3c0,0.2-0.1,0.3-0.3,0.3c-0.1,0.1-0.2,0.2-0.3,0.3c-0.1,0.1-0.2,0.2-0.3,0.3 c-0.1,0.1-0.2,0.2-0.3,0.3c-0.1,0.1-0.2,0.2-0.3,0.3c-0.1,0.1-0.2,0.2-0.3,0.3c0,0.3-0.2,0.5-0.6,0.6c-0.2,0.6-0.7,1-1.2,1.4 c-0.1,0.2-0.3,0.5-0.5,0.6c-0.1,0.1-0.2,0.2-0.3,0.3c-0.3,0.6-0.6,1.1-1.2,1.5c-0.4,0.8-0.8,1.5-1.5,2c0,0.3-0.2,0.6-0.5,0.7 c0,0.2-0.1,0.4-0.3,0.6c-0.1,0.1-0.2,0.2-0.3,0.3C13.7,83.7,13.1,83.8,13.1,84.2z M207.6,214c0.2-0.8,0-1.4-0.3-2.1 c-0.4-1-1-1.9-1.6-2.8c-0.9-1.5-2-2.9-2.6-4.5c0.4-0.2,0.7-0.1,1-0.1c1.1,0.3,2.2,0.5,3.2,0.9c0.7,0.2,1.3,0.3,2,0.1 c0.4-0.1,0.8-0.2,0.9-0.7c0.1-0.5-0.3-0.7-0.6-0.9c-0.9-0.5-2-0.8-3-1c-0.6-0.1-1.3-0.3-1.9-0.7c2-1.4,3.9-2.7,5.9-4 c-0.6-0.4-1-0.3-1.4-0.1c-0.8,0.3-1.5,0.7-2.3,1c-1.1,0.4-2.2,1.1-3.6,1.4c1.4-3.2,1.6-6.4,2.3-9.5c-1.7,3-3.5,5.8-4.8,8.9 c-0.4-0.1-0.4-0.3-0.5-0.5c-0.8-1.8-1.8-3.5-2.9-5.2c-0.4-0.6-0.9-1.2-1.5-1.6c-1-0.7-2-0.2-2.1,1c-0.1,0.7,0.1,1.4,0.4,2.1 c0.5,1.2,1,2.4,1.5,3.6c-0.7,0.2-1.1,0-1.6-0.2c-1.4-0.5-2.7-1.1-4.2-0.9c-0.6,0.1-1.2,0.2-1.4,0.8c-0.2,0.7,0.2,1.1,0.6,1.5 c0.7,0.7,1.7,1,2.6,1.2c1.5,0.3,2.9,0.6,4.4,0.9c0.5,0.1,1,0.2,1.4,0.7c-1.4,1.1-3.1,1.5-4.4,2.5c0.1,0.2,0.2,0.4,0.3,0.5 c0.6,0.3,1.2,0.5,1.5,1.2c0.1,0,0.2,0,0.3,0c1.1,0.1,1.8-0.8,2.9-0.9c0,0.9-0.6,1.8-0.2,2.7c0.5,0.4,1.1,0.7,1.6,1.1 c0.8-0.9,1.4-0.8,1.9,0.3c0.1,0.2,0.2,0.3,0.3,0.5c0.3,0.3,0.5,0.6,0.9,0.8c0.3,0.2,0.5,0.4,0.8,0.6c0.5,0,0.9,0.1,1.2,0.5 C205.6,213.2,206.5,213.9,207.6,214z M286,196.5c0.1-0.2,0.3-0.3,0.6-0.3c0.1-0.2,0.4-0.3,0.6-0.3c0.1-0.2,0.4-0.3,0.6-0.3 c0.4-0.5,0.9-0.7,1.5-0.8c0.4-0.4,0.9-0.6,1.4-0.6c0.1-0.2,0.3-0.3,0.5-0.3c0,0,0-0.1,0-0.1c0.1-0.3,0.5-0.4,0.6-0.7 c1.5-2.1,1.5-2.1,3.3-1.2c0.7-0.2,1.2-0.8,2-0.8c0.4-0.4,0.9-0.5,1.4-0.7c0.2-0.6,0.8-0.5,1.3-0.8c0.2,0,0.4,0,0.5-0.1 c0.4-0.5,0.9-0.7,1.5-0.8c0.3-0.3,0.7-0.6,1.2-0.6c0.4-0.5,0.9-0.7,1.5-0.9c0.4-0.4,0.9-0.6,1.4-0.7c0.3-0.4,0.7-0.5,1.1-0.6 c0-0.1,0-0.1-0.1-0.1c-1.2-0.2-2.4-0.4-3.6-0.3c-1.6,0.2-3.3,0.4-4.9,0.6c-0.7,0.1-1.5,0.2-2.5,0.1c1.6-1.3,3.1-2.4,4.5-3.5 c1.5-1.1,2.9-2.3,4.1-3.7c0.2-0.2,0.4-0.5,0.2-0.8c-0.2-0.2-0.4-0.2-0.7-0.1c-0.5,0.2-1.1,0.4-1.6,0.7c-1.6,1-3.2,2-4.7,3 c-0.2-0.2-0.1-0.4-0.1-0.6c-0.1-0.9-0.6-1.2-1.4-0.7c-0.2,0.1-0.5,0.3-0.7,0.6c-0.6,0.6-1.1,1.2-1.6,1.9c-0.7,1-0.7,0.9-1.7,0.2 c-0.8-0.6-1.7-1-2.6-1.2c-0.9-0.1-1.4,0.4-1.2,1.3c0.2,0.8,0.5,1.5,1,2.1c0.3,0.4,0.7,0.7,0.8,1.2c-0.2,0.3-0.4,0.3-0.6,0.3 c-2.6,0.2-5,1.3-7.4,2c-0.6,0.2-1.5,0.4-1.4,1.2c0.1,0.7,1.1,0.5,1.6,0.6c0.8,0.2,1.6-0.1,2.4,0.1c-0.3,0.5-0.7,0.7-1,0.9 c-1.1,0.8-2.2,1.6-2.8,2.9c-0.3,0.5-0.4,1,0.1,1.5c0.5,0.5,1,0.6,1.6,0.2c0.6-0.3,1.2-0.7,2-1.1c-0.1,0.6-0.2,1.2-0.1,1.8 c0,0.1,0.1,0.1,0.1,0.1c0.1-0.1,0.2-0.2,0.3-0.2C285.1,196.7,285.5,196.5,286,196.5z M193.4,136.2c-0.9,1.7-1.4,3.5-2.2,5.2 c-0.6-0.2-0.6-0.8-1.1-1c-0.2,0.1-0.3,0.2-0.5,0.3c-0.3,0.8-0.8,1.5-1.4,2.1c0,0.2-0.1,0.4-0.3,0.5c0,0.4-0.3,0.7-0.6,0.9 c0,0.4-0.3,0.7-0.6,0.9c-0.2,0.8-0.7,1.4-1.2,2c-0.3,0.7-0.6,1.4-0.9,2c0.9,0.1,1.9-0.1,2.8,0.2c0.1,0.3-0.1,0.5-0.2,0.6 c-1,1.8-2,3.7-2.7,5.7c-0.4,1.2-0.2,1.9,0.7,2.4c0.7,0.4,1.4,0.2,2.3-0.8c0.7-0.7,1.1-1.6,1.5-2.5c0.1-0.3,0.2-0.7,0.7-0.6 c0.2,0.4,0.4,0.9,0.6,1.3c0.2,0.4,0.4,0.9,0.7,1.3c0.5,0.8,1.1,1.5,2.2,1.4c0.8-0.1,1.3-1.1,1.4-2.4c0.1-1.5-0.3-3-0.6-4.5 c-0.2-0.7-0.3-1.4-0.5-2.1c1.6-0.1,3-0.2,4.4-0.3c0.6,0,1.2-0.1,1.7-0.4c0.9-0.5,1.3-1.1,1.2-1.9c-0.1-0.7-0.8-1.5-1.6-1.7 c-0.7-0.1-1.4-0.3-2.2-0.3c-1.1-0.1-2.3-0.2-3.5-0.3c0.9-2.2,1.8-4.3,2.7-6.4c1-2.4,2-4.7,2.4-7.3c-0.5,0.2-0.6,0.8-1.1,0.9 c-0.1,0.3-0.2,0.5-0.5,0.6c-0.1,0.1-0.2,0.2-0.3,0.3c-0.1,0.1-0.2,0.2-0.3,0.3c-0.1,0.1-0.2,0.2-0.3,0.3c-0.1,0.4-0.3,0.7-0.7,0.8 c-0.1,0.3-0.3,0.5-0.6,0.6c0,0.3-0.2,0.5-0.6,0.6c0,0.3-0.2,0.5-0.6,0.6c-0.1,0.1-0.2,0.2-0.3,0.3 C193.4,135.9,193.4,136.1,193.4,136.2z M73.9,173.3c-3.5-2.9-6.2-6.2-7.8-10.5c-0.5-1.2-1-1.4-2.3-1.2c-3.5,0.7-6.9,1.5-10.5,1.7 c-0.7,0-1.4-0.1-2.2,0.2c0.1,0.7,0.5,1.3,0.8,1.8c1.3,2.3,2.1,4.8,2.3,7.5c0,1,0.1,1.1,1.2,0.9c4.7-0.7,9.4-0.9,14.1-0.6 c1.2,0.1,2.3,0.1,3.3,0.8c0.4-0.1,0.9-0.2,1.3-0.3C74,173.5,74,173.4,73.9,173.3z M333.2,269.6c0.5,0,1-0.1,1.4-0.4 c0.4-0.2,0.6-0.5,0.6-0.9c0-0.5-0.3-0.7-0.7-0.8c-0.4-0.2-0.7-0.2-1.1-0.2c-0.8,0-1.6,0-2.3,0.2c-0.6,0.2-0.9-0.2-1.1-0.6 c-0.2-0.4-0.1-0.8,0.1-1.3c0.5-1.1,0.9-2.2,1.4-3.4c0.7-1.8,1.4-3.6,1.8-5.5c0.1-0.5,0.1-1-0.5-1.2c-0.5-0.2-0.8,0.2-1.1,0.5 c-0.2,0.2-0.3,0.4-0.4,0.6c-0.4,0.8-0.8,1.7-1.2,2.5c-0.4,0.8-0.5,1.7-1.4,2.7c0-1.3,0-2.2,0-3.2c0-0.8-0.1-1.6-0.4-2.3 c-0.2-0.3-0.4-0.6-0.8-0.6c-0.4,0-0.6,0.3-0.7,0.6c-0.1,0.3-0.1,0.6-0.1,0.9c-0.1,0.8-0.2,1.7-0.3,2.5c-0.4,0-0.4-0.3-0.5-0.5 c-0.4-0.6-0.7-1.2-1.1-1.7c-0.3-0.5-0.8-0.7-1.4-0.5c-0.5,0.2-0.5,0.7-0.5,1.1c0,0.5,0.1,1,0.3,1.6c0.8,1.9,1.8,3.7,2.8,5.5 c0.3,0.5,0.5,0.9,0.5,1.5c0.1,1.1,0,1.2-1.2,1.3c-2.2,0.3-4.5,0.3-6.7,0.8c-0.6,0.1-1.2,0.4-1.1,1.1c0.1,0.7,0.6,1,1.3,0.9 c1.1,0,2.2,0.1,3.3-0.1c1.2-0.2,2.4-0.3,3.6-0.1c-0.5,1.9-1.1,3.6-1.7,5.3c-0.4,1.2-0.9,2.5-1.3,3.7c-0.1,0.4-0.4,1.1,0.1,1.3 c0.7,0.3,0.9-0.5,1.1-0.9c0.5-1,0.9-2,1.4-3c0.4-0.9,0.6-1.8,1.3-2.6c0.3,0.2,0.3,0.5,0.3,0.7c0,1.8,0.2,3.5,0.4,5.2 c0.1,0.9,0.2,1.8,0.4,2.7c0.1,0.3,0.3,0.7,0.6,0.7c0.5,0,0.6-0.4,0.7-0.8c0-0.2,0-0.5,0-0.7c0-2.6,0.4-5.1,0.1-7.7 c-0.1-1.2,0-2.4,0-3.5c0.7,0.7,1.1,1.4,1.5,2.1c0.9,1.5,1.8,3,2.8,4.4c0.3,0.5,0.7,1,1.3,1.1c0.5,0.1,0.8,0,0.8-0.6 c0-0.7-0.3-1.3-0.6-1.9c-1-2.1-2.1-4.1-3.2-6.3C332.2,269.5,332.7,269.7,333.2,269.6z M172.6,113.3c0.1-0.5,0.7-0.6,1-0.9 c0.5-0.2,0.7-0.9,1.3-0.9c0.1-0.3,0.3-0.5,0.6-0.6c0.1-0.1,0.2-0.2,0.3-0.3c0.1-0.3,0.3-0.5,0.6-0.6c0.4-0.7,1-1.2,1.7-1.5 c0.1-0.1,0.2-0.2,0.3-0.3c0-0.1,0-0.1-0.1-0.2c-0.6-0.2-1.2,0.1-1.9-0.2c1.2-1.2,2.4-2.3,3.2-3.7c0.2-0.3,0.4-0.6,0.5-0.9 c0.2-0.6-0.2-1-0.9-0.9c-0.8,0.1-1.6,0.5-2.2,1c-1.4,1-2.8,2.1-4.2,3.1c-0.7,0.5-1.4,1.1-2.3,1.4c-0.2-0.6,0.2-1,0.1-1.5 c0-0.5-0.1-1-0.2-1.4c-0.2-0.7-0.5-0.8-1.2-0.4c-0.8,0.6-1,1.5-1.5,2.3c-0.3,0.6-0.4,1.5-0.9,1.8c-0.5,0.3-1.2-0.3-1.9-0.5 c-1-0.3-1.2-0.1-1.1,1c0.1,0.9,0.8,1.5,1.1,2.4c-0.9,0.4-1.8,0.7-2.7,1c-1.5,0.6-3.1,1.1-4.5,2c-0.8,0.5-1,1.1-0.8,1.9 c0.2,0.7,0.8,1,1.7,1.1c0.4,0,0.9-0.2,1.4,0.2c-0.5,0.5-0.8,0.9-1.2,1.4c-0.7,0.9-1.4,1.8-2.2,2.8c-0.4,0.5-0.5,0.9-0.1,1.4 c0.4,0.6,0.9,0.5,1.4,0.3c0.4-0.2,0.8-0.3,1.2-0.6c1.4-0.9,2.8-2,4.1-3.1c0.7-0.6,0.7-0.6,1.3,0.2c0.2-0.1,0.3-0.2,0.5-0.3 c0.4-0.5,0.8-1,1.4-1.2c0.2-0.6,0.9-0.7,1.2-1.3c0.5-0.5,0.2-1.9,1.6-1.4c0.1-0.1,0.3-0.1,0.4-0.2c0.1-0.3,0.3-0.5,0.6-0.6 c0.3-0.4,0.6-0.8,1.1-0.9c0.1-0.3,0.3-0.5,0.6-0.6c0.1-0.1,0.2-0.2,0.3-0.2C172.6,113.4,172.6,113.4,172.6,113.3z M386.5,152.3 c-0.2-0.7-0.6-1.2-1.3-1.4c-0.8-0.2-1.1,0.5-1.3,1.1c-0.4,1-0.8,2-1.1,3c-0.9,3.1-2.9,5.3-5.6,6.9c-1.3,0.8-1.4,1.7-0.2,2.6 c2.9,2.2,4.6,5.1,5.3,8.6c0.1,0.4,0.2,0.7,0.4,1.1c0.2,0.5,0.6,0.9,1.2,0.8c0.6,0,0.8-0.4,1-0.9c0.4-1,0.8-1.9,1.2-2.8 c1-2.8,2.6-5.3,5-7.1c1.5-1.1,1.2-3-0.5-3.7c-0.5-0.2-1.1-0.5-1.5-0.8c-1.7-1.1-2.6-2.6-2.7-4.6c0-0.6,0.1-1.2,0.2-1.9 C386.6,152.9,386.6,152.6,386.5,152.3z M15.8,162.6c0.1,0.1,0.2,0.2,0.3,0.3c0.7,0.3,1.2,0.9,1.7,1.5c0.2,0.1,0.5,0.2,0.7,0.4 c0.2,0,0.4,0.1,0.4,0.3c0.2,0.2,0.4,0.4,0.5,0.5c0.4,0.1,0.7,0.2,0.9,0.6c0.4,0,0.7,0.3,0.9,0.5c0.2,0,0.4,0.1,0.5,0.3 c0.8,0.2,1.4,0.6,2,1.2c0.4,0,0.7,0.2,0.9,0.5c0.4,0.1,0.7,0.2,1.1,0.3c0.1-0.9-0.3-1.6-0.6-2.4c-0.3-1-0.7-1.9-1.1-2.9 c0.7-0.1,1,0.3,1.3,0.5c1.5,0.8,3,1.7,4.4,2.5c0.5,0.3,1,0.5,1.5,0.5c0.5,0,1.1,0,1.4-0.6c0.2-0.5,0.2-1-0.1-1.5 c-0.4-0.5-0.7-0.9-1.2-1.2c-1.4-0.9-2.7-1.7-4-2.6c-0.4-0.3-0.7-0.5-1.1-0.8c0.4-0.6,0.9-0.9,1.4-1.2c0.8-0.5,1.5-1.1,2.1-1.8 c0.3-0.3,0.5-1,0-1.1c-1-0.2-0.7-0.8-0.7-1.4c0-0.6-0.3-0.8-0.9-0.7c-0.4,0.1-0.6,0.3-0.8,0.6c-0.7,0.6-1.4,1.3-2,2.1 c-0.3,0.3-0.5,0.7-1,0.7c-0.2-0.3,0-0.6,0.1-0.8c0.2-1,0.6-2,0.8-3.1c0.1-0.7,0.2-1.4-0.4-1.7c-0.7-0.3-1.1,0.5-1.3,1.1 c-0.6,1.2-1.1,2.5-1.6,3.8c-0.1,0.3-0.2,0.8-0.5,0.8c-0.5,0.1-0.8-0.3-1-0.7c-0.5-0.8-1-1.6-1.5-2.3c-0.4-0.5-0.8-1-1.3-1.4 c-0.4-0.3-0.8-0.7-1.3-0.4c-0.5,0.2-0.4,0.7-0.4,1.2c0,0.4,0.2,0.8-0.2,1.2c-0.9-0.4-1.8-0.7-2.8-0.7c-0.5,0-1,0-1.2,0.6 c-0.2,0.4,0,0.8,0.3,1.2c0.5,0.6,1.1,1.1,1.7,1.5c1.4,0.9,2.7,1.9,4.3,2.5c-0.9,0.9-2.1,0.9-2.9,1.7c0,0.1,0,0.2,0,0.3 c0.1,0.1,0.2,0.2,0.3,0.3C15.5,162.4,15.7,162.5,15.8,162.6z M430.7,281c0.2,1,0.5,2,0.9,2.9c1.6,3.7,4.2,6.4,8.2,7.5 c3.4,0.9,7.6-0.3,8.9-4.9c0.5-1.9,0.4-3.9-0.2-5.8c-0.4-1.2-1-1.7-1.7-1.5c-0.7,0.2-0.9,0.8-0.7,2.1c0.3,1.6-0.4,3.1-1.8,3.6 c-0.8,0.3-1.7,0.5-2.6,0.4c-3.6-0.4-6.9-3.7-7.4-7.3c-0.3-2,0.9-3.9,2.9-4.4c0.6-0.2,1.2-0.4,1.2-1.1c0-0.7-0.6-1-1.3-1.2 c-0.5-0.1-1-0.1-1.4,0c-1,0.3-2,0.8-2.7,1.6c-1.6,1.8-2.4,4-2.4,6.7C430.6,279.9,430.6,280.5,430.7,281z M368.1,240.6 c-2,0.2-3.8,1.2-5.9,1.6c0.5-1.2,1.4-2,2-2.9c0.5-0.7,1-1.3,1.3-2.1c0.2-0.3,0.3-0.6,0-0.9c-0.3-0.3-0.8-0.3-1.1,0 c-0.3,0.3-0.6,0.6-0.9,0.9c-0.8,1.1-1.6,2.2-2.5,3.3c-0.8-0.3-0.3-0.9-0.3-1.4c0-0.2,0.1-0.4,0.1-0.6c0.2-1.1,0.3-2.2,0.4-3.3 c0.1-0.6,0-1.3-0.7-1.4c-0.6-0.1-1.2,0.2-1.5,0.9c-0.1,0.3-0.3,0.5-0.4,0.8c-0.3,1.5-0.8,2.9-0.9,4.4c-0.1,0.7-0.3,1.4-0.4,2.2 c-0.7-0.2-1-0.6-1.4-0.9c-0.8-0.6-1.4-1.3-2.3-1.8c-0.4-0.2-0.9-0.4-1.2,0c-0.4,0.4-0.4,0.9-0.1,1.3c0.3,0.6,0.8,1.2,1.3,1.7 c0.6,0.6,1.4,1.1,1.9,1.9c-1,0.4-2,0.7-3,1c-0.8,0.3-1.5,0.6-2.2,1.1c-0.5,0.4-0.5,0.9-0.4,1.5c0.2,0.6,0.7,0.6,1.2,0.6 c0.5,0,0.9-0.2,1.4-0.3c1-0.3,1.9-0.8,3.2-0.7c-0.6,0.8-1,1.4-1.5,2c-1.1,1.6-2.4,3.1-3.2,4.9c-0.1,0.2-0.4,0.5-0.1,0.8 c0.3,0.3,0.6,0,0.9-0.2c0.2-0.2,0.3-0.4,0.5-0.5c1.4-1.4,2.5-3,3.7-4.5c0.2-0.2,0.3-0.6,0.8-0.5c0,0.5-0.1,1.1-0.1,1.6 c-0.1,1.7-0.2,3.4,0,5.1c0,0.5,0.2,1.1,0.8,1.2c0.6,0,0.7-0.6,0.9-1c0.3-1,0.4-2,0.5-3c0.2-1.9,0.5-3.7,0.8-5.5 c0.6,0,0.8,0.3,1.1,0.5c1.1,0.9,2.3,1.5,3.5,2.1c0.2,0.1,0.5,0.2,0.7,0c0.2-0.2,0.1-0.4,0.1-0.7c0-0.3-0.2-0.5-0.4-0.8 c-0.5-0.6-1-1.2-1.6-1.7c-0.5-0.5-1.1-0.9-1.5-1.6c1-0.4,2-0.7,2.9-1c0.9-0.3,1.7-0.8,2.6-0.8c0,0,0.1,0,0.1,0s0.1,0,0.1,0 c0-0.8,0-1.6,0.6-2.3C368.1,241.2,368.1,240.9,368.1,240.6z M297.3,71.7c0.1-0.5,0.3-1,0.6-1.5c0.1-0.6,0.3-1.2,0.6-1.7 c0.6-2.5,1.2-5,1.8-7.4c0.6-2.1,0.8-4.2,0.7-6.3c0-0.4,0.2-0.9-0.1-1.2c-0.1,0.6-0.1,1.1-0.6,1.6c-2.8,3-5.7,5.8-9.4,7.6 c-1.6,0.8-1.7,1-1.3,2.7c0.6,2.5,0.9,5,0.8,7.6c-0.1,2.9-0.2,5.7-0.7,8.6c-0.1,0.6,0.2,0.9,0.7,1.1c0.9-1.2,1.6-2.6,2.7-3.8 c0.4-0.9,0.8-1.7,1.5-2.3c0.2-0.8,0.7-1.4,1.1-2.1c0.1-0.4,0.3-0.8,0.6-1.2c0-0.2,0.1-0.4,0.3-0.6C296.8,72.4,296.9,72,297.3,71.7z M32.7,113.4c0.5,0.6,1.1,0.5,1.6-0.1c0.2-0.3,0.3-0.7,0.5-1.1c0.3-0.6,0.2-1.3,0.7-1.9c0.2,0.3,0.4,0.6,0.7,0.8 c0.4,0.4,0.9,0.7,1.6,0.5c0.7-0.3,0.9-0.9,0.9-1.5c0-0.2-0.1-0.5-0.1-0.7c-0.2-1.4-0.7-2.7-1-4.1c-0.2-0.9-0.1-1.1,0.9-1 c1.1,0.1,2.1,0.2,3.2,0.4c0.9,0.2,1.9,0.4,2.9,0.1c1.1-0.3,1.6-1,1.6-1.8c-0.1-0.8-0.6-1.3-1.7-1.6c-0.9-0.2-1.8-0.1-2.8-0.1 c-0.7,0-1.5,0-2.4,0c0.4-0.6,0.6-1,0.9-1.4c1-1.5,1.9-3,2.6-4.6c0.2-0.5,0.9-1.1,0.3-1.6c-0.7-0.5-1.1,0.3-1.5,0.7 c-1.3,1.2-2.3,2.6-3.6,4c0.1-1.1,0.1-2,0.2-3c0-0.4,0.1-0.9-0.4-1c-0.5-0.2-0.8,0.3-1,0.7c-0.2,0.2-0.2,0.5-0.3,0.8 c-0.3,0.8-0.6,1.6-0.9,2.5c-0.4-0.2-0.5-0.6-0.8-0.8c-0.2-0.2-0.5-0.5-0.9-0.4c-0.4,0.1-0.6,0.5-0.6,0.9c0,0.4,0,0.9,0,1.3 c0,0.5,0.2,1.2,0,1.6c-0.3,0.5-1,0.4-1.6,0.5c-0.1,0-0.2,0-0.3,0.1c-0.4,0.2-0.8,0.4-0.8,0.9c0,0.5,0.4,0.7,0.7,0.8 c0.7,0.3,1.4,0.5,2.2,0.8c-0.3,0.5-0.6,0.9-0.8,1.3c-1.4,2-2.6,4.1-3.4,6.4c-0.2,0.7,0,1.2,0.5,1.7c0.6,0.5,1.2,0.4,1.8,0 c0.3-0.2,0.6-0.5,0.9-0.8C32.4,113,32.5,113.2,32.7,113.4z M218.5,36.4c1.8-0.1,3.6,0,5.4,0.1c4.8,0.4,9.4,1.2,13.8,3 c0.9,0.4,1.2,0.3,1.5-0.7c0.5-1.7,1.3-3.2,2.2-4.7c1.4-2.4,3-4.6,4.6-6.9c-0.6,0-1.2,0.1-1.8,0.1c-2.3,0.8-4.6,1.3-7,1.7 c-0.8,0.6-1.7,0.7-2.7,0.8c-1.7,0.7-3.4,1.4-5.2,1.8c-0.7,0.6-1.5,0.7-2.3,0.9c-0.6,0.5-1.3,0.6-2,0.9c-1.7,0.6-3.3,1.6-5.1,2 c-0.4,0.4-0.9,0.5-1.4,0.6C218.5,36.2,218.5,36.3,218.5,36.4z M427,139c-0.9-0.6-1.7-1.2-2.5-2c-0.7-0.7-1.4-1.3-2.5-1.4 c-1.3-0.1-1.9,0.6-1.6,1.9c0.2,0.9,0.8,1.5,1.2,2.3c1.5,2.6,1.9,5.3,0.8,8.1c-0.2,0.4-0.3,0.8-0.3,1.3c-0.2,1.7,0.4,2.5,2.1,2.9 c2,0.5,4,0.7,5.8,1.7c0.3,0.2,0.7,0.4,1.1,0.5c0.7,0,0.6,0.6,0.8,1c0.3-0.9,0.1-1.8,0.2-2.7c0.1-2.5,0.3-5.1-0.3-7.6 c-0.4-1.7-0.6-3.4-1.5-5C429.1,140.1,428.1,139.7,427,139z M283.8,31.5c-0.3,0.2-0.5,0.8-1,0.6c-0.4-0.2-0.1-0.7-0.1-1 c0-0.1,0-0.1,0-0.2c-0.6-0.1-1.2-0.2-1.8-0.6c-0.4-0.1-0.8-0.2-1.1-0.3c0.2,0.7,0.4,1.4,0.2,2.1c-0.7-0.1-1.3-0.3-1.9-0.5 c-1.1-0.4-2.3-0.7-3.5-1.1c-0.3-0.1-0.7-0.2-0.9,0.1c-0.4,0.4,0,0.7,0.1,1.1c0.2,0.4,0.4,0.6,0.7,0.9c0.7,0.7,1.6,1.3,2.5,1.7 c0.8,0.4,1.6,0.8,2.5,1.3c-0.7,0.7-1.3,1.2-1.9,1.9c-0.7,0.8-1.6,1.5-2.1,2.6c-0.3,0.6-0.3,1.2,0.2,1.6c0.4,0.4,1,0.6,1.6,0.3 c0.3-0.1,0.5-0.4,1-0.3c0.1,0.8-0.1,1.6-0.1,2.4c0,0.8,0.3,1.4,0.9,1.6c0.6,0.2,1.1,0,1.6-0.9c0.4-0.7,0.7-1.6,1-2.4 c0.7,0.3,1.1,1.1,1.9,0.6c0.7-0.4,0.9-1.1,0.8-1.9c0-0.3,0-0.7,0-1c-0.1-0.8-0.3-1.7-0.5-2.7c0.6,0.2,1.1,0.4,1.6,0.5 c1.6,0.5,3.2,1.3,4.8,1.6c1.4,0.2,1.8,0,2-1.5c-0.2-1-0.9-1.5-1.7-2c-1.7-0.8-3.3-1.7-5.1-2.3c0.4-0.4,0.9-0.6,1.1-1 c0-0.1,0.1-0.1,0.1-0.2c-0.5-0.1-1.1-0.1-1.4-0.6c-0.4-0.1-0.9-0.2-1.2-0.6C284,31.5,283.9,31.5,283.8,31.5z M71.6,68.4 c-0.5,0.1-0.8,0.3-1.2,0.3c-1.2,0.1-2.2,0.6-3.3,1c-0.2,0.1-0.4,0.2-0.5,0.5c0,0.3,0.2,0.4,0.4,0.5c0.5,0.3,1.1,0.4,1.7,0.3 c0.8-0.1,1.7-0.3,2.8-0.1c-0.4,0.3-0.6,0.5-0.8,0.7c-1.4,1.2-2.7,2.5-3.9,3.9c-0.5,0.6-1.1,1.2-0.6,2.1c0.3,0.5,1,0.2,2-0.5 c0.5-0.4,1-1,1.7-1.3c0.2,0.5-0.3,0.9-0.2,1.3c0.1,0,0.1,0.1,0.2,0.1c0.1-0.1,0.2-0.2,0.3-0.3c0.3-0.6,0.9-0.7,1.4-0.9 c0.2-0.3,0.5-0.5,0.9-0.6c0.2-0.4,0.6-0.4,0.9-0.7c0.4-0.5,0.6-1.1,0.8-1.7c0.2-0.5,0.4-0.8,0.9-0.3c0.2,0.2,0.4,0.4,0.8,0.4 c0.4-0.2,0.9-0.4,1.3-0.6c0.3-0.3,0.6-0.5,0.9-0.8c0.1-0.5-0.6-0.8-0.5-1.4c1.2-0.2,2.4-0.4,3.5-0.5c0.2-0.1,0.5-0.2,0.7-0.3 c0.2-0.3,0.5-0.5,0.9-0.6c0.4-0.4,0.8-0.8,1.5-0.8c0.1-0.1,0.2-0.2,0.3-0.3c0.3-0.3,0.7-0.6,1.1-0.6c0.1-0.1,0.2-0.3,0.3-0.4 c-0.4-0.8-1-1-1.9-0.9c-1.1,0.2-2.2,0.3-3.6,0.5c0.7-0.8,1.2-1.3,1.7-1.8c0.8-0.8,1.5-1.6,2.1-2.6c0.2-0.4,0.5-0.8,0.2-1.2 c-0.4-0.5-0.9-0.2-1.3,0.1c-0.7,0.4-1.4,0.8-2.1,1.3c-1.4,1.1-2.8,2.3-4.1,3.6c-0.4-0.5,0.1-1.1-0.3-1.6c-0.4,0-0.6,0.2-0.8,0.5 c-0.4,0.6-0.8,1.1-1.1,1.7c-0.6,1-0.6,1-1.4,0.1c-0.6-0.7-1.4-1.3-2.2-1.9c-0.5,0.2-0.9,0.3-1.2,0.8C70.4,66.6,71.2,67.4,71.6,68.4z M109.2,52.4c0.3-0.4,0.6-0.8,1.2-0.9c0.2-0.3,0.5-0.5,0.9-0.6c0.3-0.5,0.7-0.8,1.2-0.9c0.2-0.3,0.5-0.5,0.9-0.6 c0.1-0.2,0.3-0.3,0.5-0.3c0-0.1,0-0.1-0.1-0.1c-2.1-0.2-4.2-0.1-6.2,0.3c-1.3,0.3-2.6,0.4-3.9,0.2c-1.1-0.1-2.1-0.2-3.2-0.3 c-2-0.3-3.9,1.1-3.6,2.8c0.3,1.6-0.4,3-0.8,4.4c-0.6,1.9-1.6,3.7-1.9,5.6c0.2,0,0.3,0,0.5,0c0.2-0.3,0.5-0.5,0.9-0.6 c0.1-0.2,0.3-0.3,0.6-0.3c0.2-0.3,0.5-0.5,0.9-0.6c0.4-0.5,0.9-0.8,1.4-0.9c0.2-0.3,0.5-0.5,0.9-0.6c0.2-0.4,0.5-0.5,0.9-0.6 c0.1-0.2,0.3-0.3,0.5-0.3c0.2-0.4,0.5-0.5,0.9-0.6c0.1-0.1,0.2-0.2,0.3-0.3c0.2-0.3,0.5-0.5,0.9-0.6c0.2-0.4,0.5-0.6,0.9-0.6 c0.2-0.3,0.5-0.5,0.9-0.6c0.2-0.3,0.5-0.5,0.9-0.6c0.1-0.2,0.3-0.3,0.6-0.3c0.1-0.1,0.2-0.2,0.3-0.3c0.2-0.3,0.5-0.5,0.9-0.6 c0.2-0.4,0.5-0.5,0.9-0.6c0.1-0.1,0.2-0.2,0.3-0.3C108.5,52.7,108.8,52.5,109.2,52.4z M392,210.8c0.2-0.5,0.8-0.6,0.9-1.1 c-0.6-0.2-1.3-0.1-1.9,0c-1.9,0.2-3.8,0.9-5.6,1.5c-0.3,0.1-0.6,0.4-0.9,0c0.2-1,0.4-2,0.6-3c0.2-1.1,0.5-2.3,0.6-3.4 c0-0.5-0.1-1-0.6-1.2c-0.6-0.2-1.1,0.1-1.4,0.5c-0.3,0.5-0.6,1-0.7,1.6c-0.3,1.2-0.6,2.4-0.9,3.7c-0.6-0.3-0.6-0.8-0.8-1.3 c-0.2-0.4-0.5-1-0.9-0.8c-0.7,0.3-1.1,0-1.6-0.3c-0.5-0.2-1.1-0.4-1.5,0.1c-0.4,0.5-0.2,1,0.1,1.5c0.2,0.3,0.4,0.6,0.6,0.8 c0.5,0.6,1.1,1.3,1.6,1.9c0.3,0.4,0.7,0.8,0.6,1.4c-0.8,0.3-1.5,0.6-2.3,0.8c-1.2,0.3-2.3,0.8-3.4,1.3c-0.6,0.3-1,0.7-0.8,1.4 c0.2,0.6,0.8,0.8,1.4,0.7c1.1-0.3,2.2-0.6,3.4-0.9c0.8-0.2,1.5-0.7,2.4-0.7c0.2,1.1-0.4,2.1-0.4,3.2c-0.1,1.1-0.4,2.1-0.3,3.2 c0,0,0.1,0,0.1,0s0.1,0,0.1,0c0.2-0.5,0.7-0.9,1.2-1.2c0.4-0.6,0.9-1.1,1.5-1.4c0.2-0.5,0.6-0.8,1.1-0.9c0-0.1,0-0.1-0.1-0.2 c-0.1-0.6,0-1.1-0.4-1.8c0.5,0.4,0.6,1,1.2,0.9c0.3-0.1,0.5-0.3,0.8-0.4c0.1-0.3,0.3-0.5,0.6-0.6c0.1-0.1,0.2-0.3,0.2-0.4 c0.1-0.3,0-0.5-0.2-0.7c-0.9-0.9-0.3-1.3,0.6-1.5c0.7-0.2,1.4-0.4,2-0.8c0.2-0.1,0.4-0.3,0.7-0.3c0.1,0,0.2-0.1,0.3-0.2 c0.4-0.2,0.7-0.6,1.1-0.5c0.1,0,0.1,0,0.2,0c0.1-0.1,0.2-0.2,0.3-0.3C391.5,211.1,391.7,210.9,392,210.8z M319.4,235.3 c1.1-0.9,2.1-1.9,3.1-2.9c1.7-1.7,3.5-3.4,5.9-4c1.4-0.4,1.9-1.4,1.7-2.9c-0.1-0.8-0.2-1.6-0.1-2.5c0.2-1.8,0.8-3.4,1.7-4.9 c0.6-1,0.7-1.9-0.1-2.8c-0.1,0-0.2,0-0.3,0c0,0.4-0.2,0.5-0.6,0.6c-1.7,1.8-3.5,3.5-5.2,5.3c-0.1,0.3-0.3,0.5-0.6,0.6 c-0.4,0.7-0.8,1.5-1.5,2c-0.1,0.4-0.2,0.7-0.6,0.9c-0.3,0.7-0.6,1.3-1.2,1.8c-0.1,0.4-0.2,0.7-0.6,0.9c0,0.5-0.3,0.8-0.6,1.1 c-0.5,1.4-1.1,2.7-2,3.9c0,0.3-0.1,0.6-0.3,0.8c0,0.2-0.1,0.4-0.3,0.6c0,0.2,0,0.5-0.2,0.6c0,0.2-0.1,0.4-0.3,0.6 c-0.1,0.3,0,0.6-0.4,0.8c0,0.1,0,0.2,0.1,0.3C318,236.5,318.7,235.9,319.4,235.3z M399.1,120c0.1-0.1,0.2-0.2,0.2-0.2 c0.1-0.6,0.7-1.4-0.2-1.8c-0.7-0.3-1,0.6-1.3,1.1c-0.7,0.8-0.9,1.8-1.8,2.6c-0.2-0.5-0.4-1-0.6-1.4c-0.2-0.4-0.3-1.1-0.9-0.9 c-0.5,0.1-0.3,0.7-0.3,1.2c0,1,0.1,1.9,0.3,2.8c-0.5,0-0.7-0.2-1-0.3c-1.4-0.7-2.8-1.4-4.2-2.1c-0.4-0.2-0.8-0.1-1,0.2 c-0.3,0.3-0.2,0.7,0,1.1c0.2,0.3,0.5,0.5,0.7,0.7c0.7,0.5,1.3,0.9,2.1,1.3c0.8,0.4,1.8,0.6,2.6,1.5c-0.4,0.4-0.8,0.8-1.2,1.1 c-1,1-2,1.9-2.9,2.9c-0.3,0.3-0.9,0.7-0.5,1.2c0.4,0.5,0.9-0.1,1.3-0.3c1-0.6,1.9-1.3,2.8-2.1c0.3,0.5-0.1,1,0.4,1.5 c1.2-0.4,1.1-1.9,2-2.5c0.4,0.2,0.4,0.5,0.4,0.8c0.1,0.7,0.5,1.4,0.8,2c0.1,0.3,0.5,0.5,0.8,0.4c0.3-0.1,0.4-0.4,0.4-0.7 c0-0.5,0-1-0.1-1.4c-0.1-0.4-0.3-0.7,0-1.2c1.6,0.3,3,1.4,4.9,1.1c-1.3-1.9-3.5-2.3-5.1-3.6c1.4-1.2,2.8-2.3,4.1-3.5 c0.9-0.8,1.8-1.5,2.6-2.4c0.2-0.3,0.5-0.6,0.2-1c-0.3-0.5-0.8-0.4-1.2-0.2c-0.4,0.2-0.9,0.4-1.3,0.7c-0.8,0.7-1.7,1.3-2.5,1.9 C399.1,120.4,398.9,120.3,399.1,120z M70.3,41.1c-0.2,0.2-0.4,0.3-0.6,0.5c-0.1,0.4-0.5,0.6-0.6,1c-0.7,0.8-1.3,1.5-2.1,2.2 c-0.7,0.7-0.9,1.4-0.3,2.2c0.8,1.2,1.2,2.4,1.3,3.8c0,0.7,0.4,1.3,1.2,1.5c0.7,0.2,1.2-0.1,1.6-0.7c0.8-1,1.8-1.7,3-2.2 c1.3-0.5,1.6-1.7,0.7-2.8c-0.4-0.6-0.8-1.2-1.1-1.8c-0.7-1.4-1.1-2.8-1.4-4.3c-0.2,0-0.3,0-0.5,0C71.3,41,70.8,41.1,70.3,41.1z M451,289.9c0.2,0.8,0.5,1.5,0.6,2.2c0.3,1.2,0.3,2.5,0.3,3.8c0,1.2,0.2,1.4,1.3,1.7c0.2,0.1,0.5,0.1,0.7,0.1 c1.3,0.2,2.5,0.6,3.6,1.4c0.3,0.2,0.6,0.5,1,0.5c0.6,0.1,1-0.3,0.8-0.9c-0.7-2.2-1.4-4.4-1.3-6.8c0-0.6-0.3-1.1-0.9-1.2 c-1.7-0.2-3.2-0.8-4.7-1.6c-0.3-0.1-0.6-0.1-0.9-0.2C451.1,288.8,450.8,289.1,451,289.9z M15,161.6C15,161.6,14.9,161.6,15,161.6 c-0.1,0.1,0,0.1,0,0.1l0.1,0L15,161.6z M129.6,101.9c-0.1,0-0.1-0.1-0.2-0.1c0,0.1,0,0.2,0.1,0.2 C129.6,102.1,129.7,102.1,129.6,101.9z M46.1,104C46.1,104,46.2,104,46.1,104c0,0.1,0.1,0.1,0.1,0.1L46.1,104L46.1,104z M72.3,40.3 c-0.1-0.1-0.1-0.1-0.2-0.1c0,0.1,0,0.1,0,0.2C72.3,40.5,72.3,40.5,72.3,40.3z M127.1,104.2c0,0,0,0.1,0,0.1c0,0,0.1,0,0.1,0l0-0.1 L127.1,104.2z M192.8,136.7C192.8,136.7,192.8,136.8,192.8,136.7c0,0.1,0.1,0.1,0.1,0.1L192.8,136.7L192.8,136.7z" fill="#ffffff"/></g><g id="change3_1"><path d="M371.1,279c-2.6,0.1-5.2-0.1-7.7-0.5c-2.9-0.4-5.7-1.3-8.4-2.3c-3.7-1.4-7.2-3.4-10.3-5.9 c-2.9-2.4-5.4-5.1-7.3-8.4c-1.3-2.3-2-4.7-2.5-7.3c-0.5-2.7-0.5-5.5-0.2-8.3c0.4-3.4,1.4-6.5,2.7-9.7c2-5.1,4.6-9.7,8-13.9 c2.5-3.1,5.3-5.9,8.3-8.5c4.8-4.2,9.8-8.1,14.9-11.9c4.2-3.2,8.3-6.4,12.4-9.7c6-5,11-10.8,15.1-17.5c2.3-3.8,4.5-7.6,6.3-11.7 c1.3-3,2.4-6.2,2.3-9.6c0-3.5-1.2-6.5-4.2-8.7c-3.2-2.4-6.8-3.9-10.7-4.7c-2.7-0.6-5.5-0.8-8.2-1c-0.9-0.1-1.7-0.2-2.5-0.7 c-0.4-0.2-0.6-0.5-0.1-0.9c0.8-0.6,1.7-1,2.7-1.1c2.4-0.1,4.8-0.5,7.3-0.3c5.6,0.4,10.6,2.4,14.8,6c3.1,2.7,4.3,6.2,4.7,10.2 c0.4,4.5-0.7,8.6-2.5,12.6c-2.5,5.5-5.5,10.7-9.3,15.4c-3.7,4.7-7.9,9.1-12.5,13c-5.8,4.8-11.6,9.6-17.4,14.4 c-5.4,4.5-10.5,9.4-15.3,14.5c-3.5,3.8-6.4,7.9-8.4,12.7c-1.6,3.9-3,7.8-3.4,12c-0.4,4.1-0.1,8.2,1.7,12c1.2,2.5,2.9,4.6,4.9,6.5 c3.1,3,6.7,5.3,10.7,7c3.6,1.5,7.4,2.4,11.3,2.9c2.1,0.2,4.2,0.6,6.4,0.6c0.6,0,1.3,0.2,1.9,0.4c0.6,0.2,1.1,0.6,1.1,1.2 c0,0.7-0.6,1-1.1,1.1c-0.9,0.2-1.7,0.2-2.6,0.2C372.8,279,371.9,279,371.1,279z M247.9,45.1c-7,1.8-13.7,4.7-19.9,8.4 c-5,2.9-9.8,5.9-14.7,8.8c-4.6,2.8-9,5.9-13.4,8.9c-3.7,2.6-7.3,5.2-10.7,8c-4,3.2-8,6.5-12.1,9.6c-1.7,1.3-3.4,2.6-5,4 c-0.4,0.3-0.8,0.7-1,1.2c-0.4,1.1,0.2,1.7,1.3,1.6c0.6-0.1,1.1-0.4,1.6-0.7c1.6-1.1,3.2-2.3,4.9-3.4c4.9-3.3,9.6-6.7,14.4-10.1 c5.1-3.6,10-7.4,15.2-10.8c4.3-2.9,8.9-5.4,13.3-8.1c6.9-4.2,13.8-8.4,21.4-11.4c2.8-1.1,5.5-2.2,8.5-2.6c2.6-0.4,5.2-0.3,7.7,0.2 c3.2,0.6,6,2.2,8.5,4.3c2.1,1.9,3.9,4.2,4.5,7c0.6,2.8,0.3,5.6-1,8.2c-1.3,2.8-2.9,5.5-4.7,8.1c-1.8,2.7-3.6,5.5-5.7,8.1 c-3.4,4.3-6.8,8.6-10.6,12.6c-0.6,0.6-1,1.3-1.2,2.1c-0.1,0.5,0,0.9,0.4,1.2c0.4,0.3,0.8,0.2,1.1,0c0.5-0.3,1.1-0.7,1.5-1.1 c2.9-3.5,6.1-6.8,8.8-10.5c1.8-2.5,3.6-5,5.4-7.6c3.7-5.2,7.2-10.5,9.5-16.5c1.8-4.7,1.1-8.9-1.5-13.1c-2-3.2-5.1-5-8.5-6.3 c-2.8-1.1-5.8-1.3-8.8-1.2C253.8,44,250.8,44.3,247.9,45.1z M71.2,64.8c0.2-0.1,0.4-0.3,0.6-0.4c4-2.4,8-4.8,12-7.1 c5-2.9,9.9-6.1,14.8-9.2c4.9-3.1,9.6-6.5,14.2-9.9c5.9-4.4,11.4-9.2,16.3-14.7c1.9-2.2,3.4-4.6,4.6-7.2c0.4-0.9,0.2-2-0.3-2.4 c-0.6-0.5-1.7-0.3-2.5,0.4c-0.1,0.1-0.3,0.3-0.4,0.4c-0.6,0.8-1.3,1.7-1.9,2.5c-1.4,2-2.8,3.9-4.4,5.8c-2.1,2.4-4.4,4.6-6.7,6.9 c-6.4,6.4-13.5,11.8-21,16.7c-2.5,1.6-5.1,3-7.6,4.6c-4.4,2.9-9.1,5.4-13.7,8c-5.4,3-10.8,6.1-16,9.5c-5.1,3.3-10.1,6.8-14.8,10.6 c-2.4,2-4.9,4-7.1,6.2c-2.9,2.8-5.4,5.9-8.1,8.9c-2,2.3-3.9,4.7-5.4,7.4c-3.2,5.8-5.8,11.9-6.7,18.6c-0.5,3.9-0.5,7.7,0.2,11.6 c0.9,5,3,9.4,5.9,13.5c2.2,3.1,5.3,5.4,8.4,7.5c1,0.7,2.2,1,3.4,1.2c0.6,0.1,1.1,0,1.6-0.2c0.6-0.2,0.8-0.6,0.6-1.3 c-0.2-0.6-0.5-1-0.9-1.5c-0.6-0.8-1.4-1.3-2.3-1.8c-2.4-1.6-4.5-3.5-6.5-5.6c-2.9-3-5.2-6.4-6.1-10.6c-1-4.3-1.1-8.7-0.5-13 c0.1-0.8,0.2-1.5,0.4-2.3c0.6-2.4,1.3-4.8,2-7.1c1.7-5.2,4.2-10.1,7.5-14.4c5.3-6.8,11.6-12.7,18.6-17.8c5.8-4.2,11.8-8,17.9-11.6 c0.9-0.5,1.7-1.3,2.8-1.6C70.6,65.5,71,65.2,71.2,64.8z M247.6,193.7c6.1-1.9,12.1-3.9,17.9-6.5c5.2-2.2,10.4-4.3,15.5-6.7 c6.7-3.3,13.4-6.6,19.9-10.3c6.2-3.6,12.4-7.3,18.6-10.9c4.7-2.7,9.4-5.3,14.1-7.9c2.6-1.4,5.3-2.6,7.8-4.3c0.7-0.5,1.3-1,1.9-1.6 c0.4-0.4,0.5-1,0.3-1.5c-0.2-0.6-0.7-0.6-1.2-0.5c-0.5,0-1,0.1-1.4,0.2c-1.8,0.7-3.6,1.6-5.2,2.5c-2.3,1.4-4.6,2.7-6.9,4.1 c-2.5,1.5-5.2,2.8-7.7,4.3c-5.7,3.4-11.5,6.6-17.3,9.9c-2.7,1.5-5.5,2.9-8.2,4.4c-5.9,3.3-12,6.3-18.2,9.1c-4.4,2-8.9,3.7-13.3,5.6 c-6.1,2.6-12.2,5-18.6,6.8c-5.3,1.5-10.6,2.9-16.2,2.8c-0.1,0-0.3,0-0.4,0c-3.5,0.4-6.9-0.1-10.2-1.1c-1.3-0.4-2.6-0.8-3.9-1.1 c-0.7-0.2-1.4-0.1-2.1,0.2c-0.9,0.4-1.1,1.2-0.8,2.1c0.2,0.5,0.6,1,1.1,1.3c0.9,0.6,1.9,1.2,3,1.5c3.2,0.8,6.4,1.4,9.8,1.1 C233.1,197.4,240.5,195.9,247.6,193.7z M75.7,153.2c-3.3,0.8-6.7,1.7-10.1,2c-2.7,0.2-5.3,0.5-8,0.4c-2.5-0.1-4.9-0.4-7.4-0.9 c-1.8-0.4-3.5-0.8-5.2-1.5c-0.6-0.2-1.1-0.2-1.4,0.3c-0.4,0.5-0.1,1,0.2,1.5c0.5,0.7,1.3,1.2,2.1,1.5c1.3,0.5,2.6,0.9,3.9,1.2 c2.8,0.7,5.7,1,8.6,1.1c4.5,0.2,8.8-0.3,13.2-1.2c2.7-0.5,5.4-1.3,8.1-1.9c5.1-1.2,10-3.1,14.8-5.2c5.9-2.6,11.4-6,17-9.2 c4.3-2.5,8.3-5.3,12.4-8.2c6.2-4.4,12.4-8.9,18.4-13.6c3.4-2.7,6.9-5.3,10-8.2c0.9-0.8,1.2-1.7,0.8-2.3c-0.4-0.5-1.4-0.6-2.4-0.1 c-1.7,0.8-3.3,1.8-4.8,3c-3.8,3.1-7.8,5.9-11.8,8.8c-5.6,4-11.2,8-16.8,12c-4.3,3.1-8.7,6.1-13.3,8.9c-2.4,1.4-4.9,2.6-7.3,4 c-3.6,2-7.4,3.7-11.3,5.1c-2,0.7-3.9,1.4-6,1.6c0,0,0,0,0,0c-0.1,0.1-0.2,0.2-0.4,0.2c-0.4,0.1-0.7,0.1-1.1,0.2 C77.3,153,76.5,153,75.7,153.2z M206.6,161.6c0.1,0.5,0.4,1,1,1.1c0.5,0.1,0.9-0.2,1.2-0.6c0.2-0.3,0.4-0.6,0.5-0.9 c0.4-0.9,0.7-1.8,1-2.7c0.9-3.1,1.9-6.2,3.2-9.2c2.3-5.3,5.2-10.2,8.2-15c2.7-4.2,5.5-8.3,8.8-12.1c3.1-3.7,6.4-7.1,9.7-10.7 c1.4-1.5,2.9-3,3.8-4.9c0.3-0.6,0.4-1.1-0.2-1.6c-0.5-0.4-1-0.4-1.6,0c-1.1,0.6-1.9,1.5-2.8,2.3c-3.1,3-6,6-8.7,9.3 c-2.1,2.5-4.3,5-6.3,7.6c-3.3,4.1-6.2,8.4-9,12.8c-2.8,4.3-5.4,8.6-7,13.5c-0.9,2.9-1.8,5.8-1.9,9 C206.4,160.2,206.5,160.9,206.6,161.6z M436.8,327.6c0.5-0.1,1.1-0.3,1.2-0.9c0.1-0.7-0.2-1.1-0.7-1.4c-0.4-0.2-0.8-0.4-1.2-0.5 c-0.8-0.2-1.7-0.4-2.6-0.6c-2.6-0.5-5.1-1.1-7.5-2.1c-3.9-1.7-7.1-4.4-10-7.4c-0.6-0.6-1.2-1.3-1.8-1.9c-0.4-0.3-0.8-0.5-1.3-0.2 c-0.4,0.3-0.4,0.8-0.2,1.2c0.2,0.4,0.4,0.9,0.7,1.3c1.9,2.8,4.4,5,7.2,6.9c4,2.7,8.6,4,13.2,5.2c0.8,0.2,1.6,0.6,2.1,0.5 C436.3,327.6,436.6,327.6,436.8,327.6z M367,136.1c-5,0.7-9.6,2.7-13.9,5.2c-0.6,0.3-1.1,0.7-1.6,1.3c-0.6,0.7-0.4,1.1,0.5,1.3 c0.9,0.2,1.9-0.1,2.7-0.4c4.4-1.6,9-2.8,13.5-4c1-0.3,2.1-0.6,3.1-0.9c0.8-0.3,1.3-0.9,1.2-1.4c-0.2-0.8-0.8-1-1.6-1.1 c-0.6,0-1.2-0.1-1.8-0.1C368.5,136,367.7,136,367,136.1z M204.8,182.5c0.3,1.3,1.1,2.4,2.1,3.3c0.6,0.5,1.2,0.7,1.9,0.4 c0.7-0.3,0.9-1,0.9-1.7c0-0.9-0.3-1.8-0.6-2.7c-1.1-2.7-1.6-5.5-1.7-8.4c0-1.3-0.3-2.6-0.6-3.9c-0.1-0.3-0.2-0.6-0.6-0.7 c-0.4-0.1-0.6,0.2-0.8,0.5c-0.3,0.4-0.5,0.8-0.6,1.3c-0.6,1.8-0.7,3.6-0.8,6.3C203.8,178.2,204.3,180.4,204.8,182.5z M463.8,330.3 c-0.6,0.1-1,0.5-1,1.1c-0.1,0.6,0.3,0.9,0.8,1.1c1,0.7,2.2,0.7,3.4,0.7c1.6-0.1,3.2,0,4.8,0.3c0.7,0.1,1.4,0.1,2,0 c1.4-0.3,1.7-1.4,0.6-2.3c-1.3-1.1-2.7-2.1-3.8-2C467.8,329.3,465.8,330,463.8,330.3z M159.4,104.6c0.2,0,0.5-0.1,0.7-0.2 c0.5-0.2,1-0.4,1.4-0.8c1.4-1.3,2.9-2.5,4.2-4c0.4-0.5,0.5-1,0.2-1.6c-0.4-0.5-0.9-0.7-1.5-0.6c-0.1,0-0.3,0.1-0.4,0.2 c-1.9,0.8-3.5,2-5.2,3.2c-0.6,0.4-1.1,1.1-1.1,1.7C157.5,103.8,158.2,104.6,159.4,104.6z M387.4,277.4c-0.5,0.1-0.8,0.3-0.9,0.8 c-0.1,0.5,0,0.9,0.5,1.1c0.3,0.1,0.5,0.3,0.8,0.4c2.4,0.7,4.8,1.4,7.2,2.1c0.6,0.2,1.2,0.1,1.7-0.2c0.9-0.4,1.1-1.3,0.6-2 c-0.5-0.7-1.2-1.1-2.1-1.2c-1-0.1-2-0.4-3-0.6c-1.2-0.2-2.3-0.6-3.4-0.6C388.3,277.3,387.8,277.4,387.4,277.4z M451.1,323.8 c-0.5,0.7-1.3,0.8-2.4,0.4c-0.5-0.2-1-0.5-1.5-0.8c-1.6-0.8-3.3-1.3-5.1-1.5c-3.9-0.4-7.7-1.1-11.3-2.7c-3.2-1.5-5.9-3.7-8.3-6.3 c-1.8-1.9-3.6-3.9-5.4-5.9c-0.6-0.7-1.4-1.2-2.2-1.6c-1-0.5-1.8-1.3-2.7-2c-0.7-0.6-0.4-1.6,0.4-1.7c0.9-0.1,1.8-0.4,2.8-0.1 c1.3,0.3,2.6,0,4-0.1c-0.1-1-0.4-1.9-0.8-2.7c-0.2-0.4-0.4-0.9-0.3-1.4c0-0.7,0.4-1.2,1.1-1.4c0.6-0.2,1.1,0.1,1.5,0.6 c0.3,0.4,0.4,0.8,0.4,1.2c0.1,0.8,0.2,1.5,0.3,2.3c0.1,1,0.1,1,1.1,0.9c1.9-0.2,3.9-0.3,5.8,0.1c0.5,0.1,0.7-0.1,0.8-0.6 c0.2-0.9,0.4-1.8,0.5-2.7c0.1-0.6,0.3-1.1,0.8-1.5c0.9-0.8,2.3-0.3,2.4,0.9c0.1,0.7,0.1,1.3-0.2,2c-0.3,0.8-0.6,1.5-0.9,2.3 c-0.2,0.5,0,0.9,0.5,1.1c1.3,0.5,2.5,1.2,3.7,2c0.5,0.3,0.8,0.3,1.2-0.1c1.5-1.3,3.3-1.8,5-2.7c0.5-0.2,0.9-0.3,1.4-0.2 c1.2,0.2,1.9,1.5,1.2,2.5c-0.4,0.7-1.1,1.2-1.9,1.5c-1.1,0.4-2.2,0.9-3.4,1.6c1.2,1.4,2.3,2.8,3.2,4.3c0.5,0.9,0.7,1,1.6,0.6 c0.9-0.3,1.7-0.6,2.5-1.1c0.6-0.4,1.2-0.6,1.9-0.6c0.7,0,1.3,0.2,1.5,0.9c0.3,0.7,0.2,1.3-0.4,1.9c-0.6,0.6-1.4,0.9-2.1,1.2 c-0.9,0.3-1.9,0.6-2.7,1.2c0.9,1.8,2,3.3,3.5,4.6c0.6,0.5,1.2,1,1.8,1.5C451.4,322.4,451.6,323.2,451.1,323.8z M437.6,311.1 c0-0.8-0.2-1.5-0.8-2.2c-1.6-1.8-4.4-2.4-6.5-1.3c-2.5,1.3-3.3,4.7-1.5,6.7c1.5,1.7,3.5,2,5.4,1.3 C436.3,315,437.7,313.1,437.6,311.1z" fill="#0c1e2c"/></g></svg>