<?xml version="1.0" encoding="UTF-8" standalone="no"?><svg xmlns="http://www.w3.org/2000/svg" xmlns:xlink="http://www.w3.org/1999/xlink" fill="#000000" height="471.2" preserveAspectRatio="xMidYMid meet" version="1" viewBox="-33.2 -0.4 534.6 471.2" width="534.6" zoomAndPan="magnify"><g id="change1_1"><path d="M474.73,123.61c-0.69-2-1.36-3.94-1.99-5.82c-1.23-3.68-1.77-7.54-1.83-11.53c-0.03-2,0.07-4.02,0.27-6.08 c0.1-1.03,0.22-2.06,0.37-3.1c0.29-2.08,0.68-4.18,1.13-6.3c0.68-3.18,1.5-6.39,2.41-9.61c0.6-2.15,1.23-4.31,1.88-6.47 c0.32-1.08,0.65-2.16,0.97-3.24c0.11-0.36,0.22-0.72,0.32-1.08c-0.07,0.43-0.19,0.92-0.17,0.98c0.04,0.17,0.72-1.25,1.81-2.97 c1.04-1.73,2.36-3.81,2.72-5.23c0.68-2.73,2.92-5.88,2.55-8.53c-0.01-0.03,0.1-0.24,0.17-0.34c1.72-2.61,2.68-5.44,2.03-8.42 c-0.09-0.41,0-1.07,0.11-1.59c0.58-3.2,1.57-6.46,1.23-9.95c-0.15-1.11,0.45-0.81,0.75-1.1c0,0.01-0.01,0.02-0.01,0.03l0.03-0.05 c0,0.01-0.01,0-0.02,0.01c0.7-2.91,0.87-6.29-1.57-8.74l-0.02,0.11V24.5c-0.52-4.12-3.28-7.47-6.6-9.24 c-0.38-0.2-0.73-0.8-1.05-1.24c-0.97-1.18-2.38-1.82-3.5-2.52c-3.09-2.09-6.82-2.51-9.63-3.79c-1.22-0.59-2.45-1.03-3.67-1.52 c-1.22-0.38-2.44-0.69-3.69-0.97c-1.25-0.26-2.53-0.51-3.84-0.57c-1.31,0-2.67,0.07-4.07,0.27c-1.21,0.18-2.44,0.1-3.68,0.02 c-1.24-0.05-2.51-0.18-3.8-0.3c-1.28-0.12-2.59-0.23-3.88-0.23c-1.29,0.06-2.57,0.23-3.83,0.58c-0.19,0.05-0.56,0-0.75-0.07 c-2.38-0.9-4.75-0.44-7.15,0.41c-1.72,0.58-4.26,0.65-4.98,0.21c-2.13-1.25-4.9-0.69-7.32,0.17c-1.84,0.63-3.38,1.1-5.36,1.33 c-1.28,0.16-2.58,0.55-3.88,0.82c-3.46,0.77-7.16,1.04-10.36,2.4c-0.11,0.05-0.46,0.03-0.7,0.04c-2.77,0.17-5.74,0.92-8.57,1.47 c-3.88,0.74-7.41,2.18-11.02,3.01c-6.05,1.5-9.62,3.1-12.53,4.28c-0.86,0.25-1.72,0.49-2.56,0.74c-0.3,0.09-0.59,0.18-0.89,0.27 c-1.29,0.39-2.54,0.78-3.75,1.16c-0.41,0.13-0.81,0.26-1.21,0.39c-1.41,0.46-2.77,0.91-4.04,1.35c-0.02,0.01-0.03,0.01-0.05,0.02 c-0.05,0.02-0.1,0.03-0.16,0.05c-0.96,0.33-1.92,0.62-2.88,0.87c-0.36,0.09-0.72,0.15-1.08,0.23c-0.66,0.15-1.32,0.31-1.99,0.42 c-0.41,0.07-0.83,0.11-1.24,0.17c-0.62,0.09-1.24,0.18-1.86,0.24c-0.43,0.04-0.86,0.05-1.29,0.08c-0.63,0.04-1.25,0.09-1.88,0.1 c-0.42,0.01-0.84,0-1.26,0c-0.66,0-1.32,0.01-1.99-0.02c-0.39-0.01-0.79-0.04-1.18-0.07c-0.72-0.04-1.44-0.07-2.18-0.14 c-0.33-0.03-0.68-0.07-1.01-0.1c-0.82-0.08-1.65-0.16-2.49-0.27c-0.23-0.03-0.47-0.06-0.7-0.09c-0.98-0.13-1.97-0.26-2.98-0.42 c-0.06-0.01-0.12-0.02-0.17-0.03c-23.87-3.72-56.35-14.55-116.26-3.65c-2.91,0.53-5.89,1.11-8.93,1.75 c-0.52,0.11-1.02,0.21-1.54,0.32c-1.5,0.32-3.01,0.65-4.54,1c-2.14,0.48-4.3,0.99-6.5,1.52c-1.02,0.25-2.06,0.51-3.1,0.77 c-2.69,0.68-5.42,1.39-8.21,2.15c-0.51,0.14-1.04,0.29-1.56,0.44c-3.24,0.9-6.53,1.84-9.91,2.86c0,0-0.08-0.04-0.21-0.11 c-0.05-0.02-0.1-0.05-0.17-0.08c0,0,0,0-0.01,0s-0.03-0.01-0.04-0.02c0.02-0.07,0.03-0.14,0.05-0.2c0.08,0.01,0.11-0.01,0.02-0.08 c0.1-0.42,0.19-0.83,0.29-1.26c-0.07-0.24-0.15-0.46-0.27-0.73c-0.1,0.53-0.27,1.07-0.32,1.6c-0.01,0.06,0.03,0.14,0.05,0.22 c-1.02-0.63-6.1-3.42-7.26-3.83c-2.45-0.86-5.8-2.23-7.74-3.32c-5.98-3.41-12.7-5.52-18.74-8.6l0.03,0.02 c-3.02-0.81-6.02-3.05-9.1-3.08c-0.16,0-0.74-0.32-0.96-0.5c-1.4-1.15-3.05-1.55-4.77-1.81c-2.26-0.36-4.33-1.17-6.31-2.3 c-1.69-0.91-3.39-1.65-5.38-1.69c-0.66-0.01-1.7-0.28-2.36-0.58c-2.48-1.14-5.04-2.16-7.8-2.76L89.5,1.08 c-1.41-0.26-2.85-0.5-4.26-0.82c-1.64-0.44-3.47-0.16-5.2-0.01c-1.83,0.11-3.25,0.34-4.85-0.07l0.04,0.01 c-2.12,1.06-4.88,0.95-7.11,0.55C62.48-0.37,56.9,0.77,51.2,2.12c-2.88,0.68-5.87,2.19-8.48,2.58c-2.47,0.19-4.5,1.57-6.38,2.88 c-0.94,0.67-1.74,1.58-2.6,2.34c-0.82,0.82-1.74,1.48-2.51,2.35c-1.21,1.29-2.58,2.56-3.55,4.14c-0.95,1.6-1.96,3.19-2.61,4.89 c-0.63,1.91-1.79,3.53-2.64,5.39c-0.76,1.89-1.61,3.86-1.9,6.08c-0.22,2.59-0.44,4.89-0.49,7.01c0.02,1.04,0.03,2.02,0.02,2.96 c-0.05,0.34-0.1,0.67-0.14,1.01c-0.02,0.14-0.02,0.29-0.03,0.43c-0.09,0.87-0.15,1.75-0.18,2.62c0,0.07,0,0.14,0,0.21 c-0.61,21.83,15.52,43.87,6.44,68.06c-0.15,0.4-0.27,0.8-0.44,1.2c-14.72,35.97-58.87,134.08,19.62,192.95 c45.11,33.84,68.99,50.73,88.02,67.16c1.1,0.95,2.18,1.9,3.25,2.85c0.05,0.05,0.1,0.09,0.16,0.14c1.03,0.92,2.05,1.83,3.06,2.76 c0.07,0.06,0.13,0.12,0.2,0.18c1,0.91,1.98,1.83,2.96,2.75c0.07,0.07,0.15,0.14,0.22,0.2c0.98,0.92,1.94,1.85,2.91,2.79 c0.07,0.07,0.15,0.14,0.22,0.21c1.01,0.99,2.03,1.98,3.04,3c0.01,0.01,0.02,0.02,0.03,0.03c3.12,3.12,6.24,6.39,9.44,9.88 c4.82,5.25,9.84,11.01,15.37,17.61c27.73,33.08,114.78,52.03,152.39,1.34c10.67-14.38,19.45-26.8,27.86-37.82 c0,0.01,0,0.01,0.01,0.02c8.91-11.66,17.48-21.76,27.39-30.88c0-0.02,0-0.03,0-0.05c13.71-12.6,30.1-23.38,53.97-33.99 c47.84-21.26,62.44-42.82,64.08-84.36C501.43,194.15,484.9,152.87,474.73,123.61z M164.12,30.91c-0.09-0.05-0.18-0.09-0.3-0.15 c-0.11-0.05-0.18-0.09-0.31-0.16c-0.14-0.07-0.31-0.16-0.48-0.24c0.42,0.14,0.81,0.28,1.04,0.34c0.03,0.07,0.06,0.15,0.08,0.22 C164.14,30.92,164.13,30.91,164.12,30.91z" fill="#ffde59"/></g><g id="change2_1"><path d="M19.81,46.84c-0.03-0.06,0.1-0.8,0.11-1.24v0.04c0.16-1.76,0.15-3.69,0.11-5.83 c0.05-2.12,0.27-4.42,0.49-7.01c0.29-2.22,1.14-4.2,1.9-6.08c0.85-1.86,2.01-3.49,2.64-5.39c0.65-1.7,1.66-3.29,2.61-4.89 c0.98-1.58,2.34-2.86,3.55-4.14c0.77-0.87,1.69-1.53,2.51-2.35c0.86-0.76,1.66-1.66,2.6-2.34c1.88-1.31,3.91-2.69,6.38-2.88 c2.61-0.39,5.61-1.91,8.48-2.58c5.7-1.35,11.28-2.48,16.91-1.41c2.23,0.4,4.99,0.51,7.11-0.55l-0.04-0.01 c1.59,0.41,3.02,0.18,4.85,0.07c1.73-0.15,3.55-0.43,5.2,0.01c1.41,0.31,2.85,0.56,4.26,0.82l4.12,0.98 c2.76,0.61,5.32,1.62,7.8,2.76c0.65,0.3,1.69,0.57,2.36,0.58c1.99,0.03,3.69,0.78,5.38,1.69c1.98,1.13,4.05,1.94,6.31,2.3 c1.71,0.26,3.37,0.66,4.77,1.81c0.22,0.18,0.81,0.5,0.96,0.5c3.08,0.04,6.08,2.27,9.1,3.08l-0.03-0.04 c6.04,3.07,12.76,5.19,18.74,8.6c1.94,1.09,5.3,2.45,7.74,3.32c1.17,0.41,6.26,3.21,7.27,3.84c-0.03-0.08-0.05-0.16-0.05-0.23 c0.05-0.53,0.22-1.07,0.32-1.6c0.11,0.26,0.18,0.48,0.26,0.72c-0.1,0.43-0.19,0.85-0.29,1.28c0.08,0.07,0.07,0.09-0.02,0.08 c-0.02,0.07-0.03,0.15-0.05,0.22c-0.02-0.08-0.05-0.17-0.09-0.25c-0.38-0.1-1.18-0.4-1.84-0.61l-0.04-0.02l0.08,0.04 c-3.06-0.84-6.89-1.61-12.97-3.85c-3.35-1.28-6.96-1.99-10.52-3.33c-2.58-1.03-5.43-1.82-7.82-3.03c-0.21-0.1-0.48-0.29-0.6-0.31 c-3.33-0.37-6.58-1.79-9.88-2.66c-1.23-0.31-2.52-0.51-3.68-0.9c-1.8-0.62-3.32-0.87-5.17-0.95c-2.46-0.12-5.04-0.63-6.48-2.51 c-0.49-0.64-2.79-1.39-4.51-1.39c-2.41,0.09-4.63-0.05-6.57-1.47c-0.16-0.11-0.49-0.23-0.67-0.22c-2.43,0.25-4.79-0.48-7.06-0.83 c-1.14-0.22-2.28-0.45-3.4-0.59c-1.08-0.02-2.15,0.06-3.15,0.33c-2.29,0.63-4.93,1.11-7.19,1.13c-2.35,0.06-4.61-0.11-7-0.24 c-1.38-0.05-2.8,0.29-4.23,0.69c-1.42,0.42-2.83,0.96-4.28,1.17c-1.06,0.17-2.06,0.88-3.24,0.87c-0.42,0-0.97-0.07-1.24,0.12 c-1.17,0.93-2.33,1.72-3.6,2.24c-1.2,0.63-2.48,1.03-4,1.15h-0.06l0.08,0.02c-0.65,1.17-1.48,1.78-2.49,2.13 c-1.01,0.32-2.01,0.64-3.18,0.82c-0.35-0.15-0.46-0.77-1.16-0.24c-2.03,1.75-4.53,2.97-6.4,5.09c-0.32,0.33-0.69,0.77-0.78,1.1 c-0.37,2.72-2.13,4.36-4.08,6.42c-0.08,0.07-0.22,0.24-0.22,0.27c0.07,1.25-0.77,2.35-1.34,3.68c-0.62,1.29-1.31,2.64-1.69,3.9 c-0.47,1.27-1.42,3.34-2.34,5.08C20.44,45.56,19.86,47,19.81,46.84z M39.38,18.53c0,0-0.01-0.01-0.01-0.01 c-0.01,0-0.02,0.01-0.04,0.01H39.38z M399.33,14.4c3.1-0.69,6.83-0.24,9.64-1.53c0.14-0.07,0.82-0.04,1.1,0.03 c1.78,0.43,3.45,0.04,5.14-0.43c2.23-0.59,4.49-0.64,6.75-0.36c1.9,0.2,3.74,0.35,5.62-0.27c0.62-0.21,1.69-0.3,2.4-0.2 c5.34,0.85,10.84,0.5,16.09,1.3c1.58,0.18,3.07,0.1,4.56,0.09c1.49-0.01,3.01,0.01,4.47,0.68l-0.03-0.02 c2.18-0.49,4.81,0.17,6.63,1.17c4.44,2.65,8.68,3.92,11.74,6.85c1.48,1.39,3.37,3.06,3.53,5c0.12,1.74,0.7,3.16,1.37,4.72 c0.59,1.57,1.28,3.24,1.42,5.06c0.27,2.92,0.56,6.09,0.85,9.25c0.24,3.61-1.25,7.15-1.34,11.49c-0.22,5.01-0.37,9.28-0.97,12.89 l0.01-0.04c-0.06,0.44-0.24,1.19-0.22,1.26c0.04,0.18,0.73-1.25,1.81-2.97c1.04-1.73,2.35-3.81,2.72-5.23 c0.67-2.73,2.92-5.88,2.55-8.53c-0.01-0.03,0.1-0.24,0.17-0.34c1.72-2.6,2.68-5.44,2.03-8.42c-0.09-0.41,0-1.07,0.11-1.59 c0.59-3.2,1.58-6.46,1.23-9.95c-0.15-1.1,0.44-0.82,0.74-1.09c0.7-2.91,0.88-6.31-1.57-8.76l-0.02,0.11v-0.09 c-0.52-4.12-3.28-7.47-6.6-9.24c-0.38-0.19-0.73-0.8-1.05-1.24c-0.97-1.18-2.38-1.81-3.5-2.52c-3.09-2.09-6.82-2.51-9.63-3.79 c-1.23-0.59-2.45-1.03-3.67-1.52c-1.22-0.38-2.44-0.69-3.69-0.97c-1.25-0.26-2.53-0.51-3.84-0.57c-1.31,0-2.66,0.07-4.07,0.27 c-1.21,0.18-2.43,0.1-3.68,0.02c-1.25-0.04-2.51-0.18-3.8-0.3c-1.28-0.12-2.58-0.23-3.88-0.23c-1.29,0.06-2.57,0.23-3.83,0.58 c-0.18,0.06-0.56,0-0.75-0.07c-2.38-0.91-4.75-0.44-7.15,0.41c-1.72,0.58-4.25,0.65-4.98,0.21c-2.12-1.26-4.89-0.69-7.32,0.17 c-1.84,0.63-3.39,1.1-5.36,1.33c-1.28,0.17-2.58,0.56-3.88,0.82c-3.46,0.76-7.16,1.04-10.36,2.4c-0.12,0.05-0.46,0.03-0.7,0.04 c-2.77,0.17-5.74,0.93-8.57,1.47c-3.88,0.74-7.41,2.18-11.02,3.01c-6.48,1.61-10.13,3.34-13.15,4.53h-0.01 c-1.17,0.42-2.83,0.91-1.68,0.79c1.2-0.16,7.11-1.01,8.33-1.33c2.54-0.76,6.18-1.54,8.45-1.75c7.02-0.55,14-2.26,20.89-2.6H399.33z M489.47,33.2c-0.01,0.01-0.02,0.01-0.02,0.02c0,0.01-0.01,0.02-0.01,0.03L489.47,33.2z M84.2,172.7c-2.29,2.04-3.67,3.22-5.06,4.48 c-0.52,0.49-1.01,1.18-1.51,1.81c1.5-1.11,2.96-2.17,4.5-3.41C82.41,175.36,82.97,174.38,84.2,172.7z M82.3,171.18 c-2.59,1.84-3.88,2.54-4.54,3.26c-0.89,0.97-1.35,1.96-2.01,2.95c1.21-0.91,2.4-1.65,3.58-2.74 C80.28,173.76,81.18,172.52,82.3,171.18z M88.75,175.27c0.2,0.09,0.84-0.27,1.31-0.41c0.48-0.71,1.09-1.52,1.34-2.06 c0.16-0.37-0.1-0.47-0.46-0.29c-0.53,0.31-1.36,0.93-2.59,1.76C88.48,174.7,88.45,175.14,88.75,175.27z M68.16,142.72 c-0.48,0.03-1.84,0.98-2.81,1.59c-0.22,0.53-0.43,1.01-0.69,1.57c0.59-0.19,1.16-0.37,1.74-0.54 C67.03,144.39,68.4,142.69,68.16,142.72z M94.62,167.48c-0.46-0.01-1.19,0.29-1.81,0.46c-0.63,0.92-1.86,2.48-1.69,2.61 c0.18,0.13,1.77-1.13,3.1-1.98C94.4,168.13,94.82,167.44,94.62,167.48z M89.79,153.53c0.58-0.72,0.89-1.34,1.64-2.5 c-1.46,1.42-2.56,2.39-3.54,3.37c-0.72,0.76-1.32,1.56-1.99,2.33c0.73-0.48,1.4-0.85,2.2-1.47 C88.58,154.86,89.43,154.02,89.79,153.53z M86.72,157.63c0.12-0.25-0.9,0.38-1.94,0.89c-0.68,1.18-1.33,2.09-1.35,2.44 c-0.02,0.19,1.03-0.6,1.62-0.94C85.64,159.19,86.45,158.19,86.72,157.63z M87.34,146.56c-1.44,1.08-2.32,1.6-3.16,2.36 c-0.44,0.43-0.98,1.3-1.45,1.95c0.77-0.45,1.44-0.77,2.31-1.45C85.42,149.12,86.1,148.09,87.34,146.56z M77.31,158.84 c1.19-1.01,2.37-1.98,3.53-3.08c0.5-0.47,1.01-1.18,1.45-1.73c-1.24,0.8-2.19,1.42-3.11,2L77.31,158.84z M97.14,180.39 c0.64-0.92,1.26-1.88,2.03-3.06l-2.96,2.08c-0.23,0.55-0.77,1.39-0.62,1.51C95.75,181.07,96.6,180.59,97.14,180.39z M63.56,143.7 c0.17-0.12,0.94-1.26,1.54-2.06c-0.88,0.34-1.48,0.52-2.09,0.77c-0.63,0.92-1.65,2.24-1.73,2.67 C61.24,145.33,62.67,144.36,63.56,143.7z M85.47,179.41c-1.14,1.12-2.14,2.28-3.18,3.47c0.78-0.6,1.5-1.18,2.4-1.9 c0.98-1.11,1.89-2.16,2.8-3.21C86.82,178.3,86.05,178.79,85.47,179.41z M89.07,185.15c0.75-0.5,1.82-1.45,2.78-2.29 c0.09-0.05,0.28-0.54,0.38-0.71c-1,0.65-1.95,1.27-2.87,1.85C89.25,184.43,88.78,185.33,89.07,185.15z M55.73,137.8 c0.28,0.12,0.98-0.14,1.47-0.26c0.21-0.48,0.44-0.98,0.68-1.59c-0.61,0.2-1.2,0.39-1.83,0.62C55.97,137,55.57,137.7,55.73,137.8z M61.5,141.06c0.21-0.36,0.64-1.01,0.54-1.08c-0.22-0.07-0.75,0.16-1.23,0.22c-0.32,0.59-0.76,1.26-0.62,1.27 C60.42,141.53,61.02,141.22,61.5,141.06z M63.44,128.22c-0.5,0.39-1,0.77-1.75,1.32c-0.51,0.65-1.11,1.41-1.77,2.16 c0.48-0.4,1.11-0.75,1.5-1.15C62.15,129.77,62.77,128.99,63.44,128.22z M98.56,182.45c0.79-0.72,1.56-1.47,2.51-2.37 c-0.2-0.06-0.35-0.17-0.43-0.11c-0.78,0.72-1.53,1.52-2.31,2.27C98.28,182.3,98.47,182.53,98.56,182.45z M109.43,167.34 c-0.59,0.43-1.17,0.75-1.75,1.32c-0.45,0.39-0.92,1.02-1.36,1.53c0.37-0.14,0.8-0.31,1-0.37C108.56,168.38,109,167.87,109.43,167.34 z M84.91,145.81c-0.8,0.58-1.39,0.96-1.8,1.39c-0.73,0.78-1.35,1.56-2.02,2.33c0.48-0.4,1.09-0.76,1.53-1.19 C83.36,147.59,84.03,146.78,84.91,145.81z M75.77,147.8c-0.8,0.62-1.39,0.96-1.8,1.39c-0.73,0.78-1.35,1.56-2.02,2.33 c0.48-0.4,1.09-0.76,1.53-1.19C74.22,149.58,74.89,148.77,75.77,147.8z M68.99,152.34c-0.45,0.36-0.98,0.74-1.75,1.32 c-0.51,0.65-1.11,1.41-1.77,2.16c0.48-0.4,1.11-0.75,1.5-1.15C67.71,153.88,68.35,153.12,68.99,152.34z M64.3,153.09 c0.75-0.75,1.51-1.6,2.43-2.55c-0.51,0.28-0.94,0.41-1.16,0.62c-0.73,0.76-1.45,1.56-2.18,2.37C63.7,153.4,64.05,153.3,64.3,153.09z M67.13,147.35c0.23,0.06,0.83-0.25,1.31-0.41c0.22-0.38,0.41-0.76,0.7-1.3c-0.48,0.19-1,0.4-1.49,0.65 C67.43,146.67,66.99,147.34,67.13,147.35z M75.89,172.52c-0.03,0.16-0.16,0.54-0.32,0.91c0.54-0.44,1.17-0.91,1.56-1.31 c0.52-0.61,0.88-1.16,1.26-1.72C77.89,170.83,77.34,171.27,75.89,172.52z M44.52,128.04c0.29-0.18,0.54-0.35,0.78-0.51 c0.12-0.28,0.31-0.62,0.3-0.77c-0.01-0.03-0.45,0.28-0.7,0.45C44.79,127.48,44.64,127.76,44.52,128.04z M47.28,129.71 c0.41-0.42,0.73-0.85,1.08-1.28c-0.24,0.16-0.49,0.33-0.78,0.51c-0.36,0.4-0.68,0.79-1.01,1.24 C46.79,130.04,47.14,129.85,47.28,129.71z M59.17,139.15c0.11-0.27,0.26-0.55,0.38-0.83c-0.28,0.18-0.53,0.36-0.77,0.51 c-0.14,0.26-0.29,0.58-0.31,0.77C58.48,139.63,58.92,139.32,59.17,139.15z M86.61,141.19c-0.43,0.38-0.87,0.68-1.3,1.09 c-0.15,0.12-0.3,0.44-0.46,0.65c0.44-0.37,0.88-0.68,1.28-1.01C86.3,141.66,86.46,141.44,86.61,141.19z M70.52,138.01 c-0.01-0.03-0.45,0.28-0.7,0.45c-0.11,0.27-0.26,0.55-0.38,0.83c0.29-0.18,0.54-0.35,0.78-0.51 C70.34,138.5,70.54,138.16,70.52,138.01z M72.9,139.33c-0.22,0.14-0.57,0.33-0.71,0.47c-0.44,0.46-0.76,0.85-1.08,1.28 c0.22-0.14,0.57-0.33,0.71-0.47C72.23,140.19,72.55,139.76,72.9,139.33z M71.43,147.85c-0.44,0.33-0.86,0.65-1.29,1.1 c-0.15,0.12-0.3,0.44-0.46,0.65c0.44-0.37,0.88-0.68,1.28-1.01C71.11,148.31,71.26,148.08,71.43,147.85z M69.61,155.97 c-0.24,0.16-0.49,0.33-0.78,0.51c-0.36,0.43-0.66,0.84-1.01,1.24c0.22-0.14,0.57-0.33,0.71-0.47 C68.94,156.83,69.26,156.4,69.61,155.97z M78.68,146.83c0.19-0.01,0.51-0.2,0.81-0.31c0.17-0.23,0.28-0.45,0.48-0.76 c-0.27,0.16-0.58,0.29-0.88,0.41C78.91,146.4,78.58,146.84,78.68,146.83z M75.37,152.74c0.17-0.23,0.28-0.45,0.48-0.76 c-0.3,0.15-0.61,0.28-0.88,0.41c-0.18,0.23-0.51,0.67-0.41,0.66C74.75,153.04,75.07,152.85,75.37,152.74z M102,176.74 c0.44-0.37,0.88-0.68,1.28-1.01c0.15-0.28,0.32-0.51,0.48-0.76c-0.47,0.38-0.89,0.7-1.3,1.12 C102.31,176.21,102.16,176.53,102,176.74z M87.68,172.36c-0.35,0.38-0.67,0.81-1.02,1.24c0.22-0.14,0.57-0.33,0.71-0.47 c0.41-0.42,0.73-0.85,1.08-1.28C88.19,171.99,87.95,172.14,87.68,172.36z M96.41,168.85c-0.44,0.37-0.88,0.68-1.28,1.01 c-0.15,0.28-0.32,0.51-0.48,0.76c0.43-0.38,0.87-0.68,1.3-1.09C96.12,169.39,96.27,169.11,96.41,168.85z M80.52,187.37 c0.31-0.13,0.58-0.29,0.89-0.42c0.18-0.23,0.51-0.67,0.41-0.66c-0.19,0.01-0.54,0.2-0.82,0.32 C80.83,186.84,80.72,187.06,80.52,187.37z M87.84,182.68c0.14-0.23,0.31-0.46,0.49-0.77c-0.31,0.13-0.58,0.29-0.89,0.42 c-0.18,0.23-0.51,0.67-0.41,0.66C87.22,182.98,87.54,182.79,87.84,182.68z M101.8,173.39c-0.44,0.37-0.88,0.68-1.28,1.01 c-0.15,0.28-0.32,0.51-0.48,0.76c0.43-0.38,0.87-0.68,1.3-1.09C101.51,173.92,101.66,173.64,101.8,173.39z M388.56,162.33 c1.5-5.29,1.55-5.19,1.7-0.63c0.02,0.92,0.36,1.02,0.58,1.5c0.22-1.38,0.61-3.06,0.63-4.08c0.1-2.35-0.27-3.59,0.07-6.74 c0.19-1.99-0.8-2.86-0.61-4.85c0.39-3.88,0.02-4.15-0.61-3.98c-0.17-0.02-0.61,2.5-1.26,4.15c-0.62,1.65-0.91,6.38-1.76,5.7 c-0.02-0.02-0.46,1.6-0.49,1.97c-0.07,2.64-0.12,5.36-0.07,7.64C386.84,165.61,387.76,165.1,388.56,162.33z M372.3,137.07 c0-2.53,0-5.07-0.07-7.45c-0.04-1.04-0.19-1.67-0.36-2.86c-0.48,1.17-0.87,1.77-1.16,2.84c-0.54,1.91-0.95,4.24-1.46,6.16 c-0.49,1.87-1.07,3.06-0.8,5.38c0.15,1.57-0.07,4.44-0.07,6.62c0,1.27,0.03,2.7,0.61,0.49c0.27-1,0.68-2.69,0.68-3.3 c0-1.97-0.2-3.47-0.27-5.34c-0.02-0.8,0.17-2.89,0.27-3.06c0.37-0.78,0.75-1.29,1.07-1.48c0.9-0.53,0.27,2.5,0,4.76 c-0.09,0.95-0.04,2.62-0.02,2.55c0.44-0.75,0.92-1.72,1.41-2.84C372.2,139.37,372.3,137.8,372.3,137.07z M340.17,140.81 c0.53,0.05,1.02-0.1,1.65-2.4c0.89-3.23,0.19-3.57,0.19-5.05c0-2.24-0.2-4.08-0.32-6.07c-0.02-0.43-0.12-0.67-0.19-0.99 c-0.17,0.73-0.39,1.43-0.49,2.11c-0.29,2.14-0.92,4.76-0.12,5.12c0.51,0.24,0.17,2.45-0.41,4.34 C340.09,139.14,339.17,140.81,340.17,140.81z M394.94,160.51c0.08-1.06-0.19-1.62-0.19-1.55c-0.9-1.05-1.31,1.33-1.6,3.93 c-0.15,1.16-0.15,2.88,0.02,2.98C393.63,166.07,394.82,162.43,394.94,160.51z M377.89,130.06c-0.02-0.7-0.12-1.31-0.19-1.99 c-0.48,1.41-0.92,2.4-1.21,3.76c-0.2,0.9-0.22,3.3-0.1,3.28c0.85-0.22,1.18,0.46,0.36,5.24c-0.27,1.38-0.37,2.06-0.37,2.33 c-0.46-0.09-0.73-0.31-1.02,0.1c-0.29,0.39-0.9,2.43-0.9,2.89c-0.02,1.58,0.1,2.79,0.17,4.15c0.53-1.8,1.09-3.59,2.11-7.06 c-0.07,0-0.12,0-0.19-0.02c0.17-0.39,0.46-1.28,0.63-1.6c0.71-1.19,1.58-1.57,1.07-5.14C378.01,134.4,377.99,132.05,377.89,130.06z M387.49,141.8c-0.6,3.01-0.99,4.78-1.36,6.62c-0.12,0.7-0.1,1.55-0.12,2.35c0.53-1.79,1.06-3.51,1.55-5.43 C387.66,145,387.51,143.89,387.49,141.8z M383.57,150.63c0.41-1.45,0.92-2.76,1.21-4.34c0.21-1.28,0.19-2.81,0.29-4.57 c-0.97,3.04-1.57,4.37-1.67,5.34C383.28,148.37,383.5,149.44,383.57,150.63z M393.49,140.01c-0.05-0.85-0.05-1.87-0.17-2.45 c-0.1-0.39-0.37-0.32-0.53,0.05c-0.24,0.56-0.53,1.55-1.02,2.96c0.36,0.27,0.6,0.63,0.92,0.56 C392.91,141.08,393.2,140.4,393.49,140.01z M356.66,127.47c-0.37,0.32-0.88,1.89-1.29,2.96c0.15,0.55,0.27,1.06,0.39,1.67 c0.37-0.51,0.71-0.99,1.07-1.48C356.76,129.48,356.83,127.3,356.66,127.47z M393.02,132.49c-0.12-0.46-0.19-1.26-0.35-1.12 c-0.36,0.27-0.77,0.95-1.16,1.46c0.05,1.12,0,3.11,0.22,3.11C391.95,135.94,392.46,133.97,393.02,132.49z M380.45,123.12 c0.03-0.92-0.09-1.6-0.19-2.98c-0.31,2.01-0.6,3.44-0.81,4.82c-0.12,1.05-0.12,2.04-0.19,3.06c0.29-0.83,0.6-1.53,0.87-2.5 C380.28,124.92,380.45,123.73,380.45,123.12z M380.46,128.24c-0.05-0.26-0.49,0.85-1.02,1.86c0.17,1.36,0.2,2.48,0.39,2.77 c0.1,0.17,0.46-1.09,0.73-1.72C380.53,130.13,380.58,128.85,380.46,128.24z M374.32,119.03c-0.51,1.72-0.9,2.66-1.12,3.78 c-0.09,0.6,0,1.62,0.03,2.43c0.34-0.83,0.68-1.48,0.97-2.55C374.32,122.23,374.25,121,374.32,119.03z M374.76,128.02 c-0.51,1.38-0.9,2.45-1.29,3.47l0.2,3.38c0.34-1.53,0.7-3.01,0.97-4.59C374.76,129.6,374.74,128.72,374.76,128.02z M401.55,141.53 c0.22,0.02,0.6-0.87,0.92-1.36c-0.05-1.11-0.12-2.25-0.22-3.66l-1.12,3.45C401.27,140.54,401.35,141.54,401.55,141.53z M350.03,141.25c0.34-1.05,0.97-2.33,1.07-3.16c0.17-1.5,0-2.74-0.02-4.1c-0.22,0.97-0.49,1.92-0.78,3.18 C350.2,138.56,350.1,139.89,350.03,141.25z M353.58,131.01c0.07-0.19,0-1.58,0-2.57c-0.51,0.8-0.88,1.31-1.21,1.86 c0.05,1.12,0.03,2.79,0.22,3.18C352.71,133.7,353.26,132.08,353.58,131.01z M393.17,143.89c-0.22,0.83-0.53,1.67-0.64,2.53 c-0.24,1.57-0.34,3.1-0.46,4.68c0.27-0.95,0.49-1.84,0.78-2.96C392.98,146.66,393.07,145.27,393.17,143.89z M398.87,148.84 c0.29-0.85,0.58-2.26,0.85-3.49c0.05-0.1-0.1-0.61-0.12-0.8c-0.41,1.11-0.8,2.18-1.19,3.2 C398.58,148.16,398.75,149.16,398.87,148.84z M343.77,130.98c0.29-0.07,0.7-0.7,1.02-1.09c-0.12-0.51-0.24-1.04-0.41-1.67 c-0.36,0.53-0.73,1.04-1.09,1.6C343.48,130.21,343.58,131.01,343.77,130.98z M355.96,137.53c0.07,0.56,0.12,1.68,0.19,1.58 c0.31-0.85,0.63-1.84,0.95-2.92c0.09-0.34,0.02-1.24,0.02-2.06C356.69,135.27,356.32,136.41,355.96,137.53z M352.99,138.92 c0.34-0.56,0.65-1.41,0.97-2.38c0.02-0.12,0-1.36,0-2.09c-0.38,1.09-0.8,2.19-1.19,3.26C352.82,138.19,352.89,139.09,352.99,138.92z M338.41,145.56c0.29-0.29,0.61-1.09,0.79-1.43c0.27-1.87,0.39-2.64,0.49-3.37l-1.38,3.15 C338.34,144.49,338.31,145.66,338.41,145.56z M372.57,142.6c-0.39,1.15-0.78,2.26-1.19,3.45c0.03,0.34-0.04,1.36,0.01,1.33 c0.31-0.46,0.67-0.92,0.99-1.82C372.5,145.2,372.5,143.62,372.57,142.6z M349.55,131.26c0.22-0.1,0.51-0.71,0.8-1.12 c-0.05-0.41-0.1-1.19-0.22-1.19c-0.22,0.07-0.51,0.58-0.85,0.93C349.38,130.53,349.43,131.33,349.55,131.26z M347.78,137.38 c0.14-1.04,0.24-2.18,0.41-3.49c-0.27,0.56-0.54,0.9-0.56,1.19c-0.14,1.07-0.22,2.16-0.31,3.2 C347.49,137.99,347.71,137.7,347.78,137.38z M344.19,118.71c-0.17,0.6-0.34,1.21-0.61,2.11c-0.02,0.82-0.05,1.8-0.12,2.79 c0.15-0.61,0.44-1.26,0.51-1.82C344.09,120.72,344.12,119.73,344.19,118.71z M329.85,136.44c0.1-1.89,0.12-2.57,0.15-3.22 c-0.22,0.7-0.49,1.31-0.61,2.11c-0.12,0.53-0.1,1.33-0.12,2.01C329.49,137,329.73,136.61,329.85,136.44z M404.84,140.98 c0.19-1.05,0.36-2.11,0.58-3.4c-0.19,0.07-0.39,0.07-0.41,0.17c-0.2,1.04-0.32,2.13-0.49,3.2 C404.52,141.03,404.82,141.1,404.84,140.98z M404.45,122.37c-0.22,0.7-0.49,1.31-0.61,2.11c-0.12,0.58-0.12,1.36-0.16,2.04 c0.22-0.34,0.46-0.73,0.58-0.9C404.38,123.73,404.43,123.05,404.45,122.37z M391.79,168.52c0.07-0.8,0-1.46,0-2.16 c-0.15,0.65-0.32,1.33-0.73,3.2c0.02,0.14,0.17,0.53,0.27,0.95C391.5,169.83,391.72,169.08,391.79,168.52z M371.31,122.06 c-0.12,1.07-0.15,2.06-0.22,3.08c0.15-0.61,0.41-1.26,0.51-1.87c0.15-1.05,0.2-2.09,0.32-3.4 C371.63,120.82,371.38,121.47,371.31,122.06z M364.97,132.23c0.15-0.61,0.41-1.26,0.51-1.87c0.15-1.05,0.2-2.09,0.32-3.4 c-0.26,0.97-0.53,1.6-0.61,2.19C365.07,130.22,365.04,131.21,364.97,132.23z M362.38,139.55c0.15-0.61,0.44-1.26,0.51-1.82 c0.12-1.07,0.17-2.06,0.22-3.08c-0.15,0.56-0.34,1.19-0.61,2.11C362.48,137.58,362.45,138.56,362.38,139.55z M360.22,134.57 c-0.24,0.54-0.51,0.9-0.55,1.19c-0.13,1.04-0.22,2.11-0.32,3.2c0.17-0.29,0.39-0.58,0.46-0.9 C359.95,137.02,360.05,135.88,360.22,134.57z M359.21,129.21c-0.27,0.44-0.56,0.92-0.8,1.42c0.05,0.43,0.1,1.23,0.22,1.16 c0.22-0.1,0.51-0.71,0.8-1.12C359.38,130.23,359.31,129.82,359.21,129.21z M353.75,145.18c-0.05,0.31,0.12,0.6,0.19,0.92 c0.22-1.04,0.44-2.11,0.61-3.2c0.03-0.29-0.09-0.65-0.19-1.21C354.14,143.02,353.92,144.11,353.75,145.18z M347.88,145.81 c0.17-0.68,0.39-1.43,0.46-1.99c0.07-0.8,0-1.46,0-2.16c-0.15,0.65-0.32,1.33-0.73,3.2C347.66,145.01,347.75,145.39,347.88,145.81z M381.04,147.58c0.17-0.68,0.39-1.43,0.46-1.99c0.05-0.8,0-1.46-0.02-2.13c-0.15,0.65-0.32,1.33-0.73,3.2 C380.82,146.8,380.94,147.19,381.04,147.58z M372.5,152.6c-0.22,0.05-0.51,0.66-0.78,1.08c0.05,0.44,0.12,0.85,0.22,1.46 c0.22-0.41,0.51-0.89,0.78-1.38C372.67,153.33,372.62,152.53,372.5,152.6z M327.11,143.8c0-0.29,0-0.85-0.07-0.78 c-0.13,0.09-0.27,0.48-0.46,0.75c0,0.29,0.05,0.54,0.07,0.9C326.82,144.38,326.94,144.09,327.11,143.8z M329.27,129.04 c-0.08-0.29-0.12-0.68-0.22-0.81c-0.02-0.02-0.19,0.49-0.29,0.78c0.07,0.29,0.12,0.61,0.19,0.9 C329.08,129.6,329.17,129.31,329.27,129.04z M329.68,145.17c0.1-0.26,0.2-0.55,0.32-0.87c0.05-0.51,0.05-1.04,0.07-1.6 c-0.1,0.24-0.27,0.61-0.29,0.8C329.7,144.08,329.7,144.62,329.68,145.17z M332.26,127.93c-0.1,0.26-0.2,0.55-0.32,0.87 c-0.05,0.53-0.08,1.04-0.07,1.6c0.1-0.24,0.27-0.61,0.29-0.8C332.24,129.02,332.24,128.49,332.26,127.93z M333.08,142.85 c-0.1,0.26-0.2,0.55-0.32,0.87c-0.02,0.51-0.02,1.07-0.07,1.6c0.1-0.24,0.27-0.61,0.29-0.8 C333.06,143.94,333.06,143.41,333.08,142.85z M336.16,144.28c-0.03-0.27-0.03-0.8-0.07-0.76c-0.14,0.12-0.29,0.46-0.46,0.73 c0,0.29,0.05,0.54,0.07,0.9C335.87,144.86,335.99,144.57,336.16,144.28z M338.29,137.71c0.14-0.12,0.29-0.46,0.46-0.73 c0-0.29,0-0.85-0.07-0.78c-0.15,0.15-0.29,0.49-0.46,0.73C338.22,137.22,338.22,137.78,338.29,137.71z M341.73,145.35 c0.14-0.12,0.29-0.46,0.46-0.73c0-0.29-0.05-0.54-0.07-0.9c-0.17,0.29-0.29,0.58-0.46,0.87 C341.69,144.86,341.66,145.39,341.73,145.35z M344.75,145.66c0.12-0.29,0.29-0.58,0.46-0.85c0-0.29,0-0.85-0.07-0.78 c-0.14,0.12-0.29,0.46-0.46,0.73C344.68,145.05,344.73,145.3,344.75,145.66z M347.34,130.02c-0.07-0.29-0.12-0.61-0.19-0.9 c-0.12,0.31-0.22,0.6-0.32,0.88c0.05,0.29,0.12,0.63,0.22,0.8C347.07,130.82,347.24,130.31,347.34,130.02z M370.52,115.17 c-0.12,0.56-0.29,1.07-0.39,1.65c-0.05,0.19,0.02,0.53,0.02,0.8c0.12-0.56,0.29-1.07,0.41-1.58 C370.53,115.72,370.53,115.46,370.52,115.17z M355.95,123.07c-0.07-0.29-0.12-0.67-0.22-0.81c-0.02-0.02-0.19,0.49-0.29,0.78 c0.07,0.29,0.12,0.61,0.19,0.9C355.76,123.63,355.85,123.34,355.95,123.07z M358.14,122.71c-0.08,0.63-0.1,1.14-0.1,1.67 c0.1-0.24,0.27-0.61,0.29-0.8c0.08-0.58,0.08-1.11,0.1-1.67C358.33,122.15,358.16,122.52,358.14,122.71z M360.17,144.83 c-0.14,0.12-0.29,0.46-0.46,0.73c0.03,0.3,0.08,0.59,0.07,0.92c0.17-0.29,0.29-0.58,0.46-0.87 C360.24,145.32,360.24,144.76,360.17,144.83z M362.36,129.6c-0.15,0.53-0.29,1.04-0.36,1.65c-0.05,0.19,0.02,0.53,0.02,0.8 c0.12-0.56,0.29-1.07,0.41-1.58C362.38,130.16,362.36,129.89,362.36,129.6z M365.39,139.67c0.1-0.24,0.27-0.61,0.29-0.8 c0.08-0.58,0.08-1.11,0.1-1.67c-0.1,0.26-0.2,0.55-0.32,0.87C365.44,138.63,365.44,139.14,365.39,139.67z M367.94,122.81 c-0.12,0.29-0.29,0.58-0.46,0.85c0,0.29,0,0.85,0.07,0.78c0.14-0.12,0.29-0.46,0.46-0.73C368.01,123.42,367.96,123.17,367.94,122.81 z M368.38,130.26c-0.15,0.29-0.32,0.58-0.46,0.85c0,0.29,0,0.85,0.07,0.78c0.14-0.12,0.29-0.46,0.46-0.73 C368.45,130.87,368.4,130.62,368.38,130.26z M404.57,132.78c-0.05-0.32-0.05-0.61-0.07-0.9c-0.15,0.58-0.29,1.09-0.36,1.68 c-0.05,0.19,0.02,0.53,0.02,0.8C404.28,133.8,404.45,133.29,404.57,132.78z M390.06,139.45c-0.05,0.51-0.05,1.04-0.07,1.6 c0.1-0.24,0.27-0.61,0.29-0.8c0.08-0.58,0.08-1.11,0.1-1.67C390.26,138.84,390.16,139.11,390.06,139.45z M394.94,131.39 c-0.12,0.56-0.29,1.07-0.41,1.58c0.05,0.32,0.05,0.61,0.07,0.9c0.12-0.56,0.29-1.07,0.39-1.65 C395.04,132,394.99,131.69,394.94,131.39z M393.82,154.88c0-0.29,0-0.85-0.07-0.78c-0.14,0.13-0.31,0.49-0.46,0.75 c0,0.29,0.05,0.54,0.07,0.9C393.53,155.46,393.65,155.17,393.82,154.88z M395.94,148.33c0.14-0.12,0.29-0.46,0.46-0.73 c-0.03-0.26-0.03-0.56-0.07-0.92c-0.17,0.29-0.29,0.58-0.46,0.87C395.87,147.84,395.87,148.4,395.94,148.33z M401.98,131.78 c-0.12,0.56-0.29,1.07-0.41,1.58c0.05,0.32,0.05,0.61,0.07,0.9c0.12-0.56,0.29-1.07,0.39-1.65 C402.07,132.39,402.03,132.08,401.98,131.78z M166.98,58.7c0.25,1.14,0.56,2.42,1.07,0.24c0.22-0.97,0.56-2.65,0.44-3.18 c-0.34-1.77-0.97-3.06-1.38-4.73c-0.17-0.71-0.27-2.67-0.17-2.84c0.41-0.82,0.92-1.4,1.38-1.67c1.31-0.76,0.85,2.2,0.85,4.29 c0,0.9,0.36,2.38,0.41,2.28c0.6-0.83,1.19-1.82,1.72-3.01c0.05-0.15-0.07-1.62-0.22-2.28c-0.49-2.26-0.95-4.57-1.48-6.7 c-0.24-0.92-0.63-1.46-1.09-2.45c-0.53,1.19-1.02,1.87-1.26,2.94c-0.44,1.9-0.68,4.13-1.12,6.02c-0.41,1.85-1.12,3.11-0.27,5.1 C166.42,54.07,166.59,56.71,166.98,58.7z M121.11,61.71c0.82-0.15,1.55-0.42,2.13-2.72c0.82-3.2-0.37-3.28-0.66-4.61 c-0.41-2.06-1.02-3.66-1.6-5.36c-0.12-0.38-0.34-0.55-0.51-0.82c-0.12,0.73-0.34,1.4-0.36,2.06c-0.07,2.01-0.6,4.58,0.73,4.63 c0.85,0.02,0.7,2.16,0.17,4.05C120.67,60.21,119.51,62,121.11,61.71z M176.18,54.92c0.22,1.45,0.68,2.47,1.04,3.66 c0.54-1.8,1.05-3.61,2.04-7.06c-0.1,0.02-0.2,0.02-0.32,0.02c0.2-0.41,0.49-1.33,0.73-1.65c0.87-1.31,2.18-1.92,0.7-5 c-0.63-1.38-1.11-3.49-1.67-5.24c-0.22-0.63-0.44-1.14-0.68-1.72c-0.46,1.43-1.02,2.47-1.24,3.78c-0.12,0.85,0.27,3.08,0.44,2.98 c1.26-0.46,1.94,0,1.53,4.59c-0.12,1.31-0.15,1.97-0.1,2.26c-0.78,0.05-1.22-0.02-1.63,0.44C176.71,52.44,176.12,54.5,176.18,54.92z M196.84,50.26c0.12-0.34-0.26-1.31-0.73-3.14c-0.41,2.91-0.75,4.65-0.92,6.4c-0.05,0.67,0.14,1.43,0.24,2.13 C195.92,53.87,196.43,52.13,196.84,50.26z M192.62,52.03c0.12-1.22-0.22-2.6-0.39-4.17c-0.97,3.04-1.65,4.42-1.63,5.34 c0.05,1.23,0.58,2.11,0.9,3.15C191.89,54.92,192.45,53.53,192.62,52.03z M204.12,44.8c0.34-0.12,0.68-0.82,1.04-1.26 c-0.24-0.75-0.41-1.7-0.7-2.16c-0.19-0.29-0.58-0.17-0.83,0.24c-0.31,0.58-0.58,1.55-1.09,3.01C203.2,44.7,203.66,44.97,204.12,44.8 z M145.58,47.05c-0.29-0.97-0.61-2.96-0.86-2.79c-0.53,0.41-0.99,1.99-1.5,3.08c0.29,0.41,0.59,0.83,0.95,1.36 C144.63,48.14,145.12,47.58,145.58,47.05z M201.74,40.43c0.37-0.07,0.8-2.02,1.36-3.52c-0.29-0.36-0.51-1.04-0.78-0.89 c-0.49,0.31-1.02,1.09-1.53,1.67C201.08,38.68,201.38,40.48,201.74,40.43z M181.41,34.87c0.15-0.61,0.2-1.72,0.1-2.28 c-0.17-0.87-0.46-1.43-0.87-2.61c-0.17,1.91-0.37,3.3-0.39,4.63c-0.03,0.99,0.14,1.86,0.24,2.81 C180.78,36.59,181.17,35.84,181.41,34.87z M182.3,41.58c0.19,0.12,0.56-1.14,0.85-1.8c-0.24-0.93-0.38-2.07-0.7-2.6 c-0.12-0.24-0.58,0.92-1.26,2.04C181.7,40.38,181.97,41.38,182.3,41.58z M171.51,34.27c0.12-0.46-0.19-1.58-0.46-3.35 c-0.48,1.72-0.89,2.67-1.07,3.77c-0.1,0.58,0.29,1.45,0.46,2.18C170.81,36.02,171.24,35.31,171.51,34.27z M173.6,40.92 c0.05-0.65-0.14-1.4-0.24-2.06c-0.56,1.41-0.97,2.47-1.38,3.54l0.92,2.98C173.14,43.9,173.43,42.42,173.6,40.92z M136.4,55.09 c0.1,1.28,0.22,2.52,0.32,3.78c0.41-1.1,1.16-2.45,1.14-3.23c-0.02-1.38-0.53-2.45-0.8-3.66C136.84,52.93,136.67,53.88,136.4,55.09z M140.05,46.11c-0.71,0.92-1.14,1.5-1.63,2.11c0.29,1,0.54,2.5,0.95,2.77c0.24,0.17,0.78-1.51,1.14-2.55 C140.58,48.24,140.27,47.03,140.05,46.11z M205.07,53.97c0.22-0.9,0.41-1.8,0.68-2.89c-0.1-1.36-0.17-2.62-0.27-3.93 c-0.22,0.83-0.53,1.67-0.56,2.45C204.85,51.08,205.02,52.51,205.07,53.97z M126.41,50.3c-0.29-0.41-0.58-0.82-0.97-1.38 c-0.46,0.61-0.95,1.22-1.41,1.8c0.32,0.34,0.63,1.02,0.95,0.92C125.47,51.49,125.95,50.74,126.41,50.3z M145.43,53.56 c0.2,0.46,0.54,1.45,0.58,1.38c0.36-0.87,0.68-1.87,0.92-2.96c0.07-0.34-0.17-1.09-0.29-1.87 C146.23,51.28,145.84,52.44,145.43,53.56z M140.46,54.75c0.2,0.41,0.44,1.21,0.56,1.04c0.39-0.63,0.77-1.5,1.09-2.45 c0.05-0.15-0.27-1.21-0.39-1.87C141.29,52.56,140.87,53.65,140.46,54.75z M119.25,66.51c0.39-0.31,0.73-1.14,0.95-1.5 c0.1-1.77,0.13-2.5,0.15-3.23l-1.58,3.28C118.92,65.54,119.11,66.61,119.25,66.51z M171.42,56.15c0.09,0.37,0.22,1.26,0.25,1.26 c0.41-0.53,0.92-1.07,1.21-1.99c0.1-0.37-0.17-1.77-0.22-2.72C172.24,53.82,171.86,54.96,171.42,56.15z M134.64,47.75 c-0.34,0.1-0.7,0.63-1.14,1.07c0.3,0.56,0.49,1.29,0.66,1.19c0.36-0.17,0.72-0.82,1.04-1.26C135.05,48.41,134.88,47.73,134.64,47.75 z M131.92,57.07c0.17-0.31,0.53-0.65,0.53-0.97c0.1-1.04,0.03-2.03,0.03-3.3c-0.34,0.58-0.66,0.97-0.66,1.26 C131.8,55.08,131.9,56.08,131.92,57.07z M123.38,40.39c-0.15,0.63-0.32,1.21-0.56,2.13c0.08,0.78,0.2,1.65,0.32,2.55 c0.15-0.61,0.44-1.29,0.44-1.82C123.6,42.27,123.45,41.35,123.38,40.39z M103.62,58.09c-0.19,0.71-0.48,1.36-0.58,2.09 c-0.09,0.54,0.1,1.24,0.15,1.87c0.29-0.41,0.58-0.8,0.73-0.97C103.75,59.35,103.68,58.72,103.62,58.09z M167.56,35.6 c0-0.97-0.12-1.96-0.17-3.18c-0.24,0.95-0.53,1.63-0.53,2.16c0,0.97,0.14,1.89,0.24,2.84C167.24,36.81,167.54,36.16,167.56,35.6z M159.04,40.79c-0.24,0.95-0.53,1.63-0.53,2.16c0,0.97,0.14,1.89,0.24,2.84c0.14-0.61,0.44-1.24,0.46-1.82 C159.21,43,159.09,42.03,159.04,40.79z M155.69,50.69c0.08,0.78,0.2,1.65,0.32,2.55c0.15-0.61,0.44-1.29,0.44-1.82 c0.02-0.99-0.12-1.92-0.2-2.86C156.1,49.19,155.93,49.77,155.69,50.69z M150.99,50.72c-0.02,1.02,0.08,2.02,0.1,3.01 c0.17-0.31,0.53-0.65,0.53-0.97c0.1-1,0.05-2.04,0.03-3.3C151.31,50.04,150.99,50.43,150.99,50.72z M148,46.52 c0.17,0.34,0.34,1.07,0.56,0.97c0.34-0.14,0.71-0.8,1.07-1.23c-0.2-0.34-0.37-0.71-0.66-1.24C148.68,45.45,148.36,45.99,148,46.52z M143.39,61.15c0,0.34,0.29,0.53,0.44,0.8c0.15-1.05,0.34-2.07,0.39-3.11c0.02-0.26-0.29-0.58-0.56-1.04 C143.54,59.09,143.42,60.13,143.39,61.15z M133.61,62.84c0.13,0.15,0.39,0.44,0.66,0.73c0.1-0.63,0.34-1.41,0.32-1.94 c-0.02-0.73-0.26-1.28-0.41-1.94C134.06,60.37,133.93,61.03,133.61,62.84z M187.28,52.46c-0.02-0.7-0.24-1.26-0.4-1.92 c-0.12,0.66-0.22,1.31-0.58,3.13c0.13,0.15,0.39,0.44,0.66,0.73C187.06,53.77,187.3,52.99,187.28,52.46z M100.24,68.74 c0.09,0.25,0.14,0.51,0.24,0.78c0.17-0.29,0.34-0.63,0.56-0.92c-0.1-0.25-0.2-0.75-0.24-0.68C100.6,68.06,100.41,68.45,100.24,68.74 z M101.69,54.6c-0.19-0.25-0.34-0.56-0.51-0.66c-0.05-0.02-0.19,0.51-0.29,0.78c0.14,0.22,0.31,0.49,0.46,0.73 C101.47,55.16,101.6,54.89,101.69,54.6z M105.35,69.01c0.08-0.27,0.2-0.58,0.32-0.9c-0.07-0.46-0.12-0.97-0.2-1.43 c-0.07,0.27-0.29,0.63-0.29,0.8C105.2,68.02,105.3,68.5,105.35,69.01z M105.82,53.55c0.07,0.49,0.17,1,0.22,1.46 c0.07-0.27,0.29-0.63,0.29-0.8c-0.05-0.56-0.13-1.04-0.19-1.56C106.06,52.92,105.94,53.23,105.82,53.55z M110.14,68.18 c0.07-0.27,0.29-0.63,0.29-0.8c0-0.55-0.1-1.04-0.19-1.56c-0.08,0.27-0.2,0.58-0.32,0.9C109.99,67.21,110.09,67.72,110.14,68.18z M114.62,66.21c0.09,0.25,0.14,0.51,0.24,0.78c0.17-0.29,0.34-0.63,0.56-0.92c-0.09-0.24-0.19-0.7-0.24-0.68 C114.98,65.53,114.79,65.92,114.62,66.21z M117.32,58.82c0.09,0.24,0.14,0.73,0.24,0.68c0.19-0.15,0.36-0.53,0.56-0.82 c-0.09-0.24-0.14-0.73-0.24-0.68C117.68,58.14,117.49,58.53,117.32,58.82z M124.18,64.57c0.1,0.24,0.15,0.75,0.24,0.68 c0.2-0.14,0.39-0.53,0.56-0.82c-0.09-0.25-0.14-0.51-0.24-0.78C124.54,63.94,124.35,64.25,124.18,64.57z M129.52,62.92 c-0.2,0.14-0.39,0.53-0.56,0.82c0.09,0.25,0.14,0.51,0.24,0.78c0.17-0.29,0.34-0.63,0.56-0.92 C129.69,63.36,129.62,62.85,129.52,62.92z M130.15,50.4c0.07,0,0.17-0.53,0.27-0.83c-0.14-0.22-0.31-0.49-0.46-0.73 c-0.1,0.34-0.22,0.61-0.32,0.9C129.83,49.99,129.98,50.28,130.15,50.4z M142.28,39.84c-0.05-0.02-0.19,0.51-0.29,0.78 c0.14,0.22,0.31,0.49,0.46,0.73c0.12-0.29,0.19-0.56,0.34-0.85C142.6,40.25,142.45,39.94,142.28,39.84z M146.28,41.06 c0.07-0.27,0.29-0.63,0.29-0.8c-0.02-0.56-0.12-1.04-0.17-1.53c-0.07,0.27-0.29,0.63-0.29,0.8 C146.13,40.07,146.23,40.55,146.28,41.06z M153.49,58.75c-0.2,0.14-0.39,0.53-0.56,0.82c0.09,0.25,0.14,0.51,0.24,0.78 c0.17-0.29,0.34-0.63,0.56-0.92C153.63,59.16,153.59,58.7,153.49,58.75z M153.71,45.97c-0.02,0.19,0.17,0.46,0.22,0.7 c0.12-0.54,0.24-1.05,0.36-1.58c-0.1-0.27-0.15-0.51-0.26-0.72C153.93,44.9,153.76,45.44,153.71,45.97z M160.79,52.41 c0.07-0.27,0.29-0.63,0.29-0.8c-0.02-0.53-0.12-1.04-0.19-1.56c-0.08,0.27-0.2,0.58-0.32,0.9 C160.64,51.44,160.74,51.95,160.79,52.41z M161.35,38.03c0.19-0.2,0.39-0.58,0.56-0.82c-0.09-0.25-0.14-0.51-0.24-0.78 c-0.17,0.29-0.34,0.63-0.56,0.92C161.2,37.59,161.25,38.08,161.35,38.03z M163.41,44.58c0.17-0.15,0.39-0.53,0.56-0.82 c-0.09-0.25-0.14-0.51-0.24-0.78c-0.17,0.29-0.34,0.63-0.56,0.92C163.26,44.14,163.31,44.63,163.41,44.58z M200.22,44.82 c-0.03-0.58-0.13-1.04-0.19-1.56c-0.08,0.27-0.2,0.58-0.32,0.9c0.07,0.49,0.17,1,0.22,1.46C200,45.35,200.22,44.99,200.22,44.82z M206.21,35.98c0.02-0.19-0.17-0.46-0.22-0.7c-0.12,0.54-0.24,1.05-0.36,1.58c0.09,0.32,0.19,0.54,0.24,0.78 C205.99,37.11,206.09,36.57,206.21,35.98z M474.73,123.61c0,0.01,0.01,0.02,0.01,0.03c-0.01,0.01-0.01,0.01-0.02,0.02L474.73,123.61 c0,0-38.38,23.18-44.98,49.99c-6.6,26.81-16.49,27.18-25.17,60.65c-8.46,32.59-27.25,61.25-23.76,85.23 c-0.22,9.66,0.32,20.72,1.04,31.93c13.71-12.6,30.1-23.38,53.97-33.99c47.84-21.26,62.44-42.82,64.08-84.36 C501.43,194.15,484.9,152.87,474.73,123.61z M297.5,134.65c0.86-42.04,1.61-100.65-4.79-116.44c-20.48-3.03-46.94-4.56-83.81,2.14 c-4.47,20.88-3.69,74.28,0,101.66c5.12,38.02-34.4,156.11-34.16,180.41c2.79,36.52-6.49,76.04-15.91,98.75 c4.82,5.25,9.84,11.01,15.37,17.61c27.73,33.08,114.78,52.03,152.39,1.34c10.67-14.38,19.45-26.8,27.86-37.82 c-9.8-28.15-19.56-66.42-26.94-94.7C311.64,262.68,296.34,191.68,297.5,134.65z M78.89,192.16c0.01-0.01,0.02-0.02,0.03-0.03 c0.7-0.81,0.82-1.42,0.78-1.36c-0.05-0.75-0.59-0.6-1.35-0.01c-0.31-0.8-0.61-1.6-0.92-2.41c1.15-1.51,1.72-2.7,3.65-4.76 c1.35-1.47,1.08-2.77,2.43-4.24c2.64-2.87,2.51-3.3,1.9-3.55c-0.12-0.12-1.99,1.63-3.5,2.56c-1.48,0.94-4.56,4.55-4.83,3.49 c0-0.03-1.32,0.99-1.57,1.28c-1.21-3.4-2.39-6.86-3.51-10.4c-0.29-0.93-0.61-1.85-0.95-2.77c1.03-0.76,2.26-1.66,3.97-2.94 c-0.06-0.05-0.1-0.08-0.14-0.14c0.37-0.21,1.14-0.75,1.47-0.9c1.27-0.53,2.21-0.31,3.94-3.47c0.77-1.42,2.16-3.32,3.28-4.97 c0.4-0.58,0.69-1.12,1.04-1.71c-1.23,0.84-2.18,1.37-3.23,2.28c-0.69,0.6-2.15,2.51-2.04,2.56c0.81,0.34,0.67,1.08-2.86,4.41 c-1.04,0.94-1.53,1.43-1.71,1.66c-0.31-0.35-0.39-0.68-0.87-0.53c-0.46,0.14-2.17,1.4-2.45,1.77c-0.28,0.36-0.53,0.71-0.77,1.04 c-0.3-0.78-0.61-1.55-0.94-2.32c0.04-0.03,0.08-0.04,0.12-0.07c0.31-0.22,1.26-1.48,1.93-2.25c-0.79,0.54-1.57,1.06-2.37,1.6 c-0.3-0.68-0.6-1.36-0.92-2.03c0.94-1.32,1.65-2.51,2.57-3.85c0.46-0.65,1.87-2.2,2.05-2.28c0.75-0.4,1.37-0.57,1.74-0.54 c1.03,0.11-1.29,2.16-2.86,3.8c-0.65,0.7-1.61,2.06-1.55,2.02c0.8-0.33,1.77-0.82,2.83-1.42c0.16-0.1,1.18-1.3,1.62-1.88 c1.51-2.02,3.04-4.06,4.41-6c0.59-0.87,0.85-1.46,1.43-2.51c-1.09,0.64-1.77,0.89-2.64,1.57c-1.57,1.21-3.3,2.82-4.86,4.05 c-1.51,1.2-2.69,1.8-3.83,3.85c-0.35,0.56-0.89,1.27-1.49,2.03c-1.95-3.92-4.24-7.73-6.73-11.37c0.65-0.43,1.33-0.92,2.06-1.47 c0.28-0.21,0.76-0.97,1.26-1.63c-1.03,0.65-2.01,1.35-2.97,2.02c-0.13,0.23-0.34,0.56-0.51,0.84c-0.49-0.72-1-1.42-1.5-2.13 c0.33-0.21,0.67-0.43,1.03-0.69c0.09-0.08,0.81-1.09,1.25-1.67c-0.89,0.6-1.81,1.18-2.7,1.76c-0.35-0.48-0.7-0.94-1.05-1.41 c0.64-0.82,1.13-1.64,1.73-2.46c-0.67,0.58-1.37,1.12-2.21,1.82c-0.52-0.68-1.04-1.35-1.57-2.01c0.47-0.5,0.97-1.04,1.53-1.61 c-0.55,0.29-0.97,0.4-1.16,0.62c-0.21,0.21-0.42,0.44-0.63,0.66c-1.16-1.46-2.33-2.87-3.52-4.25c0.2-0.39,0.36-0.76,0.68-1.19 c1.34-1.79,2.29-3.38,3.39-5.04c0.24-0.36,0.31-0.61,0.44-0.91c-0.58,0.48-1.17,0.92-1.66,1.4c-1.51,1.53-3.59,3.25-3.17,4.02 c0.1,0.18-0.06,0.51-0.38,0.91c-12.47-14.3-25.38-23.91-25.38-23.91c-0.15,0.4-0.27,0.8-0.44,1.2 c-14.72,35.97-58.87,134.08,19.62,192.95c45.12,33.82,69,50.72,88.02,67.15c-6.92-95.73-22.81-114.25-30.19-130.65 C97.38,232.93,87.56,214.34,78.89,192.16z" fill="#efefef"/></g><g id="change3_1"><path d="M261.63,423.3c-33.15,3.76-49.65-12.71-57.94-29.24c-9.98-19.9,5.98-39.19,27.95-35.59 c0.98,0.16,1.99,0.37,3.01,0.64c24.53,6.41,38.02-8.87,55.8,0C308.23,367.98,310.07,417.81,261.63,423.3z M391.15,248.21 c0.64,0.97,1.21,1.59,1.1,1.63c-0.05,0.02-0.41-0.15-0.65-0.19l0.02,0.01c-1.87-0.51-4.24-0.59-6.95-0.7 c-2.41,0.06-3.85-1.49-5.86-1.36c-1.82,0.12-3.54,0.01-5.05-0.22c-0.97-0.17-2.01-0.06-3.01,0.03c-1,0.1-1.95,0.05-2.81-0.76 c-0.95-0.9-2.48-0.35-3.72-0.53c-1.25-0.13-2.49,0.1-3.72,0c-1.21,0.06-2.43-0.16-3.76-0.72c-1.02-0.38-2.39-0.53-3.18,0.61 c8.41,1,14.94,8.15,14.94,16.83c0,9.37-7.59,16.96-16.96,16.96s-16.96-7.59-16.96-16.96c0-4.39,1.69-8.38,4.43-11.4 c-0.01,0-0.02,0-0.03,0.01c-1.11,0.35-2.09,0.93-2.62,1.97c-0.41,0.79-0.88,1.45-1.9,1.67c-0.17,0.03-0.47,0.21-0.48,0.29 c-0.27,1.67-2.18,2.41-2.91,3.85l0.04,0.04c-2.65,2.33-4.09,5.68-6.43,8.49c-0.73,0.93-1.5,2.68-1.82,4.01 c-0.21,0.61-1.73,3.3-2.02,3.86c-0.32,0.52-0.14-0.35-0.07-1l-0.01,0.02c0.09-1.71-0.02-3.96,1.25-7.28 c0.74-1.8,1.01-3.89,2.04-5.73c0.76-1.33,1.43-2.84,2.5-3.91c0.09-0.09,0.26-0.19,0.28-0.26c0.03-0.15,0.07-0.3,0.12-0.44 c-0.31-1.6-0.74-3.65-0.32-6.77c0.32-1.92,0.11-4.01,0.69-6.04c0.44-1.47,0.75-3.09,1.55-4.37c0.07-0.11,0.21-0.25,0.21-0.32 c-0.08-1.97,0.95-3.71,1.62-5.51c0.25-0.67,0.39-1.43,0.74-2.04c0.57-0.93,0.82-1.78,1-2.92c0.29-1.46,0.96-2.99,2.83-2.94 c0.64,0.02,1.52-1.02,1.87-2.01c0.43-1.42,1.11-2.69,2.73-2.84c0.13-0.01,0.32-0.1,0.37-0.21c0.58-1.45,1.89-2.2,3.11-2.92 c1.28-0.66,2.57-1.16,3.42-2.31c2.07-2.59,4.85-3.08,7.67-3.28c0.83-0.06,1.59-0.48,2.38-0.97c0.79-0.45,1.62-0.9,2.5-1.09 c0.64-0.12,1.27-0.74,2.02-0.59c0.26,0.06,0.61,0.2,0.78,0.05c1.55-1.34,3.38-2.1,5.3-1.18l0.04,0.02l-0.05-0.05 c1.42-1.46,2.95-0.72,4.3,0.4c0.11,0.33-0.08,0.88,0.47,0.88c1.75,0,3.35,0.94,4.98,1.42c0.27,0.08,0.61,0.13,0.83,0.02 c1.61-0.85,3.08-0.22,4.36,1.19c0.05,0.05,0.15,0.14,0.17,0.13c0.73-0.38,1.49-0.05,2.25,0.31c0.77,0.35,1.53,0.79,2.24,0.98 c0.75,0.17,1.79,1.14,2.64,1.9c0.84,0.8,1.54,1.28,1.44,1.34c-0.04,0.03-0.43-0.05-0.67-0.04c-1.94-0.07-4.25,0.38-6.92,0.89 c-2.33,0.61-4.09-0.58-6.02,0c-1.75,0.53-3.45,0.81-4.96,0.93c-0.98,0.06-1.97,0.4-2.92,0.71c-0.95,0.32-1.89,0.49-2.91-0.11 c-1.13-0.67-2.5,0.22-3.74,0.32c-1.25,0.16-2.4,0.66-3.62,0.84c-1.17,0.33-2.41,0.39-3.82,0.15c-1.09-0.14-2.48,0.02-2.97,1.35 c-0.86-0.12-1.44,0.28-1.99,0.72c-0.51,0.52-0.97,1.07-1.69,1.3c-2.35,0.89-4.17,2.64-6.69,3.7c-0.34,0.14-0.68,0.53-0.76,0.86 c-0.19,1.04-0.94,1.52-1.84,1.98c-1,0.59-1.83,1.38-2.11,2.52c-0.22,0.86-0.53,1.61-1.47,2.06c-0.15,0.07-0.41,0.31-0.4,0.39 c0.12,1.68-1.58,2.84-1.96,4.4l0.03,0.02c-2.05,2.87-2.7,6.46-4.34,9.72c-0.48,1.02-0.82,2.78-0.86,4.13 c0.4-0.56,0.82-1.11,1.2-1.68c0.4-0.6,0.7-1.31,1.18-1.82c0.76-0.77,1.2-1.55,1.63-2.62c0.61-1.36,1.61-2.69,3.42-2.22 c0.62,0.16,1.71-0.65,2.27-1.53c0.74-1.28,1.69-2.37,3.3-2.15c0.13,0.02,0.34-0.03,0.41-0.12c0.89-1.28,2.34-1.72,3.69-2.14 c1.39-0.36,2.77-0.55,3.85-1.47c2.61-2.06,5.42-1.91,8.21-1.46c0.82,0.13,1.66-0.11,2.54-0.41c0.87-0.26,1.78-0.51,2.68-0.49 c0.65,0.03,1.4-0.43,2.1-0.12c0.24,0.11,0.55,0.33,0.75,0.22c1.81-0.95,3.76-1.28,5.43,0.04l0.03,0.03l-0.03-0.06 c1.72-1.1,3.03-0.03,4.1,1.36c0.03,0.35-0.29,0.83,0.26,0.95c1.71,0.39,3.06,1.67,4.53,2.51c0.24,0.13,0.56,0.26,0.8,0.2 c1.77-0.47,3.05,0.48,3.98,2.15c0.04,0.06,0.12,0.17,0.14,0.16c0.8-0.21,1.46,0.29,2.12,0.81c0.67,0.51,1.31,1.11,1.96,1.47 C389.7,246.09,390.5,247.28,391.15,248.21z M353.2,245.96c-0.22-0.04-0.43-0.06-0.63-0.03C352.78,245.94,352.99,245.94,353.2,245.96 z M375.22,237.48c0,0.01,0,0.02,0,0.03c0,0,0.01,0.01,0.01,0.01L375.22,237.48z M352.56,222.35c-0.01,0-0.01,0-0.02,0c0,0,0,0,0,0 H352.56z M371.71,209.12c0,0.01,0,0.01,0,0.02c0.01,0,0.01,0.01,0.02,0.01L371.71,209.12z M174.46,271.02 c0.31,0.61,0.7,3.78,0.67,4.43c-0.02,0.62-0.27-0.23-0.58-0.8l0,0c-0.88-1.49-2.26-3.15-3.75-6.19c-0.78-1.71-2.22-3.11-3.17-4.82 c-0.66-1.28-1.65-2.45-2.13-3.77c-0.04-0.11-0.07-0.29-0.13-0.33c-1.58-0.96-2.43-2.56-3.72-3.74c-0.49-0.43-1.06-0.79-1.47-1.25 c-0.66-0.69-1.33-1.12-2.28-1.41c-0.1-0.03-0.2-0.06-0.3-0.09c1.96,2.77,3.13,6.14,3.13,9.79c0,9.37-7.59,16.96-16.96,16.96 s-16.96-7.59-16.96-16.96c0-9.37,7.59-16.96,16.96-16.96c2.66,0,5.17,0.63,7.41,1.72c-0.07-0.12-0.13-0.24-0.19-0.38 c-0.04-0.11-0.16-0.25-0.26-0.25c-2.6,0.03-4.21-2.58-6.65-2.21c-2.76,0.67-4.53-0.32-6.87-1.07c-0.67-0.21-1.41-0.04-2.14,0.18 c-0.74,0.25-1.47,0.63-2.21,0.66c-0.54,0.04-1.08,0.49-1.69,0.33c-0.22-0.05-0.5-0.19-0.65-0.04c-1.29,1.37-2.55,2-4.27,1.51 l-0.04-0.02l0.05,0.04c-0.87,1.67-2.16,1.07-3.6,0.51c-0.19-0.27-0.2-0.88-0.65-0.7c-1.44,0.52-3.13,0.11-4.66,0.5 c-0.25,0.05-0.55,0.15-0.68,0.35c-0.91,1.43-2.3,1.53-4.06,1.14c-0.07-0.02-0.19-0.03-0.2-0.01c-0.72,1.37-2.93,0.79-4.14,1.6 c-0.64,0.36-2.01,0.32-3.14,0.33c-1.16-0.02-2.01,0.1-1.98-0.01c0.01-0.05,0.35-0.26,0.52-0.42l-0.02,0.01 c1.49-1.19,2.8-3.29,4.78-5.3c1.68-1.88,3.85-2.11,5.45-3.48c1.43-1.36,3.04-2.53,4.72-3.14c2.09-0.86,3.96-3.05,6.64-2.37 c1.42,0.37,3.11-0.43,4.7-0.67c1.59-0.18,3.21-0.39,4.83-0.45c1.64,0.08,3.3,0.33,4.86,1.22c1.24,0.78,2.77,1.12,4.27,0.59 l-0.02-0.02c0.83,0.72,1.74,0.83,2.68,0.91c0.92,0.13,1.88,0.23,2.75,0.71c2.81,1.68,5.95,3,7.81,5.76 c0.25,0.35,0.78,0.67,1.17,0.75c1.17,0.28,1.86,1.16,2.4,2.16c0.58,1.26,1.45,2.15,2.54,2.87c0.83,0.53,1.67,1.1,1.77,2.27 c0.02,0.18,0.17,0.54,0.26,0.57c0.61,0.23,1.05,0.64,1.42,1.14c-0.23-0.72-0.45-1.51-0.66-2.41c-0.38-1.85-1.46-3.53-2-5.41 c-0.36-1.4-1.06-2.76-1.23-4.15c-0.02-0.12,0-0.3-0.05-0.35c-1.32-1.29-1.79-3.04-2.78-4.48c-0.38-0.53-0.85-1.01-1.15-1.55 c-0.49-0.82-1.04-1.39-1.91-1.89c-1.19-0.64-2.06-1.51-1.54-3.12c0.17-0.53-0.47-1.62-1.41-1.89c-1.27-0.43-2.23-0.92-2.43-2.32 c-0.01-0.12-0.1-0.28-0.2-0.31c-2.54-0.56-3.52-3.46-5.98-3.66c-2.84,0.03-4.34-1.33-6.45-2.59c-0.61-0.35-1.37-0.36-2.13-0.31 c-0.78,0.08-1.58,0.28-2.3,0.15c-0.54-0.08-1.16,0.23-1.72-0.06c-0.2-0.1-0.45-0.3-0.62-0.19c-1.57,1.05-2.94,1.37-4.5,0.51 l-0.03-0.02l0.04,0.05c-1.23,1.43-2.34,0.55-3.63-0.32c-0.12-0.31,0.01-0.89-0.48-0.82c-1.52,0.18-3.07-0.6-4.65-0.57 c-0.26-0.01-0.57,0.03-0.74,0.19c-1.21,1.19-2.59,0.97-4.21,0.2c-0.06-0.03-0.18-0.07-0.2-0.05c-1.01,1.17-3.04,0.11-4.4,0.62 c-0.7,0.21-2.03-0.14-3.14-0.39c-1.12-0.28-1.98-0.35-1.93-0.46c0.02-0.04,0.4-0.17,0.6-0.29l-0.02,0.01 c1.72-0.82,3.47-2.57,5.86-4.09c2.06-1.45,4.22-1.19,6.1-2.16c1.7-1.01,3.54-1.78,5.31-2c2.23-0.36,4.55-2.08,7-0.8 c1.3,0.68,3.12,0.28,4.73,0.41c1.59,0.18,3.22,0.35,4.81,0.65c1.58,0.45,3.14,1.06,4.46,2.28c1.03,1.04,2.45,1.72,4.03,1.54 c0.65,0.87,1.5,1.18,2.39,1.47c0.87,0.34,1.78,0.65,2.51,1.32c2.36,2.27,5.12,4.26,6.31,7.38c0.16,0.4,0.6,0.83,0.97,1 c1.07,0.54,1.55,1.55,1.85,2.65c0.28,1.36,0.92,2.42,1.82,3.37c0.69,0.71,1.38,1.45,1.21,2.61c-0.02,0.18,0.04,0.56,0.12,0.61 c1.59,1.05,1.45,3.34,2.27,4.85l0.03-0.06c0.59,3.76,2.02,7.38,1.81,11.22c-0.05,1.23,0.26,3.15,0.56,4.53 c0.1,0.4,0.02,1.7-0.1,2.81c1.42,3.27,3.39,6.3,4.01,9.85C173.12,267.94,173.86,269.74,174.46,271.02z M153.38,248.87 c0.83,0.57,1.6,1.21,2.32,1.91c0-0.11-0.01-0.21,0-0.33c0.04-0.56-0.82-1.47-1.8-1.52C153.71,248.91,153.54,248.89,153.38,248.87z M122.67,246.87c0,0,0-0.01-0.01-0.01c-0.01,0-0.02-0.01-0.02-0.01L122.67,246.87z M124.01,218.87c0-0.01,0-0.01-0.01-0.02 c0,0-0.01-0.01-0.01-0.01L124.01,218.87z M147.11,213.1c0.01,0.01,0.01,0.01,0.02,0.02c0,0,0,0,0,0L147.11,213.1z M90.77,42.58 c0,0.01,0.01,0.01,0.01,0.02c0,0,0,0,0,0L90.77,42.58z M73.4,45.62c0-0.01,0-0.02,0-0.02c0,0,0,0,0-0.01V45.62z M66.78,71.55 c0,0-0.01-0.01-0.01-0.01c0,0-0.01,0-0.01-0.01L66.78,71.55z M106.8,67.62c1.34,1.61,2.63,2.32,3.51,3.06l0,0 c0.33,0.3,0.65,0.83,0.61,0.38c-0.05-0.46-0.63-2.59-0.93-2.94c-0.08-0.1-0.17-0.22-0.26-0.33c0.55-0.02,1.05-0.06,1.49-0.05 c0.45,0.03,1.04,0.24,0.73-0.08c-0.32-0.33-2.12-1.61-2.57-1.7c-0.27-0.05-0.55-0.12-0.85-0.2c-0.04-0.1-0.09-0.21-0.11-0.3 c-0.39-1.25-0.94-2.44-1.63-3.51c-0.7-1.07-1.41-2.12-1.87-3.37v-0.04c-0.92-0.73-0.99-2.45-2.38-2.66c-0.07,0-0.16-0.26-0.15-0.4 c0.05-0.91-0.52-1.25-1.14-1.54c-0.82-0.38-1.25-1.1-1.51-2.03c-0.22-0.78-0.55-1.45-1.42-1.57c-0.28-0.04-0.6-0.29-0.69-0.58 c-0.67-2.27-2.59-3.34-3.85-5.11c-0.81-1.02-2.5-0.55-3-2.05c-1.23,0.29-1.95-0.51-2.45-1.38c-1.22-2.25-3.38-2.86-5.45-3.54 c-1.03-0.41-2.38-0.25-3.01-1.22c-1.23-1.72-3.34-0.43-4.9-0.7c-1.22-0.24-2.68,0.07-4.07,0.66c-1.5,0.65-2.87-0.49-4.56,0.54 c-1.92,1.03-3.36,2.16-4.61,2.52h0.01c-0.15,0.07-0.42,0.09-0.44,0.13c-0.05,0.08,0.52,0.38,1.21,0.93 c0.69,0.48,1.48,1.16,1.96,1.17c0.95-0.01,2.03,1.18,2.88,0.43c0.01-0.02,0.08,0.05,0.11,0.1c0.84,1.2,1.6,1.78,2.65,0.87 c0.15-0.12,0.35-0.08,0.51-0.02c0.99,0.31,1.73,1.44,2.72,1.61c0.32,0.05,0.08,0.57,0.06,0.9c0.52,1.18,0.97,2.14,2.19,0.97 l-0.01-0.05l0.01,0.03c0.69,1.2,1.7,1.09,3.06,0.35c0.15-0.08,0.25,0.15,0.35,0.28c0.28,0.36,0.83,0.09,1.18,0.22 c0.91,0.4,2.36-0.13,3.04,0.63c1.18,1.25,1.98,2.61,4.19,2.48c1.93-0.07,2.13,2.6,4.25,2.57c0.07,0.01,0.13,0.13,0.13,0.23 c0.02,1.18,0.81,1.42,1.84,1.49c0.74,0.06,1.3,0.71,1.13,1.22c-0.49,1.5,0.34,1.91,1.33,2.1c0.76,0.12,1.28,0.37,1.74,0.85 c0.29,0.32,0.78,0.48,1.13,0.76c0.95,0.76,1.58,1.86,2.93,2.23c0.04,0.02,0.05,0.16,0.08,0.24c0.1,0.28,0.26,0.54,0.43,0.78 c-1.01-0.33-2.01-0.68-2.96-1.24l-0.02-0.01c-1.17,0.01-2.31-1.29-3.52-0.57c-0.06,0.04-0.29-0.1-0.37-0.22 c-0.53-0.73-1.19-0.63-1.85-0.47c-0.87,0.23-1.66-0.06-2.45-0.62c-0.66-0.47-1.34-0.78-2.09-0.32c-0.25,0.16-0.65,0.16-0.91-0.01 c-1.95-1.34-4.11-0.96-6.21-1.54c-1.29-0.29-2.31,1.17-3.65,0.29l0.02,0.01c-0.77,0.99-1.84,0.83-2.77,0.47 c-2.37-0.98-4.43-0.1-6.47,0.68c-1.06,0.32-2.01,1.3-3.11,0.94c-2.04-0.57-2.87,1.77-4.25,2.54c-1.11,0.57-2.04,1.73-2.75,3.07 c-0.75,1.44-2.53,1.42-3.2,3.29c-0.84,2.01-1.25,3.79-1.99,4.86l0.01-0.01c-0.08,0.15-0.27,0.34-0.26,0.38 c0.01,0.1,0.64-0.03,1.52-0.04c0.84-0.06,1.88-0.04,2.26-0.33c0.73-0.61,2.32-0.36,2.51-1.48c0-0.02,0.1-0.01,0.15,0.01 c1.41,0.4,2.37,0.37,2.61-1c0.03-0.18,0.22-0.28,0.38-0.33c0.96-0.38,2.24,0.03,3.12-0.46c0.29-0.16,0.43,0.4,0.62,0.67 c1.15,0.58,2.1,1.05,2.31-0.63l-0.04-0.04l0.03,0.01c1.29,0.5,2-0.22,2.59-1.65c0.07-0.15,0.29-0.04,0.45,0 c0.44,0.11,0.7-0.45,1.05-0.57c0.96-0.27,1.76-1.59,2.76-1.43c1.7,0.23,3.17,0.79,4.81-0.71c1.45-1.27,3.29,0.68,4.92-0.68 c0.07-0.05,0.19,0.01,0.25,0.09c0.76,0.91,1.52,0.59,2.37,0c0.6-0.43,1.45-0.27,1.64,0.23c0.56,1.47,1.47,1.27,2.36,0.79 c0.67-0.38,1.23-0.52,1.89-0.43c0.43,0.06,0.91-0.12,1.36-0.13c1.22-0.01,2.4,0.45,3.68-0.11c0.04-0.02,0.14,0.09,0.21,0.13 c0.86,0.51,1.92,0.52,2.87,0.77c1.29,0.34,2.71,0,3.95,0.33C106.43,67.55,106.61,67.59,106.8,67.62z M431.49,36.24 c0.01,0.01,0.01,0.02,0.01,0.03c0,0,0,0,0.01,0L431.49,36.24z M422.19,51.27c-0.01,0-0.01,0-0.02,0c0,0,0,0,0,0H422.19z M453.67,72.92c-0.23-0.8-0.49-1.86-0.9-2.21c-0.4-0.33-0.7-0.9-1.03-1.43c-0.32-0.53-0.66-1.03-1.36-0.81 c-0.02,0.01-0.06-0.08-0.07-0.14c-0.32-1.44-1.04-2.41-2.45-2.04c-0.19,0.05-0.39-0.09-0.54-0.22c-0.87-0.85-1.58-2.05-2.74-2.45 c-0.36-0.13-0.03-0.59,0.03-0.92c-0.5-1.3-1.19-2.48-2.63-1.53l0.01,0.06l-0.02-0.03c-0.94-1.27-2.33-1.11-3.77-0.32 c-0.16,0.09-0.33-0.14-0.47-0.27c-0.41-0.37-0.98-0.06-1.41-0.18c-1.2-0.24-2.62,0.73-3.61,0.17c-1.7-1-3.36-1.79-5.47-0.64 c-1.75,0.84-3.63-1.01-5.49,0.27c-0.07,0.04-0.2-0.02-0.27-0.1c-0.86-0.97-1.73-0.53-2.58,0.16c-0.62,0.49-1.53,0.43-1.81-0.04 c-0.84-1.42-1.86-1.07-2.69-0.34c-0.63,0.54-1.18,0.8-1.89,0.88c-0.46,0.06-0.92,0.3-1.37,0.48c-1.22,0.44-2.58,0.42-3.62,1.39 c-0.04,0.03-0.17-0.02-0.26-0.03c-0.64-0.05-1.27,0.11-1.91,0.28c0.38-0.33,0.79-0.64,1.24-0.9h-0.08c0.57-0.96,2.17-1.17,2.17-2.54 c0-0.07,0.25-0.16,0.39-0.15c0.88,0.04,1.16-0.49,1.4-1.08c0.33-0.77,0.95-1.25,1.87-1.38c0.77-0.11,1.4-0.32,1.55-1.13 c0.05-0.27,0.3-0.53,0.58-0.58c2.08-0.35,3.44-1.55,5.16-2.22c1.06-0.29,1.14-1.89,2.54-1.66c0.11-1.17,0.99-1.53,1.91-1.33 c1.13,0.19,1.98-0.01,2.74-0.41c0.75-0.43,1.44-0.92,2.23-1.24c0.77-0.33,1.43-1.31,2.33-0.96c1.61,0.68,2.24-1.19,3.45-1.74 c0.9-0.46,1.84-1.12,2.79-2c0.52-0.49,1.13-0.57,1.76-0.69c0.63-0.09,1.26-0.37,1.95-0.8c1.58-1.04,3.03-2.18,4.33-2.56h-0.01 c0.16-0.07,0.44-0.09,0.46-0.13c0.06-0.08-0.46-0.38-1.15-0.92c-0.68-0.48-1.55-1.14-2.09-1.15c-0.52-0.01-1.11-0.26-1.7-0.46 c-0.59-0.21-1.17-0.38-1.57,0.23c-0.01,0.01-0.1-0.03-0.14-0.07c-1.15-0.92-2.32-1.22-3.18-0.04c-0.11,0.16-0.35,0.18-0.55,0.17 c-1.21-0.12-2.52-0.6-3.67-0.18c-0.36,0.14-0.39-0.43-0.56-0.72c-1.21-0.7-2.48-1.18-3,0.46l0.05,0.04l-0.03-0.02 c-1.53-0.4-2.51,0.6-3.13,2.12c-0.07,0.17-0.35,0.09-0.54,0.08c-0.55-0.03-0.81,0.57-1.21,0.75c-1.09,0.56-1.58,2.21-2.7,2.4 c-1.96,0.29-3.75,0.73-4.66,2.95c-0.83,1.76-3.45,1.5-4.09,3.67c-0.02,0.08-0.17,0.12-0.27,0.1c-1.28-0.21-1.67,0.68-1.9,1.75 c-0.16,0.77-0.9,1.3-1.42,1.11c-1.54-0.58-2.11,0.34-2.3,1.43c-0.15,0.82-0.4,1.37-0.91,1.88c-0.32,0.34-0.52,0.82-0.76,1.24 c-0.67,1.11-1.74,1.95-1.94,3.36c-0.01,0.05-0.15,0.09-0.22,0.14c-0.85,0.58-1.36,1.57-2.03,2.36c-0.85,1.14-1.1,2.61-1.81,3.72 c0,0,0,0.01-0.01,0.01c-1.08,0.67-1.78,1.4-2.4,1.94h0c-0.37,0.26-0.91,0.53-0.47,0.54c0.26-0.01,1.12-0.05,1.86-0.12 c-0.28,0.98-0.36,1.81-0.48,2.5l0.01-0.01c-0.12,0.43-0.37,0.98-0.02,0.72c0.33-0.29,1.93-1.73,2.13-2.12 c0.27-0.62,0.74-1.34,1.24-1.87c0.42-0.09,0.82-0.14,1.15-0.13c2.58,0.28,4.89-0.69,7.36-0.29h0.03c1.04-0.39,2.42,0.45,3.28-0.61 c0.04-0.05,0.28,0.04,0.39,0.13c0.67,0.58,1.21,0.35,1.77,0.04c0.74-0.39,1.53-0.36,2.32,0.11c0.67,0.39,1.29,0.62,1.91,0.09 c0.2-0.17,0.57-0.22,0.81-0.08c1.83,1.04,3.64,0.97,5.4,1.53c1.01,0.45,2.08-0.77,3.03,0.32l-0.01-0.01 c0.82-0.83,1.73-0.55,2.32,0.18c0.76,0.87,1.55,1.24,2.39,1.41c0.85,0.13,1.7,0.19,2.51,0.44c0.8,0.24,1.93-0.11,2.41,0.73 c0.82,1.54,2.48,0.49,3.77,0.82c0.99,0.21,2.14,0.29,3.43,0.2c0.71-0.05,1.24,0.27,1.8,0.57c0.55,0.33,1.22,0.51,2.02,0.61 c1.89,0.18,3.73,0.2,4.98,0.73l-0.01-0.01c0.17,0.04,0.4,0.19,0.44,0.18C454.08,74.33,453.86,73.77,453.67,72.92z M444.61,62.68 c0,0.01,0,0.01,0,0.02c0,0,0,0.01,0,0.01V62.68z" fill="#4e3d34"/></g></svg>