<?xml version="1.0" encoding="UTF-8" standalone="no"?><svg xmlns="http://www.w3.org/2000/svg" xmlns:xlink="http://www.w3.org/1999/xlink" fill="#000000" height="434.6" preserveAspectRatio="xMidYMid meet" version="1" viewBox="-0.6 0.0 392.3 434.6" width="392.3" zoomAndPan="magnify"><defs><clipPath id="a"><path d="M 7 0 L 391.710938 0 L 391.710938 434.609375 L 7 434.609375 Z M 7 0"/></clipPath></defs><g><g clip-path="url(#a)" id="change1_1"><path d="M 70.269531 210.648438 C 70.25 209.21875 69.113281 208.085938 67.675781 208.054688 C 66.136719 208.023438 64.941406 209.203125 64.957031 210.734375 C 64.976562 212.195312 66.070312 213.289062 67.542969 213.316406 C 69.101562 213.34375 70.289062 212.183594 70.269531 210.648438 Z M 62.886719 197.476562 C 62.859375 195.957031 61.582031 194.695312 60.109375 194.738281 C 58.632812 194.78125 57.425781 196.070312 57.445312 197.59375 C 57.464844 199.152344 58.660156 200.308594 60.21875 200.273438 C 61.757812 200.242188 62.914062 199.03125 62.886719 197.476562 Z M 71.96875 196.082031 C 73.476562 196.105469 74.78125 194.929688 74.863281 193.464844 C 74.949219 191.914062 73.640625 190.621094 72.007812 190.644531 C 70.433594 190.664062 69.28125 191.800781 69.265625 193.335938 C 69.253906 194.859375 70.429688 196.054688 71.96875 196.082031 Z M 166.839844 120.007812 C 160.859375 118.601562 155.136719 118.183594 148.863281 118.722656 C 149.816406 119.617188 150.363281 120.171875 150.953125 120.675781 C 155.898438 124.890625 160.855469 129.089844 165.804688 133.296875 C 170.59375 137.371094 175.523438 141.230469 181.226562 144.019531 C 184.722656 145.730469 188.101562 147.679688 191.539062 149.507812 C 192.148438 149.832031 192.789062 150.089844 193.933594 150.621094 C 193.160156 148.074219 192.621094 146.007812 191.898438 144 C 189.828125 138.234375 187.695312 132.488281 185.570312 126.742188 C 183.5625 121.324219 181.523438 115.921875 177.941406 111.277344 C 174.277344 106.53125 170.074219 102.414062 164.4375 100.078125 C 158.058594 97.429688 144.304688 95.800781 143.980469 96.085938 C 153.105469 102.539062 161.507812 109.613281 166.839844 120.007812 Z M 75.6875 105.265625 C 73.730469 107.300781 73.136719 109.585938 72.710938 111.921875 C 72.261719 114.363281 72.082031 116.867188 72.976562 119.207031 C 73.808594 121.382812 75.023438 123.414062 76.027344 125.421875 C 72.109375 128.394531 68.136719 131.398438 64.175781 134.414062 C 60.160156 137.472656 56.519531 140.941406 52.972656 144.566406 C 53.539062 144.65625 61.457031 142.191406 64.921875 140.953125 C 76.058594 136.972656 87.179688 132.941406 98.316406 128.960938 C 99.261719 128.621094 100.261719 128.316406 101.253906 128.257812 C 108.816406 127.789062 116.386719 127.371094 123.953125 126.972656 C 125.46875 126.890625 126.988281 126.960938 128.507812 126.925781 C 128.96875 126.917969 129.429688 126.804688 130.195312 126.691406 C 129.476562 125.796875 129.019531 125.046875 128.398438 124.484375 C 124.230469 120.695312 120.050781 116.914062 115.804688 113.21875 C 115.148438 112.648438 114.144531 112.292969 113.269531 112.199219 C 109.824219 111.835938 106.367188 111.585938 102.910156 111.351562 C 99.09375 111.09375 95.257812 111.023438 91.453125 110.625 C 89.539062 110.421875 88.191406 110.675781 87.070312 112.402344 C 85.949219 114.132812 84.496094 115.648438 83.164062 117.289062 C 78.707031 114.417969 77.105469 110.027344 75.6875 105.265625 Z M 222.78125 37.90625 C 222.707031 37.746094 190.636719 47.742188 175.714844 50.269531 C 165.289062 52.039062 155.25 55.082031 145.570312 59.390625 C 136.480469 63.4375 127.300781 67.28125 118.15625 71.203125 C 117.40625 71.523438 116.621094 71.765625 115.761719 72.074219 C 115.726562 71.566406 118.035156 61.441406 121.078125 57.339844 C 122.453125 55.488281 123.96875 53.742188 125.429688 51.953125 C 126.226562 50.976562 127.039062 50.007812 127.847656 49.035156 C 127.757812 48.898438 123.480469 49.898438 121.492188 50.675781 C 116.496094 52.621094 111.539062 54.730469 107.796875 58.734375 C 102.019531 64.921875 96.84375 71.59375 92.554688 78.914062 C 91.578125 80.578125 90.707031 82.300781 89.675781 84.203125 C 90.339844 84.203125 96.144531 83.472656 98.652344 83.1875 C 109.480469 81.953125 120.304688 80.699219 131.140625 79.546875 C 138.3125 78.78125 145.507812 78.207031 152.683594 77.460938 C 153.933594 77.328125 155.25 76.960938 156.339844 76.347656 C 170.375 68.476562 184.386719 60.554688 198.390625 52.621094 C 204.730469 49.027344 211.074219 45.433594 217.359375 41.742188 C 219.261719 40.628906 220.976562 39.191406 222.78125 37.90625 Z M 194.839844 235.769531 C 195.027344 235.820312 195.214844 235.867188 195.402344 235.921875 C 195.625 238.917969 195.691406 241.929688 195.410156 244.929688 C 195.140625 247.808594 194.667969 250.683594 193.316406 253.285156 C 189.652344 260.332031 185.976562 267.371094 182.21875 274.371094 C 177.984375 282.253906 173.191406 289.828125 169.695312 298.113281 C 164.46875 310.511719 162.324219 323.300781 164.363281 336.65625 C 165.546875 344.417969 167.839844 351.851562 171.957031 358.621094 C 172.183594 358.996094 172.507812 359.308594 172.976562 359.878906 C 173.113281 358.96875 173.226562 358.410156 173.28125 357.839844 C 173.753906 352.875 174.160156 347.90625 174.695312 342.953125 C 175.375 336.632812 176.484375 330.382812 177.910156 324.179688 C 179.632812 316.71875 183.453125 310.222656 187.40625 303.863281 C 193.390625 294.238281 199.753906 284.847656 206.035156 275.410156 C 210.199219 269.148438 214.0625 262.730469 217.402344 255.980469 C 220.738281 249.234375 222.332031 242.148438 222.375 234.664062 C 222.421875 226.804688 221.109375 219.132812 219.296875 211.523438 C 216.15625 198.332031 209.695312 187.101562 199.324219 178.308594 C 194.480469 174.199219 189.429688 170.320312 184.296875 166.574219 C 178.875 162.617188 173.253906 158.9375 167.707031 155.148438 C 167.0625 154.710938 166.359375 154.363281 165.328125 153.769531 C 165.59375 154.8125 165.738281 155.496094 165.945312 156.160156 C 168.785156 165.324219 171.75 174.457031 174.445312 183.664062 C 177.097656 192.699219 178.816406 201.851562 178.296875 211.40625 C 177.648438 223.332031 175.703125 234.933594 171.492188 246.117188 C 168.792969 253.277344 166.007812 260.40625 163.300781 267.5625 C 162.265625 270.304688 161.347656 273.09375 160.378906 275.859375 C 160.503906 275.960938 160.628906 276.0625 160.753906 276.164062 C 161.375 275.746094 162.015625 275.347656 162.613281 274.902344 C 166.9375 271.695312 170.816406 268 174.09375 263.753906 C 179.296875 257.003906 184.3125 250.113281 189.390625 243.269531 C 191.230469 240.785156 193.023438 238.269531 194.839844 235.769531 Z M 242.402344 257.121094 C 244.703125 255.609375 246.1875 253.511719 247.433594 251.253906 C 249.347656 247.773438 251.214844 244.265625 253.015625 240.730469 C 257.1875 232.53125 259.925781 223.882812 260.46875 214.667969 C 261.210938 202.222656 259.871094 190 255.902344 178.125 C 254.984375 175.390625 254.007812 172.671875 253.070312 169.941406 C 252.894531 169.425781 252.785156 168.886719 252.589844 168.148438 C 253.097656 168.316406 253.363281 168.382812 253.613281 168.492188 C 262.03125 172.140625 270.308594 176.078125 278.285156 180.617188 C 283.546875 183.613281 288.203125 187.363281 292.152344 191.941406 C 294.9375 195.171875 297.605469 198.5 300.289062 201.8125 C 304.199219 206.636719 308.074219 211.496094 311.984375 216.324219 C 312.550781 217.019531 313.21875 217.636719 313.835938 218.289062 C 313.75 214.648438 313.519531 211.183594 312.761719 207.839844 C 311.246094 201.15625 309.609375 194.496094 307.71875 187.910156 C 305.328125 179.582031 302.421875 171.453125 298.730469 163.566406 C 294.167969 153.824219 290 143.894531 284.59375 134.570312 C 282.0625 130.203125 279.324219 125.953125 276.625 121.683594 C 275.273438 119.546875 273.792969 117.492188 272.402344 115.382812 C 272.160156 115.019531 272.066406 114.558594 271.777344 113.824219 C 273.699219 114.703125 275.277344 115.386719 276.828125 116.136719 C 282.363281 118.824219 287.804688 121.714844 292.644531 125.515625 C 301.632812 132.574219 310.054688 140.28125 318.015625 148.496094 C 320.730469 151.296875 323.5625 153.984375 326.363281 156.699219 C 326.964844 157.277344 327.664062 157.746094 328.558594 158.460938 C 328.558594 157.71875 325.09375 142.71875 322.324219 135.867188 C 320.148438 130.496094 317.617188 125.3125 314.238281 120.578125 C 308.753906 112.890625 301.835938 106.699219 294.078125 101.414062 C 289.125 98.039062 284.078125 94.800781 279.078125 91.496094 C 278.515625 91.125 277.984375 90.710938 277.4375 90.320312 C 277.5 90.132812 307.375 89.109375 322.296875 90.042969 C 320.085938 88.097656 317.535156 86.867188 314.910156 85.726562 C 303.816406 80.886719 292.203125 77.703125 280.460938 74.953125 C 269.199219 72.3125 257.761719 70.703125 246.246094 69.640625 C 245.449219 69.566406 244.660156 69.402344 243.46875 69.222656 C 245.15625 67.773438 246.40625 66.570312 247.785156 65.546875 C 253.527344 61.277344 259.308594 57.070312 265.070312 52.835938 C 265.675781 52.390625 266.25 51.90625 266.839844 51.4375 C 263.246094 51.734375 259.820312 52.25 256.46875 53.066406 C 246.367188 55.527344 236.417969 58.523438 226.675781 62.15625 C 218.902344 65.054688 211.238281 68.253906 203.496094 71.242188 C 196.636719 73.894531 189.742188 76.460938 182.847656 79.03125 C 179.46875 80.289062 176.058594 81.457031 172.664062 82.679688 C 172.300781 82.8125 171.972656 83.035156 171.625 83.214844 C 177.953125 84.035156 184.277344 83.609375 190.777344 84.601562 C 189.058594 88.023438 188.261719 91.449219 187.875 94.972656 C 187.28125 100.390625 188.3125 105.40625 192.140625 109.457031 C 197.445312 115.070312 204.117188 117.867188 211.796875 118.230469 C 213.609375 118.316406 215.441406 118.089844 217.527344 117.996094 C 216.996094 118.886719 216.609375 119.566406 216.203125 120.230469 C 213.21875 125.097656 210.21875 129.953125 207.261719 134.832031 C 206.886719 135.445312 206.222656 136.027344 206.542969 137.0625 C 207.675781 136.929688 208.738281 136.769531 209.804688 136.675781 C 212.898438 136.398438 215.992188 136.132812 219.085938 135.902344 C 219.503906 135.867188 219.945312 136.0625 220.542969 136.1875 C 216.488281 139.652344 212.675781 142.972656 208.792969 146.210938 C 206.46875 148.148438 204.640625 150.464844 203.4375 153.203125 C 202.195312 156.039062 199.929688 162.800781 199.808594 163.726562 C 201.28125 162.609375 202.402344 161.730469 203.550781 160.886719 C 210.953125 155.472656 218.46875 150.203125 225.742188 144.617188 C 233.296875 138.8125 239.082031 131.453125 243.359375 122.929688 C 244.9375 119.78125 245.867188 116.472656 245.992188 112.949219 C 246.023438 112.054688 245.902344 111.148438 245.828125 109.835938 C 240.1875 113.925781 234.355469 116.828125 228.359375 120.230469 C 228.511719 119.246094 228.476562 118.640625 228.699219 118.152344 C 229.625 116.121094 230.4375 114.011719 231.640625 112.152344 C 233.980469 108.546875 237.101562 105.625 240.46875 102.976562 C 241.058594 102.507812 241.625 102.019531 242.546875 101.261719 C 235.246094 100.804688 229.03125 102.773438 223.035156 105.765625 C 222.941406 105.625 228.75 97.023438 231.8125 92.773438 C 231.351562 92.648438 217.617188 95.828125 211.238281 98.605469 C 208.871094 99.636719 206.964844 101.277344 205.609375 103.511719 C 205.40625 103.847656 205.121094 104.132812 204.832031 104.492188 C 202.34375 102.390625 200.582031 100.03125 199.714844 96.980469 C 199.230469 95.28125 199.449219 94.0625 200.988281 93.097656 C 203.800781 91.332031 206.507812 89.394531 209.394531 87.761719 C 212.28125 86.132812 215.277344 84.683594 218.3125 83.355469 C 221.035156 82.164062 223.933594 81.425781 226.929688 81.445312 C 233.566406 81.488281 239.777344 83.027344 245.386719 86.757812 C 248.558594 88.867188 251.003906 91.570312 252.332031 95.117188 C 253.621094 98.554688 254.6875 102.085938 255.730469 105.609375 C 258.160156 113.800781 257.136719 121.761719 253.953125 129.542969 C 251.238281 136.179688 247.25 141.960938 242.328125 147.164062 C 236.105469 153.742188 228.980469 159.066406 220.960938 163.242188 C 218.683594 164.425781 216.484375 165.757812 214.101562 167.101562 C 214.777344 167.847656 215.316406 168.421875 215.835938 169.011719 C 219.464844 173.125 223.226562 177.132812 226.691406 181.386719 C 232.566406 188.597656 237.089844 196.644531 240.660156 205.230469 C 243.457031 211.960938 244.074219 219.101562 244.324219 226.242188 C 244.574219 233.238281 244.316406 240.253906 243.449219 247.234375 C 243.042969 250.523438 242.75 253.824219 242.402344 257.121094 Z M 174.761719 9.15625 C 171.847656 10.355469 169.339844 11.453125 166.78125 12.429688 C 159.109375 15.355469 152.804688 20.132812 147.539062 26.390625 C 144.589844 29.898438 142.160156 33.722656 140.210938 37.859375 C 139.792969 38.746094 139.4375 39.660156 139.382812 40.835938 C 140.054688 40.488281 140.738281 40.164062 141.394531 39.789062 C 146.285156 36.992188 151.101562 34.058594 156.074219 31.421875 C 163.089844 27.699219 170.199219 24.152344 177.304688 20.609375 C 184.21875 17.160156 191.101562 13.644531 198.140625 10.472656 C 204.316406 7.6875 210.628906 5.175781 216.992188 2.847656 C 222.167969 0.953125 227.660156 0.253906 233.144531 0.0117188 C 235.335938 -0.0859375 237.585938 0.464844 239.765625 0.929688 C 247.835938 2.660156 255.179688 6.128906 262.195312 10.394531 C 268.453125 14.199219 274.050781 18.886719 279.851562 23.308594 C 284.902344 27.164062 289.851562 31.164062 295.425781 34.285156 C 301.15625 37.488281 307.21875 39.65625 313.726562 40.617188 C 320.6875 41.648438 327.457031 43.472656 333.804688 46.511719 C 339.710938 49.335938 345.070312 53.039062 349.347656 58.078125 C 352.332031 61.605469 355.34375 65.136719 358.023438 68.890625 C 362.445312 75.09375 365.914062 81.847656 368.367188 89.066406 C 370.410156 95.078125 372.410156 101.113281 374.113281 107.226562 C 375.617188 112.644531 376.734375 118.175781 377.929688 123.675781 C 379.109375 129.109375 380.261719 134.550781 381.261719 140.019531 C 382.328125 145.84375 383.203125 151.703125 384.152344 157.546875 C 384.207031 157.890625 384.15625 158.253906 384.15625 158.945312 C 383.59375 158.371094 374.417969 145.363281 370.285156 139.175781 C 365.714844 132.335938 361.648438 125.136719 355.898438 119.136719 C 354.402344 117.578125 352.8125 116.148438 350.507812 114.75 C 350.753906 115.933594 350.824219 116.695312 351.070312 117.394531 C 352.992188 122.839844 354.84375 128.3125 356.917969 133.699219 C 358.710938 138.34375 360.824219 142.863281 362.691406 147.480469 C 365.6875 154.886719 369.890625 161.632812 373.945312 168.464844 C 378 175.296875 382.042969 182.136719 386.011719 189.019531 C 389.734375 195.476562 391.308594 202.5 391.621094 209.933594 C 392.160156 222.964844 390.335938 235.566406 385.589844 247.738281 C 382.859375 254.746094 378.800781 260.949219 374.136719 266.789062 C 367.070312 275.648438 358.925781 283.398438 350.097656 290.476562 C 335.304688 302.332031 319.691406 312.996094 303.660156 323.082031 C 297.421875 327.007812 291.316406 331.132812 285.199219 335.238281 C 278.300781 339.867188 271.375 344.464844 264.613281 349.285156 C 257.4375 354.402344 250.40625 359.699219 244.214844 366.058594 C 237.773438 372.671875 233.640625 380.441406 231.582031 389.363281 C 230.996094 391.890625 230.6875 394.480469 230.234375 397.039062 C 230.085938 397.867188 229.886719 398.6875 229.65625 399.757812 C 228.480469 398.484375 226.984375 388.488281 226.867188 384.820312 C 226.589844 376.203125 227.101562 367.621094 229.277344 359.230469 C 231.078125 352.269531 234.121094 345.789062 237.394531 339.425781 C 240.714844 332.976562 244.789062 326.996094 249.25 321.3125 C 254.269531 314.914062 258.582031 308.109375 262.480469 301 C 264.390625 297.519531 266.347656 294.0625 268.367188 290.640625 C 275.140625 279.171875 280.15625 267.003906 283.09375 254 C 283.855469 250.628906 285.058594 243.109375 285.058594 242.410156 C 284.5 243.003906 280.269531 249.253906 278.535156 252.003906 C 273.960938 259.277344 269.453125 266.59375 264.804688 273.824219 C 260.882812 279.925781 256.066406 285.335938 251.15625 290.632812 C 244.082031 298.261719 236.832031 305.730469 229.699219 313.304688 C 219.261719 324.402344 211.234375 336.984375 206.660156 351.601562 C 204.597656 358.175781 203.429688 364.914062 203.296875 371.832031 C 203.082031 383 203.855469 394.082031 205.960938 405.050781 C 207.21875 411.597656 210.03125 417.511719 213.589844 423.101562 C 215.9375 426.785156 222.6875 433.851562 222.917969 434.609375 C 220.804688 434.394531 218.6875 434.195312 216.574219 433.957031 C 212.054688 433.457031 207.542969 432.875 203.019531 432.4375 C 196.539062 431.8125 190.207031 430.433594 183.84375 429.101562 C 171.375 426.496094 159.742188 421.71875 148.453125 415.96875 C 144.984375 414.203125 141.515625 412.425781 138 410.746094 C 129.847656 406.84375 122.679688 401.472656 115.792969 395.734375 C 107.371094 388.730469 99.933594 380.769531 93.691406 371.722656 C 88.554688 364.28125 85.378906 356.09375 84.011719 347.164062 C 81.835938 332.929688 82.8125 318.914062 86.957031 305.152344 C 88.992188 298.382812 91.242188 291.675781 93.550781 284.996094 C 94.464844 282.34375 95.765625 279.824219 96.9375 277.269531 C 98.03125 274.875 99.679688 272.898438 101.53125 271.027344 C 106.734375 265.757812 118.8125 256.664062 119.234375 256.527344 C 118.957031 257.355469 118.746094 258.019531 118.519531 258.671875 C 116.644531 263.980469 114.605469 269.234375 112.925781 274.601562 C 110.273438 283.09375 109.878906 291.777344 111.46875 300.527344 C 112.425781 305.785156 113.304688 311.0625 114.476562 316.269531 C 115.539062 320.984375 116.851562 325.65625 119.269531 329.914062 C 119.511719 330.335938 119.785156 330.742188 120.34375 331.636719 C 120.714844 329.054688 120.980469 326.960938 121.320312 324.882812 C 122.472656 317.902344 123.558594 310.90625 124.847656 303.953125 C 126.34375 295.867188 129.949219 288.667969 134.453125 281.859375 C 141.394531 271.367188 147.832031 260.574219 152.976562 249.070312 C 156.429688 241.34375 159.121094 233.335938 160.738281 225.007812 C 161.621094 220.476562 162.484375 215.929688 163.058594 211.351562 C 163.746094 205.886719 163.6875 200.359375 162.851562 194.917969 C 161.441406 185.714844 159.851562 176.539062 158.191406 167.375 C 157.550781 163.832031 156.53125 160.355469 155.652344 156.855469 C 154.550781 152.472656 152.617188 148.445312 150.21875 144.636719 C 148.609375 142.078125 146.964844 139.542969 145.109375 136.644531 C 144.472656 138.128906 144.476562 139.3125 144.386719 140.476562 C 144.136719 143.640625 144 146.824219 143.628906 149.976562 C 143.039062 154.976562 141.03125 159.566406 139.253906 164.214844 C 136.652344 171.027344 132.09375 176.199219 125.859375 179.867188 C 121.449219 182.460938 116.910156 184.84375 112.414062 187.289062 C 108.570312 189.378906 104.800781 189.222656 101.179688 186.734375 C 99.929688 185.875 98.644531 185.046875 97.507812 184.054688 C 89.707031 177.238281 68.71875 170.652344 67.589844 170.808594 C 68.019531 171.207031 77.878906 179.285156 81.390625 183.941406 C 82.648438 185.609375 83.839844 187.363281 84.75 189.230469 C 85.398438 190.566406 86.285156 191.199219 87.625 191.5 C 90.859375 192.226562 94.09375 192.96875 97.320312 193.738281 C 98.277344 193.964844 99.210938 194.296875 100.15625 194.582031 C 100.148438 194.742188 91.828125 196.261719 87.5625 196.878906 C 87.5625 198.972656 87.5625 200.953125 87.5625 202.902344 C 93.28125 205.496094 104.316406 210.859375 104.273438 211.019531 C 102.835938 211.320312 101.410156 210.976562 99.984375 210.742188 C 98.5625 210.511719 97.132812 210.308594 95.71875 210.03125 C 94.230469 209.742188 92.761719 209.382812 91.28125 209.054688 C 89.886719 208.742188 88.488281 208.429688 87.097656 208.117188 C 86.398438 209.839844 85.753906 211.503906 85.039062 213.136719 C 84.691406 213.941406 84.863281 214.511719 85.515625 215.03125 C 86.699219 215.980469 87.851562 216.964844 89.046875 217.898438 C 92.40625 220.523438 95.785156 223.125 99.144531 225.75 C 99.757812 226.226562 100.316406 226.769531 100.804688 227.453125 C 93.363281 225.769531 86.8125 221.960938 79.824219 218.816406 C 79.195312 219.347656 78.5625 219.925781 77.890625 220.453125 C 72.488281 224.738281 66.335938 225.800781 59.71875 224.507812 C 58.261719 224.226562 56.917969 223.382812 55.519531 222.808594 C 50.253906 220.644531 44.964844 218.527344 39.71875 216.300781 C 36.269531 214.832031 32.871094 213.242188 29.480469 211.636719 C 26.738281 210.335938 24.648438 208.308594 23.003906 205.738281 C 20.136719 201.253906 17.804688 196.582031 17.058594 191.226562 C 16.6875 188.546875 16.75 185.898438 17.273438 183.253906 C 17.523438 181.988281 18.226562 180.996094 19.265625 180.257812 C 26.160156 175.378906 33.046875 170.476562 40.699219 166.789062 C 42.25 166.046875 43.847656 165.84375 45.53125 165.820312 C 49.429688 165.769531 53.332031 165.730469 57.222656 165.535156 C 58.933594 165.449219 60.625 164.988281 62.703125 164.632812 C 62.144531 164.019531 52.679688 157.917969 48.222656 155.238281 C 46.78125 154.371094 45.175781 153.953125 43.472656 153.945312 C 41.15625 153.9375 38.84375 153.964844 36.535156 153.84375 C 29.109375 153.4375 21.679688 153.039062 14.265625 152.5 C 12.058594 152.335938 9.882812 151.714844 7.300781 151.230469 C 8.515625 150.003906 9.414062 149 10.410156 148.101562 C 15.5625 143.445312 20.898438 139.050781 26.90625 135.488281 C 33.988281 131.296875 40.878906 126.78125 48.3125 123.199219 C 51.753906 121.542969 55.144531 119.753906 58.417969 117.796875 C 61.480469 115.96875 64.0625 113.523438 66.039062 110.511719 C 66.621094 109.625 67.113281 108.675781 67.800781 107.492188 C 64.359375 107.835938 61.527344 109.808594 58.101562 109.160156 C 58.183594 108.664062 58.207031 108.1875 58.347656 107.75 C 59.78125 103.304688 62.183594 99.347656 64.785156 95.523438 C 66.363281 93.203125 68.050781 90.917969 69.960938 88.871094 C 73.109375 85.5 77.121094 83.300781 81.222656 81.289062 C 82.125 80.847656 83.019531 80.394531 84.035156 79.890625 C 84.460938 76.089844 84.976562 72.296875 85.28125 68.488281 C 85.988281 59.707031 86.5625 50.914062 87.253906 42.128906 C 87.707031 36.296875 89.027344 23.722656 89.277344 22.792969 C 93.664062 31.136719 96.644531 39.613281 100.515625 48.191406 C 102.453125 45.398438 104.15625 43.007812 105.792969 40.570312 C 108.894531 35.957031 111.941406 31.304688 115.042969 26.691406 C 116.765625 24.128906 119.015625 22.082031 121.710938 20.609375 C 131.640625 15.183594 142.078125 11.039062 153.085938 8.363281 C 159.722656 6.75 166.355469 6.515625 172.96875 8.519531 C 173.445312 8.664062 173.910156 8.851562 174.761719 9.15625" fill="#ff5757" fill-rule="evenodd"/></g><g id="change1_2"><path d="M 17.6875 257.609375 C 14.15625 253.832031 10.792969 250.128906 8.425781 245.707031 C 6.515625 242.148438 5.238281 238.386719 6.003906 234.289062 C 6.375 232.316406 6.992188 230.351562 7.78125 228.507812 C 9.664062 224.109375 12.039062 219.980469 15.027344 216.230469 C 16.929688 213.84375 18.511719 213.621094 21.265625 214.976562 C 28.511719 218.539062 35.753906 222.132812 43.074219 225.535156 C 49.347656 228.449219 54.785156 232.386719 59.121094 237.765625 C 62.019531 241.359375 64.769531 245.074219 67.726562 248.925781 C 64.953125 251.441406 62.265625 254.03125 61.6875 257.878906 C 61.148438 261.476562 61.230469 265.0625 62.519531 268.558594 C 63.832031 272.113281 66.179688 274.875 69.191406 277.324219 C 67.484375 278.175781 65.886719 278.125 64.328125 278.066406 C 61.046875 277.941406 58.105469 276.75 55.578125 274.703125 C 51.054688 271.035156 47.050781 266.890625 44.660156 261.453125 C 44.09375 260.160156 43.632812 258.816406 42.964844 257.539062 C 40.753906 267.09375 43.34375 275.898438 47.476562 284.824219 C 45.460938 284.328125 44.152344 283.511719 42.917969 282.566406 C 38.960938 279.527344 36.019531 275.597656 33.40625 271.414062 C 29.203125 264.679688 26.753906 257.183594 24.1875 249.746094 C 22.414062 244.617188 21.289062 239.320312 20.324219 233.984375 C 20.195312 233.289062 19.992188 232.605469 19.769531 231.671875 C 18.667969 233.136719 18.4375 234.617188 18.160156 236.078125 C 17.316406 240.585938 17.410156 245.132812 17.574219 249.683594 C 17.648438 251.847656 17.710938 254.019531 17.765625 256.183594 C 17.777344 256.660156 17.714844 257.136719 17.6875 257.609375" fill="#ff5757" fill-rule="evenodd"/></g><g id="change1_3"><path d="M 79.855469 287.757812 C 79.433594 289.046875 79.03125 290.332031 78.582031 291.609375 C 76.519531 297.457031 74.457031 303.304688 72.367188 309.140625 C 69.625 316.820312 69.09375 324.773438 69.410156 332.832031 C 69.765625 341.761719 71.371094 350.449219 74.394531 358.871094 C 74.511719 359.199219 74.566406 359.546875 74.734375 360.25 C 74.09375 359.828125 69.121094 355.003906 67.234375 352.648438 C 63.441406 347.90625 60.195312 342.773438 57.398438 337.390625 C 56.3125 335.296875 55.578125 333 54.886719 330.734375 C 54.214844 328.53125 54.496094 326.328125 55.359375 324.164062 C 57.742188 318.179688 60.707031 312.5 64.132812 307.054688 C 67.949219 300.992188 72.261719 295.304688 77.039062 289.96875 C 77.800781 289.125 79.695312 287.664062 79.855469 287.757812" fill="#ff5757" fill-rule="evenodd"/></g><g id="change1_4"><path d="M 149.332031 188.683594 C 149.023438 190.773438 148.835938 192.527344 148.492188 194.253906 C 148.140625 196.019531 147.613281 197.75 147.210938 199.507812 C 145.949219 204.964844 143.25 209.6875 139.855469 214.066406 C 135.785156 219.324219 131.507812 224.394531 126.648438 228.957031 C 122.550781 232.804688 112.226562 237.824219 111.828125 237.863281 C 112.101562 237.371094 148.761719 189.03125 149.332031 188.683594" fill="#ff5757" fill-rule="evenodd"/></g><g id="change1_5"><path d="M 3.519531 167.613281 C 3.960938 168.203125 4.300781 168.566406 4.539062 168.984375 C 6.425781 172.308594 8.316406 175.628906 10.144531 178.980469 C 10.429688 179.5 10.554688 180.210938 10.484375 180.796875 C 9.632812 187.519531 10.410156 194.027344 12.921875 200.328125 C 13.800781 202.527344 14.636719 204.746094 15.589844 207.203125 C 14.964844 207.070312 14.492188 207.046875 14.082031 206.867188 C 7.179688 203.851562 2.601562 198.992188 1.023438 191.355469 C -0.429688 184.335938 -0.550781 177.488281 2.078125 170.730469 C 2.464844 169.734375 2.972656 168.785156 3.519531 167.613281" fill="#ff5757" fill-rule="evenodd"/></g></g></svg>