<?xml version="1.0" encoding="UTF-8"?><svg xmlns="http://www.w3.org/2000/svg" xmlns:xlink="http://www.w3.org/1999/xlink" height="424.0" preserveAspectRatio="xMidYMid meet" version="1.0" viewBox="0.0 0.5 425.4 424.0" width="425.4" zoomAndPan="magnify"><g><path d="M230.965,215.321c-1.907,2.125-3.818,4.256-5.748,6.416c-2.181,2.442-4.385,4.919-6.595,7.407 c2.185-2.4,4.449-4.913,6.812-7.566C227.262,219.526,229.109,217.433,230.965,215.321z" fill="none"/><g id="change1_1"><path d="M186.826,265.361c0.176-0.202,0.354-0.409,0.53-0.61c-0.443,0.216-0.88,0.405-1.311,0.571 C186.295,265.35,186.556,265.362,186.826,265.361z" fill="#B28585"/></g><g id="change1_2"><path d="M175.548,256.758c0.693,0.153,1.284,0.657,1.503,1.386c0.013,0.042,0.061,0.183,0.151,0.393 c0.305,0.669,1.009,1.951,2.173,2.749c0.05,0.028,0.101,0.058,0.15,0.091c1.08,0.717,2.35,0.89,3.879,0.53 c2.199-0.524,4.772-2.102,7.641-4.689c0.27-0.244,0.555-0.502,0.827-0.762c7.516-6.851,16.132-15.645,26.751-27.31 c2.211-2.487,4.414-4.964,6.595-7.407c1.93-2.16,3.841-4.291,5.748-6.416c8.727-9.93,17.773-20.493,27.257-31.575 c5.984-6.991,12.057-14.086,18.179-21.168c11.123-12.894,20.319-23.303,28.936-32.755 C362.031,67.686,421.233,16.011,421.826,15.497c0.526-0.458,1.219-0.596,1.845-0.435c0.937-6.888-7.449-14.593-18.44-14.333 C395.579,0.96,280.588,132.851,211.67,212.887c-14.566,16.928-27.081,31.534-36.108,42.095c0.08-0.093,0.164-0.192,0.244-0.285 C175.606,255.374,175.532,256.068,175.548,256.758z" fill="#B28585"/></g><g id="change2_1"><path d="M11.333,316.979c0.699,2.153,1.572,4.26,2.474,6.202c-3.245-2.158-7.941,0.882-8.715,4.697 c-0.72,3.551,0.905,7.107,2.951,10.145c3.323-2.741,6.638-5.466,9.914-8.151c7.679-6.292,15.47-12.69,23.177-19.246 c2.464-0.077,4.914-0.376,7.313-0.907c-9.244,7.994-18.657,15.723-27.907,23.303c-3.34,2.737-6.72,5.514-10.105,8.308 c-0.172-0.232-0.344-0.465-0.517-0.696c1.46,1.956,2.918,3.918,3.916,6.094c0.659-0.255,1.43-0.167,2.02,0.312 c0.093,0.076,5.637,4.561,13.251,9.108c5.556-4.975,11.106-9.91,16.596-14.788c22.628-20.105,45.932-40.818,67.87-62.903 c0.494-0.034,0.988-0.073,1.484-0.091c-2.831,0.106-5.639,0.451-8.398,1.092c-8.335,1.941-16.181,5.511-24.149,8.674 c-13.968,5.525-28.425,9.828-43.14,12.814c2.936,3.479,6.99,5.94,11.386,7.114c0.01-0.141,0.036-0.278,0.074-0.412 c-0.123,0.107-0.246,0.213-0.369,0.32c-1.477-0.417-2.907-0.985-4.273-1.682c3.644-3.156,7.26-6.347,10.821-9.594 c2.953-0.823,5.892-1.696,8.814-2.624c-4.355,4.121-8.804,8.154-13.309,12.116c6.493-0.956,12.846-2.749,18.882-5.331 c1.038-0.445,2.231,0.038,2.673,1.071c0.443,1.034-0.037,2.23-1.071,2.673c-6.366,2.723-13.066,4.614-19.915,5.619 c-0.099,0.015-0.2,0.022-0.298,0.022c-0.791,0-1.486-0.471-1.819-1.171c-9.314,2.743-19.72,1.888-28.448-2.355 c-1.937,1.775-3.875,3.553-5.774,5.3C14.955,313.655,13.148,315.314,11.333,316.979z" fill="#FCC983"/></g><g id="change2_2"><path d="M78.776,424.397c-0.938,0.041-1.875,0.07-2.812,0.079c4.737-0.045,9.486-0.497,14.186-1.359 c-4.099,0.159-7.566,0.276-10.518,0.364C79.344,423.788,79.061,424.092,78.776,424.397z" fill="#FCC983"/></g><g id="change2_3"><path d="M10.188,312.503c1.271-1.167,2.54-2.333,3.795-3.488c1.576-1.449,3.188-2.927,4.792-4.398 c-2.012-1.29-3.906-2.765-5.62-4.458C9.849,303.358,9.367,307.856,10.188,312.503z" fill="#FCC983"/></g><g id="change2_4"><path d="M48.169,366.759c-0.257,0.892-1.071,1.473-1.955,1.473c-0.187,0-0.376-0.026-0.565-0.08 c-5.561-1.601-11.129-4.23-16.042-6.988c-3.355,3.01-6.706,6.037-10.05,9.077c6.133,3.069,15.149,6.439,26.419,7.45 c1.538-1.39,3.074-2.781,4.614-4.172c24.539-22.151,49.708-44.89,71.937-70.083c-3.834-5.447-6.625-12.205-7.647-20.532 c-21.56,21.577-44.338,41.83-66.474,61.499c-5.153,4.579-10.36,9.209-15.574,13.873c4.379,2.387,9.199,4.597,13.944,5.963 C47.856,364.55,48.481,365.678,48.169,366.759z" fill="#FCC983"/></g><g id="change2_5"><path d="M46.63,419.153c0.072,0.028,0.145,0.053,0.217,0.081c-0.4-0.156-0.793-0.326-1.19-0.488 C45.982,418.879,46.302,419.026,46.63,419.153z" fill="#FCC983"/></g><g id="change2_6"><path d="M10.431,364.634c0.067,0.056,1.932,1.57,5.33,3.556c3.378-3.076,6.765-6.143,10.156-9.188 c-7.17-4.38-12.265-8.503-12.637-8.806c-0.249-0.203-0.43-0.455-0.555-0.729c-1.407,0.104-3.123-0.385-4.51,0.063 c-5.307,1.711-0.72,9.973,0.587,14.666C9.363,364.105,9.959,364.241,10.431,364.634z" fill="#FCC983"/></g><g id="change2_7"><path d="M12.572,371.094c-2.862-1.781-4.501-3.123-4.757-3.338c-0.752-0.631-0.933-1.689-0.485-2.52 c-2.443-1.309-4.886-2.617-7.328-3.937c1.047,6.218,2.921,12.276,5.486,18.028c-0.179-0.401-0.349-0.806-0.521-1.21 C7.49,375.769,10.025,373.426,12.572,371.094z" fill="#FCC983"/></g><g id="change2_8"><path d="M21.386,402.517c-0.364-0.366-0.717-0.743-1.074-1.116C20.67,401.773,21.022,402.151,21.386,402.517z" fill="#FCC983"/></g><g id="change2_9"><path d="M73.927,423.629c-8.861,0.189-10.422-0.006-10.428-0.006c3.781,0.557,7.605,0.839,11.442,0.85 c-0.588-0.002-1.176-0.014-1.763-0.029C73.428,424.172,73.674,423.902,73.927,423.629z" fill="#FCC983"/></g><g id="change2_10"><path d="M41.843,381.428c-11.026-1.488-19.727-5.066-25.571-8.197c-3.191,2.917-6.362,5.847-9.516,8.786 c-0.264-0.536-0.542-1.065-0.793-1.607c3.565,7.678,8.407,14.76,14.247,20.882c6.736-6.316,13.302-12.313,19.185-17.65 C40.208,382.903,41.028,382.166,41.843,381.428z" fill="#FCC983"/></g><g id="change2_11"><path d="M145.811,322.249c-22.232,24.005-47.425,49.527-79.022,80.1c-5.685,5.501-11.639,11.226-18.221,17.522 c-0.074-0.026-0.147-0.051-0.221-0.078c4.912,1.795,9.989,3.069,15.151,3.83C121.292,386.538,139.968,342.84,145.811,322.249z" fill="#FCC983"/></g><g id="change2_12"><path d="M142.663,319.655c-6.193-2.896-12.494-7.048-17.575-12.958c-22.247,25.129-47.321,47.776-71.77,69.846 c-0.533,0.481-1.064,0.962-1.597,1.444c6.903,0.091,14.511-0.742,22.712-3.024c1.087-0.3,2.206,0.333,2.508,1.416 c0.301,1.084-0.333,2.207-1.416,2.508c-8.357,2.325-16.109,3.253-23.154,3.253c-1.731,0-3.418-0.058-5.063-0.163 c-1.726,1.56-3.456,3.12-5.178,4.682c-5.839,5.298-12.352,11.247-19.033,17.509c-0.035-0.034-0.072-0.067-0.107-0.1 c1.019,0.964,2.056,1.91,3.128,2.815c2.579,2.199,5.308,4.222,8.172,6.027c3.247,2.049,6.628,3.813,10.111,5.311 c7.119-6.805,13.49-12.929,19.556-18.798C95.423,368.975,120.521,343.554,142.663,319.655z" fill="#FCC983"/></g><g id="change2_13"><path d="M116.635,278.317c-0.337,0.001-0.673,0.022-1.009,0.031c0.337-0.008,0.674,0.001,1.011,0 C116.636,278.337,116.635,278.327,116.635,278.317z" fill="#FCC983"/></g><g id="change3_1"><path d="M164.138,368.282c0.414-1.146,0.813-2.285,1.197-3.42C164.951,365.998,164.553,367.137,164.138,368.282 C164.138,368.283,164.138,368.283,164.138,368.282z" fill="#FEDEB2"/></g><g id="change3_2"><path d="M79.632,423.481c-2.175,0.065-4.066,0.113-5.705,0.148c-0.253,0.273-0.498,0.543-0.749,0.815 c0.587,0.014,1.175,0.027,1.763,0.029c0.341,0.001,0.681,0.006,1.023,0.003c0.937-0.009,1.874-0.038,2.812-0.079 C79.061,424.092,79.344,423.788,79.632,423.481z" fill="#FEDEB2"/></g><g id="change3_3"><path d="M66.789,402.349c31.597-30.573,56.789-56.095,79.022-80.1c0.107-0.376,0.207-0.741,0.306-1.102 c-1.143-0.458-2.294-0.95-3.454-1.492c-22.142,23.899-47.24,49.321-78.706,79.767c-6.065,5.869-12.437,11.993-19.556,18.798 c-0.003,0.002-0.005,0.005-0.008,0.007c0.418,0.181,0.842,0.346,1.263,0.518c0.397,0.163,0.791,0.333,1.19,0.488 c0.497,0.194,0.999,0.376,1.5,0.559c0.074,0.027,0.147,0.052,0.221,0.078C55.151,413.575,61.104,407.85,66.789,402.349z" fill="#FEDEB2"/></g><g id="change3_4"><path d="M50.59,373.519c-1.54,1.39-3.075,2.782-4.614,4.172c1.856,0.166,3.771,0.269,5.745,0.295 c0.533-0.481,1.064-0.962,1.597-1.444c24.449-22.069,49.523-44.716,71.77-69.846c-0.891-1.036-1.753-2.113-2.56-3.26 C100.297,328.629,75.129,351.368,50.59,373.519z" fill="#FEDEB2"/></g><g id="change3_5"><path d="M42.131,386.658c1.722-1.562,3.452-3.121,5.178-4.682c-1.882-0.12-3.701-0.31-5.466-0.548 c-0.815,0.738-1.635,1.475-2.448,2.214c-5.883,5.337-12.448,11.334-19.185,17.65c0,0,0,0.001-0.001,0.001 c0.034,0.036,0.069,0.071,0.103,0.107c0.357,0.373,0.71,0.751,1.074,1.116c0.525,0.527,1.064,1.038,1.605,1.55 c0.035,0.034,0.072,0.067,0.107,0.1C29.778,397.905,36.292,391.956,42.131,386.658z" fill="#FEDEB2"/></g><g id="change3_6"><path d="M119.792,276.1c-0.525,0.737-1.039,1.483-1.526,2.247c-0.139-0.004-0.277,0.003-0.416,0 c0.139,0.006,0.272,0,0.414,0.01C118.75,277.59,119.265,276.84,119.792,276.1z" fill="#FEDEB2"/></g><g id="change3_7"><path d="M16.272,373.231c-1.403-0.752-2.633-1.474-3.7-2.138c-2.547,2.333-5.082,4.675-7.606,7.023 c0.172,0.404,0.342,0.809,0.521,1.21c0.161,0.361,0.31,0.726,0.476,1.084c0.251,0.542,0.529,1.071,0.793,1.607 C9.91,379.078,13.081,376.148,16.272,373.231z" fill="#FEDEB2"/></g><g id="change3_8"><path d="M45.701,341.359c-5.489,4.878-11.039,9.813-16.596,14.788c1.196,0.714,2.443,1.429,3.727,2.129 c5.214-4.664,10.421-9.294,15.574-13.873c22.136-19.669,44.914-39.922,66.474-61.499c-0.07-0.57-0.162-1.119-0.215-1.703 c-0.101-1.12,0.725-2.11,1.845-2.212c0.056-0.005,0.11,0.003,0.166,0.003c-0.013-0.215-0.028-0.434-0.039-0.645 c-0.337,0.001-0.675-0.008-1.011,0c-0.19,0.005-0.38,0.011-0.57,0.017c-0.496,0.018-0.99,0.058-1.484,0.091 C91.633,300.541,68.329,321.254,45.701,341.359z" fill="#FEDEB2"/></g><g id="change3_9"><path d="M25.917,359.002c-3.391,3.046-6.778,6.112-10.156,9.188c1.105,0.646,2.37,1.338,3.796,2.051 c3.343-3.04,6.695-6.067,10.05-9.077C28.328,360.447,27.095,359.721,25.917,359.002z" fill="#FEDEB2"/></g><g id="change3_10"><path d="M52.488,306.188c0.008-0.001,0.016-0.003,0.023-0.004c4.505-3.962,8.955-7.996,13.309-12.116 c-2.922,0.929-5.861,1.802-8.814,2.624c-3.561,3.247-7.177,6.439-10.821,9.594c1.366,0.697,2.796,1.265,4.273,1.682 c0.123-0.107,0.246-0.213,0.369-0.32C51.04,306.901,51.669,306.308,52.488,306.188z" fill="#FEDEB2"/></g><g id="change3_11"><path d="M20.54,333.021c9.25-7.58,18.664-15.309,27.907-23.303c-2.399,0.531-4.849,0.83-7.313,0.907 c-7.707,6.557-15.498,12.954-23.177,19.246c-3.276,2.685-6.592,5.41-9.914,8.151c-0.001,0.001-0.001,0.001-0.003,0.002 c0.153,0.227,0.303,0.458,0.459,0.679c0.459,0.648,0.938,1.288,1.418,1.929c0.173,0.232,0.345,0.464,0.517,0.696 C13.82,338.535,17.2,335.757,20.54,333.021z" fill="#FEDEB2"/></g><g id="change3_12"><path d="M10.188,312.503c-0.001,0.001-0.003,0.002-0.003,0.003c0.262,1.49,0.662,2.994,1.144,4.477 c0.001-0.001,0.003-0.002,0.004-0.004c1.815-1.665,3.622-3.324,5.408-4.966c1.899-1.746,3.836-3.524,5.774-5.3 c0,0,0.001,0,0.001-0.001c-1.287-0.625-2.535-1.324-3.74-2.096c0,0,0,0,0,0c-1.604,1.471-3.216,2.949-4.792,4.398 C12.728,310.169,11.459,311.336,10.188,312.503z" fill="#FEDEB2"/></g><g id="change4_1"><path d="M167.679,326.305c-0.036,0-0.07-0.001-0.107-0.003c-0.221-0.012-10.203-0.641-21.454-5.156 c-0.099,0.361-0.2,0.726-0.306,1.102c-5.843,20.591-24.518,64.29-82.312,101.374l0,0v0c0.006,0.001,1.567,0.195,10.428,0.006 c1.638-0.035,3.53-0.083,5.705-0.148c2.952-0.088,6.419-0.206,10.518-0.364c5.808-0.225,11.454-2.078,16.847-4.918 c-4.029,1.655-8.311,3.027-12.863,4.036c-0.148,0.033-0.296,0.049-0.441,0.049c-0.935,0-1.776-0.647-1.987-1.596 c-0.243-1.098,0.451-2.185,1.548-2.429c46.766-10.363,64.189-60.987,64.36-61.497c0.355-1.066,1.507-1.644,2.576-1.286 c1.067,0.356,1.642,1.508,1.287,2.574c-0.118,0.356-8.266,24.039-28.285,42.961c-1.428,3.424-2.707,6.836-3.078,8.192 c-2.104,7.629-4.819,8.525,1.751,6.122c11.851-4.317,24.068-26.118,28.412-36.991c1.37-3.43,2.673-6.766,3.861-10.051 c0.415-1.146,0.813-2.285,1.198-3.421c4.355-12.85,6.668-25.136,4.021-39.449C168.988,325.953,168.372,326.305,167.679,326.305z" fill="#F6B561"/></g><g id="change4_2"><path d="M116.676,278.993c1.041,0,1.95,0.778,2.045,1.842c3.489,38.594,48.606,41.377,49.062,41.401 c0.595,0.031,1.111,0.318,1.461,0.744c5.947-6.012,11.747-19.815,13.742-28.277c-0.368,0.352-0.861,0.57-1.402,0.57 c-0.05,0-0.099-0.002-0.15-0.005c-32.566-2.35-39.075-33.394-39.137-33.707c-0.217-1.104,0.5-2.175,1.603-2.393 c1.107-0.211,2.174,0.498,2.391,1.6c0.232,1.155,6.016,28.316,35.437,30.438c0.927,0.067,1.655,0.748,1.837,1.614 c0.147-0.029,0.296-0.057,0.439-0.086c2.498-0.461,18.177,0.502,31.235,2.742c-1.465-5.199-11.049-17.986-16.533-20.104 c-4.249-1.629-10.453-3.692-10.453-3.692s8.362,0.244,13.575,0.57c6.285,0.407,16.14,2.946,16.643,1.737 c0.774-1.928-7.982-9.855-18.394-9.57c-1.587,0.048-4.571,0.06-7.943-0.042c-1.519,0.482-3.063,0.816-4.63,0.96 c-0.233,0.021-0.457,0.026-0.677,0.027c-0.27,0.001-0.531-0.011-0.781-0.039c-0.577,0.222-1.147,0.413-1.703,0.546 c-0.835,0.197-1.641,0.295-2.419,0.295c-1.617,0-3.107-0.424-4.456-1.269c-0.102-0.051-0.198-0.111-0.288-0.178 c-1.939-1.286-3.082-3.17-3.703-4.535c-0.241-0.561-0.33-0.882-0.33-0.882c-0.302-1.078,0.321-2.21,1.397-2.517 c0.341-0.098,0.682-0.096,1.004-0.025c-0.015-0.689,0.058-1.384,0.258-2.061c-0.08,0.093-0.164,0.192-0.244,0.285 c0.258-5.172,0.489-11.864,0.135-14.484c-1.262-9.434-6.258-20.063-16.439-22.52c2.498,12.204,3.638,20.457,3.245,32.796 c-8.199-7.317-18.91-11.104-29.769-8.294c4.846,5.036,9.15,10.493,12.801,16.276c-3.706,0.19-7.235,1.262-10.941,3.421 c-0.312,0.054-0.624,0.122-0.937,0.204c0.054,0.081,0.122,0.176,0.176,0.258c-1.629,0.991-3.312,2.213-5.049,3.652 c-3.02,2.506-6.243,5.946-8.993,9.81c-0.526,0.74-1.041,1.49-1.528,2.257c-0.141-0.01-0.274-0.005-0.414-0.01 c-0.41-0.017-0.821-0.03-1.216-0.03c0.001,0.01,0.001,0.021,0.002,0.031C116.647,278.558,116.662,278.777,116.676,278.993z" fill="#F6B561"/></g><g id="change5_1"><path d="M167.783,322.236c-0.456-0.024-45.573-2.807-49.062-41.401c-0.095-1.064-1.005-1.842-2.045-1.842 c-0.056,0-0.11-0.008-0.166-0.003c-1.12,0.101-1.946,1.092-1.845,2.212c0.053,0.585,0.146,1.134,0.215,1.703 c1.022,8.327,3.813,15.085,7.647,20.532c0.807,1.148,1.67,2.224,2.56,3.26c5.082,5.91,11.383,10.062,17.575,12.958 c1.16,0.542,2.311,1.034,3.454,1.492c11.251,4.515,21.234,5.144,21.454,5.156c0.037,0.002,0.072,0.003,0.107,0.003 c0.693,0,1.309-0.353,1.678-0.892c0.203-0.298,0.334-0.652,0.355-1.039c0.027-0.529-0.154-1.016-0.467-1.395 C168.894,322.553,168.378,322.266,167.783,322.236z" fill="#16213D"/></g><g id="change5_2"><path d="M181.729,291.205c-29.421-2.122-35.205-29.283-35.437-30.438c-0.217-1.102-1.285-1.811-2.391-1.6 c-1.103,0.218-1.82,1.289-1.603,2.393c0.062,0.313,6.571,31.357,39.137,33.707c0.05,0.003,0.099,0.005,0.15,0.005 c0.541,0,1.034-0.218,1.402-0.57c0.352-0.337,0.589-0.796,0.626-1.32c0.014-0.194-0.009-0.381-0.047-0.563 C183.384,291.953,182.656,291.272,181.729,291.205z" fill="#16213D"/></g><g id="change5_3"><path d="M7.815,367.755c0.256,0.215,1.895,1.557,4.757,3.338c1.067,0.664,2.297,1.386,3.7,2.138 c5.844,3.131,14.545,6.709,25.571,8.197c1.765,0.238,3.583,0.428,5.466,0.548c1.644,0.105,3.331,0.163,5.063,0.163 c7.044,0,14.797-0.928,23.154-3.253c1.083-0.302,1.717-1.424,1.416-2.508c-0.302-1.082-1.421-1.715-2.508-1.416 c-8.201,2.282-15.808,3.115-22.712,3.024c-1.975-0.026-3.889-0.128-5.745-0.295c-11.269-1.011-20.286-4.381-26.419-7.45 c-1.426-0.713-2.691-1.406-3.796-2.051c-3.398-1.985-5.263-3.5-5.33-3.556c-0.472-0.393-1.067-0.529-1.629-0.439 c-0.467,0.075-0.911,0.303-1.238,0.694c-0.091,0.109-0.169,0.225-0.233,0.346C6.882,366.067,7.063,367.124,7.815,367.755z" fill="#16213D"/></g><g id="change5_4"><path d="M13.279,350.195c0.373,0.303,5.467,4.426,12.637,8.806c1.178,0.719,2.411,1.445,3.69,2.163 c4.914,2.759,10.481,5.387,16.042,6.988c0.188,0.054,0.378,0.08,0.565,0.08c0.884,0,1.698-0.581,1.955-1.473 c0.312-1.081-0.313-2.209-1.393-2.52c-4.744-1.366-9.565-3.576-13.944-5.963c-1.285-0.7-2.531-1.415-3.727-2.129 c-7.615-4.547-13.158-9.032-13.251-9.108c-0.59-0.48-1.361-0.567-2.02-0.312c-0.319,0.123-0.614,0.32-0.844,0.604 c-0.508,0.623-0.579,1.452-0.265,2.136C12.85,349.74,13.031,349.992,13.279,350.195z" fill="#16213D"/></g><g id="change5_5"><path d="M161.477,358.05c0.355-1.066-0.22-2.218-1.287-2.574c-1.068-0.359-2.22,0.219-2.576,1.286 c-0.171,0.51-17.594,51.135-64.36,61.497c-1.098,0.243-1.791,1.33-1.548,2.429c0.211,0.949,1.053,1.596,1.987,1.596 c0.146,0,0.293-0.016,0.441-0.049c4.552-1.008,8.834-2.381,12.863-4.036c10.375-4.262,19.037-10.422,26.195-17.188 C153.211,382.089,161.359,358.406,161.477,358.05z" fill="#16213D"/></g><g id="change5_6"><path d="M52.781,310.238c0.098,0,0.199-0.007,0.298-0.022c6.85-1.005,13.549-2.897,19.915-5.619 c1.034-0.442,1.514-1.639,1.071-2.673c-0.441-1.033-1.635-1.516-2.673-1.071c-6.036,2.581-12.389,4.375-18.882,5.331 c-0.007,0.001-0.015,0.003-0.023,0.004c-0.819,0.12-1.448,0.713-1.66,1.46c-0.038,0.133-0.064,0.27-0.074,0.412 c-0.01,0.144-0.007,0.29,0.015,0.438c0.03,0.206,0.109,0.391,0.194,0.57C51.295,309.767,51.99,310.238,52.781,310.238z" fill="#16213D"/></g><g id="change5_7"><path d="M421.826,15.497c-0.593,0.514-59.795,52.189-116.488,114.326c-8.617,9.452-17.813,19.861-28.936,32.755 c-6.122,7.082-12.195,14.177-18.179,21.168c-9.484,11.081-18.53,21.645-27.257,31.575c-1.857,2.112-3.703,4.205-5.531,6.257 c-2.363,2.653-4.626,5.165-6.812,7.566c-10.618,11.664-19.235,20.458-26.751,27.31c-0.272,0.259-0.557,0.518-0.827,0.762 c-2.869,2.588-5.442,4.166-7.641,4.689c-1.528,0.361-2.798,0.188-3.879-0.53c-0.049-0.032-0.099-0.063-0.15-0.091 c-1.164-0.798-1.868-2.079-2.173-2.749c-0.09-0.21-0.138-0.351-0.151-0.393c-0.219-0.728-0.81-1.233-1.503-1.386 c-0.321-0.071-0.663-0.073-1.004,0.025c-1.076,0.308-1.699,1.439-1.397,2.517c0,0,0.089,0.32,0.33,0.882 c0.62,1.365,1.763,3.249,3.703,4.535c0.09,0.067,0.186,0.127,0.288,0.178c1.348,0.844,2.838,1.269,4.456,1.269 c0.778,0,1.584-0.098,2.419-0.295c0.555-0.132,1.125-0.323,1.703-0.546c0.432-0.166,0.868-0.355,1.311-0.571 c2.031-0.99,4.176-2.492,6.418-4.513c0.298-0.269,0.61-0.553,0.875-0.806c9.135-8.327,19.883-19.494,33.826-35.146 c10.45-11.731,21.326-24.438,32.842-37.892c5.98-6.986,12.049-14.076,18.167-21.155c11.101-12.867,20.272-23.249,28.863-32.673 c56.529-61.958,115.563-113.486,116.152-114c0.848-0.738,0.939-2.024,0.2-2.873c-0.281-0.323-0.642-0.534-1.027-0.633 C423.045,14.901,422.352,15.039,421.826,15.497z" fill="#16213D"/></g></g></svg>